<mxfile host="app.diagrams.net" agent="Mozilla/5.0 (Windows NT 10.0; Win64; x64) AppleWebKit/537.36 (KHTML, like Gecko) Chrome/128.0.0.0 Safari/537.36 Edg/128.0.0.0" version="24.7.13" pages="2">
  <diagram name="Page-1" id="SmtfjlGd7zVZ5Am8PQ5m">
    <mxGraphModel dx="1918" dy="2874" grid="1" gridSize="10" guides="1" tooltips="1" connect="1" arrows="1" fold="1" page="1" pageScale="1" pageWidth="850" pageHeight="1100" math="0" shadow="0">
      <root>
        <mxCell id="0" />
        <mxCell id="1" parent="0" />
        <mxCell id="P6VSjZuAVvzGLbSlFFp3-1" value="&lt;b style=&quot;font-size: 11px;&quot;&gt;Source stage&lt;/b&gt;" style="rounded=0;whiteSpace=wrap;html=1;fillColor=#f5f5f5;verticalAlign=top;align=left;shadow=1;fontColor=#333333;strokeColor=#666666;fontFamily=Roboto Mono;fontSource=https%3A%2F%2Ffonts.googleapis.com%2Fcss%3Ffamily%3DRoboto%2BMono;fontSize=11;" parent="1" vertex="1">
          <mxGeometry x="211.5" y="-370" width="1028.5" height="360" as="geometry" />
        </mxCell>
        <mxCell id="P6VSjZuAVvzGLbSlFFp3-2" value="Bucket 2&amp;nbsp;&lt;div&gt;&lt;b&gt;(Deployment location)&lt;/b&gt;&lt;/div&gt;" style="sketch=0;outlineConnect=0;fontColor=#232F3E;gradientColor=none;fillColor=#7AA116;strokeColor=none;dashed=0;verticalLabelPosition=bottom;verticalAlign=top;align=center;html=1;fontSize=12;fontStyle=0;aspect=fixed;pointerEvents=1;shape=mxgraph.aws4.bucket;fontFamily=Roboto Mono;fontSource=https%3A%2F%2Ffonts.googleapis.com%2Fcss%3Ffamily%3DRoboto%2BMono;" parent="1" vertex="1">
          <mxGeometry x="701.9200000000001" y="490" width="48.08" height="50" as="geometry" />
        </mxCell>
        <mxCell id="P6VSjZuAVvzGLbSlFFp3-3" value="" style="group;fontFamily=Roboto Mono;fontSource=https%3A%2F%2Ffonts.googleapis.com%2Fcss%3Ffamily%3DRoboto%2BMono;" parent="1" vertex="1" connectable="0">
          <mxGeometry x="660" y="635" width="550" height="295" as="geometry" />
        </mxCell>
        <mxCell id="P6VSjZuAVvzGLbSlFFp3-4" value="&lt;div&gt;{&lt;/div&gt;&lt;div&gt;&lt;span style=&quot;white-space: normal;&quot;&gt;&lt;span style=&quot;white-space:pre&quot;&gt;&#x9;&lt;/span&gt;&quot;Version&quot;: &quot;2012-10-17&quot;,&lt;/span&gt;&lt;/div&gt;&lt;div&gt;&lt;span style=&quot;white-space: normal;&quot;&gt;&lt;span style=&quot;white-space:pre&quot;&gt;&#x9;&lt;/span&gt;&quot;Statement&quot;: [&lt;/span&gt;&lt;/div&gt;&lt;div&gt;&lt;span style=&quot;white-space: normal;&quot;&gt;&lt;span style=&quot;white-space:pre&quot;&gt;&#x9;&#x9;&lt;/span&gt;{&lt;/span&gt;&lt;/div&gt;&lt;div&gt;&lt;span style=&quot;white-space: normal;&quot;&gt;&lt;span style=&quot;white-space:pre&quot;&gt;&#x9;&#x9;&#x9;&lt;/span&gt;&quot;Sid&quot;: &quot;PublicReadGetObject&quot;,&lt;/span&gt;&lt;/div&gt;&lt;div&gt;&lt;span style=&quot;white-space: normal;&quot;&gt;&lt;span style=&quot;white-space:pre&quot;&gt;&#x9;&#x9;&#x9;&lt;/span&gt;&quot;Principal&quot;: &quot;*&quot;,&lt;/span&gt;&lt;/div&gt;&lt;div&gt;&lt;span style=&quot;white-space: normal;&quot;&gt;&lt;span style=&quot;white-space:pre&quot;&gt;&#x9;&#x9;&#x9;&lt;/span&gt;&quot;Effect&quot;: &quot;Allow&quot;,&lt;/span&gt;&lt;/div&gt;&lt;div&gt;&lt;span style=&quot;white-space: normal;&quot;&gt;&lt;span style=&quot;white-space:pre&quot;&gt;&#x9;&#x9;&#x9;&lt;/span&gt;&quot;Action&quot;: [&lt;/span&gt;&lt;/div&gt;&lt;div&gt;&lt;span style=&quot;white-space: normal;&quot;&gt;&lt;span style=&quot;white-space:pre&quot;&gt;&#x9;&#x9;&#x9;&lt;/span&gt;&amp;nbsp; &amp;nbsp; &quot;s3:GetObject&quot;&lt;/span&gt;&lt;/div&gt;&lt;div&gt;&lt;span style=&quot;white-space: normal;&quot;&gt;&lt;span style=&quot;white-space:pre&quot;&gt;&#x9;&#x9;&#x9;&lt;/span&gt;],&lt;/span&gt;&lt;/div&gt;&lt;div&gt;&lt;span style=&quot;white-space: normal;&quot;&gt;&lt;span style=&quot;white-space:pre&quot;&gt;&#x9;&#x9;&#x9;&lt;/span&gt;&quot;Resource&quot;: [&lt;/span&gt;&lt;/div&gt;&lt;div&gt;&lt;span style=&quot;white-space: normal;&quot;&gt;&lt;span style=&quot;white-space:pre&quot;&gt;&#x9;&#x9;&#x9;&lt;/span&gt;&amp;nbsp; &amp;nbsp; &quot;arn:aws:s3:::bucket-devops-prod3167/*&quot;&lt;/span&gt;&lt;/div&gt;&lt;div&gt;&lt;span style=&quot;white-space: normal;&quot;&gt;&lt;span style=&quot;white-space:pre&quot;&gt;&#x9;&#x9;&#x9;&lt;/span&gt;]&lt;/span&gt;&lt;/div&gt;&lt;div&gt;&lt;span style=&quot;white-space: normal;&quot;&gt;&lt;span style=&quot;white-space:pre&quot;&gt;&#x9;&#x9;&lt;/span&gt;}&lt;/span&gt;&lt;/div&gt;&lt;div&gt;&lt;span style=&quot;white-space: normal;&quot;&gt;&lt;span style=&quot;white-space:pre&quot;&gt;&#x9;&lt;/span&gt;]&lt;/span&gt;&lt;/div&gt;&lt;div&gt;}&lt;/div&gt;" style="text;html=1;align=left;verticalAlign=middle;whiteSpace=wrap;rounded=0;fillColor=#d5e8d4;strokeColor=#82b366;fontFamily=Roboto Mono;fontSource=https%3A%2F%2Ffonts.googleapis.com%2Fcss%3Ffamily%3DRoboto%2BMono;" parent="P6VSjZuAVvzGLbSlFFp3-3" vertex="1">
          <mxGeometry width="550" height="295" as="geometry" />
        </mxCell>
        <mxCell id="P6VSjZuAVvzGLbSlFFp3-5" value="" style="sketch=0;outlineConnect=0;fontColor=#232F3E;gradientColor=none;fillColor=#7AA116;strokeColor=none;dashed=0;verticalLabelPosition=bottom;verticalAlign=top;align=center;html=1;fontSize=12;fontStyle=0;aspect=fixed;pointerEvents=1;shape=mxgraph.aws4.policy;fontFamily=Roboto Mono;fontSource=https%3A%2F%2Ffonts.googleapis.com%2Fcss%3Ffamily%3DRoboto%2BMono;" parent="P6VSjZuAVvzGLbSlFFp3-3" vertex="1">
          <mxGeometry x="15.714285714285737" y="102.6086956521739" width="62.777142857142856" height="53.919999999999995" as="geometry" />
        </mxCell>
        <mxCell id="P6VSjZuAVvzGLbSlFFp3-6" value="&lt;div&gt;&lt;br&gt;&lt;/div&gt;&lt;div&gt;Static website hosting&lt;/div&gt;&lt;div&gt;&lt;br&gt;&lt;/div&gt;" style="html=1;shadow=0;dashed=0;shape=mxgraph.bootstrap.radioButton2;labelPosition=right;verticalLabelPosition=middle;align=left;verticalAlign=middle;gradientColor=none;fillColor=#3399FF;checked=0;spacing=5;checkedFill=#0085FC;checkedStroke=#ffffff;fontFamily=Roboto Mono;fontSource=https%3A%2F%2Ffonts.googleapis.com%2Fcss%3Ffamily%3DRoboto%2BMono;" parent="1" vertex="1">
          <mxGeometry x="660" y="590" width="10" height="10" as="geometry" />
        </mxCell>
        <mxCell id="P6VSjZuAVvzGLbSlFFp3-7" value="&lt;div&gt;&lt;br&gt;&lt;/div&gt;&lt;div&gt;&lt;div&gt;Block public&amp;nbsp;&lt;span style=&quot;background-color: initial;&quot;&gt;access&lt;/span&gt;&lt;/div&gt;&lt;/div&gt;&lt;div&gt;&lt;br&gt;&lt;/div&gt;" style="html=1;shadow=0;dashed=0;shape=mxgraph.bootstrap.radioButton2;labelPosition=right;verticalLabelPosition=middle;align=left;verticalAlign=middle;gradientColor=none;fillColor=#FFFFFF;checked=0;spacing=5;checkedFill=#0085FC;checkedStroke=#ffffff;fontFamily=Roboto Mono;fontSource=https%3A%2F%2Ffonts.googleapis.com%2Fcss%3Ffamily%3DRoboto%2BMono;" parent="1" vertex="1">
          <mxGeometry x="660" y="612.5" width="10" height="10" as="geometry" />
        </mxCell>
        <mxCell id="P6VSjZuAVvzGLbSlFFp3-8" value="Transition" style="shape=flexArrow;endArrow=classic;html=1;rounded=0;endWidth=13.68421052631579;endSize=14.414035087719297;width=15.789473684210526;fontFamily=Roboto Mono;fontSource=https%3A%2F%2Ffonts.googleapis.com%2Fcss%3Ffamily%3DRoboto%2BMono;" parent="1" edge="1">
          <mxGeometry x="-0.1667" width="50" height="50" relative="1" as="geometry">
            <mxPoint x="2530" y="-199" as="sourcePoint" />
            <mxPoint x="2710" y="-200" as="targetPoint" />
            <mxPoint as="offset" />
          </mxGeometry>
        </mxCell>
        <mxCell id="P6VSjZuAVvzGLbSlFFp3-9" style="edgeStyle=orthogonalEdgeStyle;rounded=0;orthogonalLoop=1;jettySize=auto;html=1;fontFamily=Roboto Mono;fontSource=https%3A%2F%2Ffonts.googleapis.com%2Fcss%3Ffamily%3DRoboto%2BMono;" parent="1" edge="1">
          <mxGeometry relative="1" as="geometry">
            <mxPoint x="2600" y="-189" as="targetPoint" />
            <mxPoint x="2600" y="-39" as="sourcePoint" />
          </mxGeometry>
        </mxCell>
        <mxCell id="P6VSjZuAVvzGLbSlFFp3-10" value="&lt;div&gt;Transitions, connect stages&lt;/div&gt;" style="text;html=1;align=center;verticalAlign=middle;whiteSpace=wrap;rounded=0;strokeColor=#d6b656;dashed=1;fillColor=#fff2cc;fontFamily=Roboto Mono;fontSource=https%3A%2F%2Ffonts.googleapis.com%2Fcss%3Ffamily%3DRoboto%2BMono;" parent="1" vertex="1">
          <mxGeometry x="2520" y="-19" width="160" height="30" as="geometry" />
        </mxCell>
        <mxCell id="P6VSjZuAVvzGLbSlFFp3-11" value="Trigger pipeline execution&amp;nbsp;" style="edgeStyle=orthogonalEdgeStyle;rounded=0;orthogonalLoop=1;jettySize=auto;html=1;fontFamily=Roboto Mono;fontSource=https%3A%2F%2Ffonts.googleapis.com%2Fcss%3Ffamily%3DRoboto%2BMono;" parent="1" edge="1">
          <mxGeometry relative="1" as="geometry">
            <mxPoint x="-117.30681818181802" y="-239" as="sourcePoint" />
            <mxPoint x="265.88579431191397" y="-239.0434782608695" as="targetPoint" />
          </mxGeometry>
        </mxCell>
        <mxCell id="P6VSjZuAVvzGLbSlFFp3-12" value="Transition" style="shape=flexArrow;endArrow=classic;html=1;rounded=0;endWidth=13.68421052631579;endSize=14.414035087719297;width=15.789473684210526;fontFamily=Roboto Mono;fontSource=https%3A%2F%2Ffonts.googleapis.com%2Fcss%3Ffamily%3DRoboto%2BMono;" parent="1" edge="1">
          <mxGeometry x="-0.1667" width="50" height="50" relative="1" as="geometry">
            <mxPoint x="1250" y="-199" as="sourcePoint" />
            <mxPoint x="1460" y="-200" as="targetPoint" />
            <mxPoint as="offset" />
          </mxGeometry>
        </mxCell>
        <mxCell id="P6VSjZuAVvzGLbSlFFp3-13" value="Action Group 1" style="swimlane;startSize=20;fontFamily=Roboto Mono;fontSource=https%3A%2F%2Ffonts.googleapis.com%2Fcss%3Ffamily%3DRoboto%2BMono;fontSize=11;" parent="1" vertex="1">
          <mxGeometry x="233.38" y="-340" width="706.7" height="300" as="geometry">
            <mxRectangle x="340" y="-110" width="50" height="40" as="alternateBounds" />
          </mxGeometry>
        </mxCell>
        <mxCell id="P6VSjZuAVvzGLbSlFFp3-14" value="Action 1 [Source]" style="swimlane;startSize=23;fontFamily=Roboto Mono;fontSource=https%3A%2F%2Ffonts.googleapis.com%2Fcss%3Ffamily%3DRoboto%2BMono;fontSize=11;" parent="P6VSjZuAVvzGLbSlFFp3-13" vertex="1">
          <mxGeometry x="16.620000000000005" y="30" width="340.08" height="240" as="geometry">
            <mxRectangle x="-170" y="-320" width="70" height="30" as="alternateBounds" />
          </mxGeometry>
        </mxCell>
        <mxCell id="P6VSjZuAVvzGLbSlFFp3-15" style="edgeStyle=orthogonalEdgeStyle;rounded=0;orthogonalLoop=1;jettySize=auto;html=1;fontFamily=Roboto Mono;fontSource=https%3A%2F%2Ffonts.googleapis.com%2Fcss%3Ffamily%3DRoboto%2BMono;fontSize=11;" parent="P6VSjZuAVvzGLbSlFFp3-14" source="P6VSjZuAVvzGLbSlFFp3-16" edge="1">
          <mxGeometry relative="1" as="geometry">
            <mxPoint x="170" y="90" as="targetPoint" />
          </mxGeometry>
        </mxCell>
        <mxCell id="P6VSjZuAVvzGLbSlFFp3-16" value="This is where you stored your input artifacts for your pipeline. Choose the provider and then provide the connection details." style="text;html=1;align=center;verticalAlign=middle;whiteSpace=wrap;rounded=0;strokeColor=#d6b656;dashed=1;fillColor=#fff2cc;fontFamily=Roboto Mono;fontSource=https%3A%2F%2Ffonts.googleapis.com%2Fcss%3Ffamily%3DRoboto%2BMono;fontSize=9;" parent="P6VSjZuAVvzGLbSlFFp3-14" vertex="1">
          <mxGeometry x="57.06" y="180" width="225.96" height="50" as="geometry" />
        </mxCell>
        <mxCell id="P6VSjZuAVvzGLbSlFFp3-17" value="" style="sketch=0;points=[[0,0,0],[0.25,0,0],[0.5,0,0],[0.75,0,0],[1,0,0],[0,1,0],[0.25,1,0],[0.5,1,0],[0.75,1,0],[1,1,0],[0,0.25,0],[0,0.5,0],[0,0.75,0],[1,0.25,0],[1,0.5,0],[1,0.75,0]];outlineConnect=0;fontColor=#232F3E;fillColor=#C925D1;strokeColor=#ffffff;dashed=0;verticalLabelPosition=bottom;verticalAlign=top;align=center;html=1;fontSize=11;fontStyle=0;aspect=fixed;shape=mxgraph.aws4.resourceIcon;resIcon=mxgraph.aws4.codepipeline;fontFamily=Roboto Mono;fontSource=https%3A%2F%2Ffonts.googleapis.com%2Fcss%3Ffamily%3DRoboto%2BMono;" parent="P6VSjZuAVvzGLbSlFFp3-14" vertex="1">
          <mxGeometry x="20" y="52" width="48" height="48" as="geometry" />
        </mxCell>
        <mxCell id="P6VSjZuAVvzGLbSlFFp3-18" value="Action 2" style="swimlane;startSize=23;fontFamily=Roboto Mono;fontSource=https%3A%2F%2Ffonts.googleapis.com%2Fcss%3Ffamily%3DRoboto%2BMono;fontSize=11;" parent="P6VSjZuAVvzGLbSlFFp3-13" vertex="1">
          <mxGeometry x="366.62" y="30" width="163.38" height="130" as="geometry">
            <mxRectangle x="-170" y="-320" width="70" height="30" as="alternateBounds" />
          </mxGeometry>
        </mxCell>
        <mxCell id="P6VSjZuAVvzGLbSlFFp3-19" value="Action 3" style="swimlane;startSize=23;fontFamily=Roboto Mono;fontSource=https%3A%2F%2Ffonts.googleapis.com%2Fcss%3Ffamily%3DRoboto%2BMono;fontSize=11;" parent="P6VSjZuAVvzGLbSlFFp3-13" vertex="1">
          <mxGeometry x="366.62" y="170" width="163.38" height="100" as="geometry">
            <mxRectangle x="-170" y="-320" width="70" height="30" as="alternateBounds" />
          </mxGeometry>
        </mxCell>
        <mxCell id="P6VSjZuAVvzGLbSlFFp3-20" value="Action 4" style="swimlane;startSize=23;fontFamily=Roboto Mono;fontSource=https%3A%2F%2Ffonts.googleapis.com%2Fcss%3Ffamily%3DRoboto%2BMono;fontSize=11;" parent="P6VSjZuAVvzGLbSlFFp3-13" vertex="1">
          <mxGeometry x="540" y="30" width="150" height="240" as="geometry">
            <mxRectangle x="-170" y="-320" width="70" height="30" as="alternateBounds" />
          </mxGeometry>
        </mxCell>
        <mxCell id="P6VSjZuAVvzGLbSlFFp3-21" value="Action Group 2" style="swimlane;startSize=23;fontFamily=Roboto Mono;fontSource=https%3A%2F%2Ffonts.googleapis.com%2Fcss%3Ffamily%3DRoboto%2BMono;fontSize=11;" parent="1" vertex="1">
          <mxGeometry x="950" y="-340" width="250" height="300" as="geometry" />
        </mxCell>
        <mxCell id="P6VSjZuAVvzGLbSlFFp3-22" value="&lt;b style=&quot;font-size: 11px;&quot;&gt;Build stage&lt;/b&gt;" style="rounded=0;whiteSpace=wrap;html=1;fillColor=#f5f5f5;verticalAlign=top;align=left;shadow=1;fontColor=#333333;strokeColor=#666666;fontFamily=Roboto Mono;fontSource=https%3A%2F%2Ffonts.googleapis.com%2Fcss%3Ffamily%3DRoboto%2BMono;fontSize=11;" parent="1" vertex="1">
          <mxGeometry x="1470" y="-370" width="1028.5" height="360" as="geometry" />
        </mxCell>
        <mxCell id="P6VSjZuAVvzGLbSlFFp3-23" value="Action Group 1" style="swimlane;startSize=20;fontFamily=Roboto Mono;fontSource=https%3A%2F%2Ffonts.googleapis.com%2Fcss%3Ffamily%3DRoboto%2BMono;fontSize=11;" parent="1" vertex="1">
          <mxGeometry x="1491.88" y="-340" width="706.7" height="300" as="geometry">
            <mxRectangle x="340" y="-110" width="50" height="40" as="alternateBounds" />
          </mxGeometry>
        </mxCell>
        <mxCell id="P6VSjZuAVvzGLbSlFFp3-24" value="Action 1 [Build]" style="swimlane;startSize=23;fontFamily=Roboto Mono;fontSource=https%3A%2F%2Ffonts.googleapis.com%2Fcss%3Ffamily%3DRoboto%2BMono;fontSize=11;" parent="P6VSjZuAVvzGLbSlFFp3-23" vertex="1">
          <mxGeometry x="16.620000000000005" y="30" width="340.08" height="240" as="geometry">
            <mxRectangle x="-170" y="-320" width="70" height="30" as="alternateBounds" />
          </mxGeometry>
        </mxCell>
        <mxCell id="P6VSjZuAVvzGLbSlFFp3-25" value="Code builder" style="text;html=1;align=center;verticalAlign=middle;whiteSpace=wrap;rounded=0;horizontal=0;" parent="P6VSjZuAVvzGLbSlFFp3-24" vertex="1">
          <mxGeometry x="11.5" y="47.02999999999997" width="19" height="90" as="geometry" />
        </mxCell>
        <mxCell id="P6VSjZuAVvzGLbSlFFp3-26" value="Action 2" style="swimlane;startSize=23;fontFamily=Roboto Mono;fontSource=https%3A%2F%2Ffonts.googleapis.com%2Fcss%3Ffamily%3DRoboto%2BMono;fontSize=11;" parent="P6VSjZuAVvzGLbSlFFp3-23" vertex="1">
          <mxGeometry x="366.62" y="30" width="163.38" height="130" as="geometry">
            <mxRectangle x="-170" y="-320" width="70" height="30" as="alternateBounds" />
          </mxGeometry>
        </mxCell>
        <mxCell id="P6VSjZuAVvzGLbSlFFp3-27" value="Action 3" style="swimlane;startSize=23;fontFamily=Roboto Mono;fontSource=https%3A%2F%2Ffonts.googleapis.com%2Fcss%3Ffamily%3DRoboto%2BMono;fontSize=11;" parent="P6VSjZuAVvzGLbSlFFp3-23" vertex="1">
          <mxGeometry x="366.62" y="170" width="163.38" height="100" as="geometry">
            <mxRectangle x="-170" y="-320" width="70" height="30" as="alternateBounds" />
          </mxGeometry>
        </mxCell>
        <mxCell id="P6VSjZuAVvzGLbSlFFp3-28" value="Action 4" style="swimlane;startSize=23;fontFamily=Roboto Mono;fontSource=https%3A%2F%2Ffonts.googleapis.com%2Fcss%3Ffamily%3DRoboto%2BMono;fontSize=11;" parent="P6VSjZuAVvzGLbSlFFp3-23" vertex="1">
          <mxGeometry x="540" y="30" width="150" height="240" as="geometry">
            <mxRectangle x="-170" y="-320" width="70" height="30" as="alternateBounds" />
          </mxGeometry>
        </mxCell>
        <mxCell id="P6VSjZuAVvzGLbSlFFp3-29" value="Action Group 2" style="swimlane;startSize=23;fontFamily=Roboto Mono;fontSource=https%3A%2F%2Ffonts.googleapis.com%2Fcss%3Ffamily%3DRoboto%2BMono;fontSize=11;" parent="1" vertex="1">
          <mxGeometry x="2208.5" y="-340" width="250" height="300" as="geometry" />
        </mxCell>
        <mxCell id="P6VSjZuAVvzGLbSlFFp3-30" value="&lt;b style=&quot;font-size: 11px;&quot;&gt;Deploy stage&lt;/b&gt;" style="rounded=0;whiteSpace=wrap;html=1;fillColor=#f5f5f5;verticalAlign=top;align=left;shadow=1;fontColor=#333333;strokeColor=#666666;fontFamily=Roboto Mono;fontSource=https%3A%2F%2Ffonts.googleapis.com%2Fcss%3Ffamily%3DRoboto%2BMono;fontSize=11;" parent="1" vertex="1">
          <mxGeometry x="2740" y="-370" width="1028.5" height="360" as="geometry" />
        </mxCell>
        <mxCell id="P6VSjZuAVvzGLbSlFFp3-31" value="Action Group 1" style="swimlane;startSize=20;fontFamily=Roboto Mono;fontSource=https%3A%2F%2Ffonts.googleapis.com%2Fcss%3Ffamily%3DRoboto%2BMono;fontSize=11;" parent="1" vertex="1">
          <mxGeometry x="2761.88" y="-340" width="706.7" height="300" as="geometry">
            <mxRectangle x="2761.88" y="-340" width="50" height="40" as="alternateBounds" />
          </mxGeometry>
        </mxCell>
        <mxCell id="P6VSjZuAVvzGLbSlFFp3-32" value="Action 1 [Deploy]" style="swimlane;startSize=23;fontFamily=Roboto Mono;fontSource=https%3A%2F%2Ffonts.googleapis.com%2Fcss%3Ffamily%3DRoboto%2BMono;fontSize=11;" parent="P6VSjZuAVvzGLbSlFFp3-31" vertex="1">
          <mxGeometry x="16.620000000000005" y="30" width="340.08" height="240" as="geometry">
            <mxRectangle x="16.620000000000005" y="30" width="70" height="30" as="alternateBounds" />
          </mxGeometry>
        </mxCell>
        <mxCell id="P6VSjZuAVvzGLbSlFFp3-33" value="Action 2" style="swimlane;startSize=23;fontFamily=Roboto Mono;fontSource=https%3A%2F%2Ffonts.googleapis.com%2Fcss%3Ffamily%3DRoboto%2BMono;fontSize=11;" parent="P6VSjZuAVvzGLbSlFFp3-31" vertex="1">
          <mxGeometry x="366.62" y="30" width="163.38" height="130" as="geometry">
            <mxRectangle x="-170" y="-320" width="70" height="30" as="alternateBounds" />
          </mxGeometry>
        </mxCell>
        <mxCell id="P6VSjZuAVvzGLbSlFFp3-34" value="Action 3" style="swimlane;startSize=23;fontFamily=Roboto Mono;fontSource=https%3A%2F%2Ffonts.googleapis.com%2Fcss%3Ffamily%3DRoboto%2BMono;fontSize=11;" parent="P6VSjZuAVvzGLbSlFFp3-31" vertex="1">
          <mxGeometry x="366.62" y="170" width="163.38" height="100" as="geometry">
            <mxRectangle x="-170" y="-320" width="70" height="30" as="alternateBounds" />
          </mxGeometry>
        </mxCell>
        <mxCell id="P6VSjZuAVvzGLbSlFFp3-35" value="Action 4" style="swimlane;startSize=23;fontFamily=Roboto Mono;fontSource=https%3A%2F%2Ffonts.googleapis.com%2Fcss%3Ffamily%3DRoboto%2BMono;fontSize=11;" parent="P6VSjZuAVvzGLbSlFFp3-31" vertex="1">
          <mxGeometry x="540" y="30" width="150" height="240" as="geometry">
            <mxRectangle x="-170" y="-320" width="70" height="30" as="alternateBounds" />
          </mxGeometry>
        </mxCell>
        <mxCell id="P6VSjZuAVvzGLbSlFFp3-36" value="Action Group 2" style="swimlane;startSize=23;fontFamily=Roboto Mono;fontSource=https%3A%2F%2Ffonts.googleapis.com%2Fcss%3Ffamily%3DRoboto%2BMono;fontSize=11;" parent="1" vertex="1">
          <mxGeometry x="3478.5" y="-340" width="250" height="300" as="geometry" />
        </mxCell>
        <mxCell id="P6VSjZuAVvzGLbSlFFp3-37" value="Deploy provider" style="edgeStyle=orthogonalEdgeStyle;rounded=0;orthogonalLoop=1;jettySize=auto;html=1;fontFamily=Roboto Mono;fontSource=https%3A%2F%2Ffonts.googleapis.com%2Fcss%3Ffamily%3DRoboto%2BMono;" parent="1" edge="1">
          <mxGeometry x="-0.21" y="-9" relative="1" as="geometry">
            <mxPoint x="3017.01" y="-241.34" as="sourcePoint" />
            <mxPoint x="2865.0842056880856" y="-241.3055172413793" as="targetPoint" />
            <mxPoint as="offset" />
          </mxGeometry>
        </mxCell>
        <mxCell id="P6VSjZuAVvzGLbSlFFp3-38" value="" style="sketch=0;points=[[0,0,0],[0.25,0,0],[0.5,0,0],[0.75,0,0],[1,0,0],[0,1,0],[0.25,1,0],[0.5,1,0],[0.75,1,0],[1,1,0],[0,0.25,0],[0,0.5,0],[0,0.75,0],[1,0.25,0],[1,0.5,0],[1,0.75,0]];outlineConnect=0;fontColor=#232F3E;fillColor=#C925D1;strokeColor=#ffffff;dashed=0;verticalLabelPosition=bottom;verticalAlign=top;align=center;html=1;fontSize=12;fontStyle=0;aspect=fixed;shape=mxgraph.aws4.resourceIcon;resIcon=mxgraph.aws4.codepipeline;fontFamily=Roboto Mono;fontSource=https%3A%2F%2Ffonts.googleapis.com%2Fcss%3Ffamily%3DRoboto%2BMono;" parent="1" vertex="1">
          <mxGeometry x="3027" y="-264" width="48" height="48" as="geometry" />
        </mxCell>
        <mxCell id="P6VSjZuAVvzGLbSlFFp3-39" style="edgeStyle=orthogonalEdgeStyle;rounded=0;orthogonalLoop=1;jettySize=auto;html=1;fontFamily=Roboto Mono;fontSource=https%3A%2F%2Ffonts.googleapis.com%2Fcss%3Ffamily%3DRoboto%2BMono;" parent="1" source="P6VSjZuAVvzGLbSlFFp3-40" edge="1">
          <mxGeometry relative="1" as="geometry">
            <mxPoint x="2960" y="-240" as="targetPoint" />
            <Array as="points">
              <mxPoint x="2960" y="-194" />
              <mxPoint x="2961" y="-194" />
              <mxPoint x="2961" y="-240" />
            </Array>
          </mxGeometry>
        </mxCell>
        <mxCell id="P6VSjZuAVvzGLbSlFFp3-40" value="&lt;div&gt;Choose how you deploy to instances. Choose the provider, and then provide the configuration details for that provider.&lt;/div&gt;&lt;div&gt;&lt;br&gt;&lt;/div&gt;" style="text;html=1;align=center;verticalAlign=middle;whiteSpace=wrap;rounded=0;strokeColor=#d6b656;dashed=1;fillColor=#fff2cc;fontFamily=Roboto Mono;fontSource=https%3A%2F%2Ffonts.googleapis.com%2Fcss%3Ffamily%3DRoboto%2BMono;" parent="1" vertex="1">
          <mxGeometry x="2800" y="-150" width="310" height="60" as="geometry" />
        </mxCell>
        <mxCell id="P6VSjZuAVvzGLbSlFFp3-41" value="app" style="image;html=1;image=img/lib/clip_art/general/Full_Folder_128x128.png;fontFamily=Roboto Mono;fontSource=https%3A%2F%2Ffonts.googleapis.com%2Fcss%3Ffamily%3DRoboto%2BMono;" parent="1" vertex="1">
          <mxGeometry x="2880" y="-221.87" width="40" height="31" as="geometry" />
        </mxCell>
        <mxCell id="P6VSjZuAVvzGLbSlFFp3-42" value="Bucket 2" style="sketch=0;outlineConnect=0;fontColor=#232F3E;gradientColor=none;fillColor=#7AA116;strokeColor=none;dashed=0;verticalLabelPosition=bottom;verticalAlign=top;align=center;html=1;fontSize=12;fontStyle=0;aspect=fixed;pointerEvents=1;shape=mxgraph.aws4.bucket;fontFamily=Roboto Mono;fontSource=https%3A%2F%2Ffonts.googleapis.com%2Fcss%3Ffamily%3DRoboto%2BMono;" parent="1" vertex="1">
          <mxGeometry x="2817" y="-266" width="48.08" height="50" as="geometry" />
        </mxCell>
        <mxCell id="P6VSjZuAVvzGLbSlFFp3-43" value="CodeBuild" style="sketch=0;points=[[0,0,0],[0.25,0,0],[0.5,0,0],[0.75,0,0],[1,0,0],[0,1,0],[0.25,1,0],[0.5,1,0],[0.75,1,0],[1,1,0],[0,0.25,0],[0,0.5,0],[0,0.75,0],[1,0.25,0],[1,0.5,0],[1,0.75,0]];outlineConnect=0;fontColor=#232F3E;fillColor=#FF8000;strokeColor=#ffffff;dashed=0;verticalLabelPosition=top;verticalAlign=bottom;align=center;html=1;fontSize=12;fontStyle=0;aspect=fixed;shape=mxgraph.aws4.resourceIcon;resIcon=mxgraph.aws4.codebuild;fontFamily=Roboto Mono;fontSource=https%3A%2F%2Ffonts.googleapis.com%2Fcss%3Ffamily%3DRoboto%2BMono;horizontal=1;labelPosition=center;" parent="1" vertex="1">
          <mxGeometry x="1480" y="-612" width="72" height="72" as="geometry" />
        </mxCell>
        <mxCell id="P6VSjZuAVvzGLbSlFFp3-44" value="CodeCommit&lt;div&gt;&lt;b&gt;Deprecated!&lt;/b&gt;&lt;/div&gt;" style="sketch=0;points=[[0,0,0],[0.25,0,0],[0.5,0,0],[0.75,0,0],[1,0,0],[0,1,0],[0.25,1,0],[0.5,1,0],[0.75,1,0],[1,1,0],[0,0.25,0],[0,0.5,0],[0,0.75,0],[1,0.25,0],[1,0.5,0],[1,0.75,0]];outlineConnect=0;fontColor=#232F3E;fillColor=#FF8000;strokeColor=#ffffff;dashed=0;verticalLabelPosition=bottom;verticalAlign=top;align=center;html=1;fontSize=12;fontStyle=0;aspect=fixed;shape=mxgraph.aws4.resourceIcon;resIcon=mxgraph.aws4.codecommit;fontFamily=Roboto Mono;fontSource=https%3A%2F%2Ffonts.googleapis.com%2Fcss%3Ffamily%3DRoboto%2BMono;" parent="1" vertex="1">
          <mxGeometry x="1210" y="-612" width="70" height="70" as="geometry" />
        </mxCell>
        <mxCell id="P6VSjZuAVvzGLbSlFFp3-45" value="CodeDeploy" style="sketch=0;points=[[0,0,0],[0.25,0,0],[0.5,0,0],[0.75,0,0],[1,0,0],[0,1,0],[0.25,1,0],[0.5,1,0],[0.75,1,0],[1,1,0],[0,0.25,0],[0,0.5,0],[0,0.75,0],[1,0.25,0],[1,0.5,0],[1,0.75,0]];outlineConnect=0;fontColor=#232F3E;fillColor=#FF8000;strokeColor=#ffffff;dashed=0;verticalLabelPosition=bottom;verticalAlign=top;align=center;html=1;fontSize=12;fontStyle=0;aspect=fixed;shape=mxgraph.aws4.resourceIcon;resIcon=mxgraph.aws4.codedeploy;fontFamily=Roboto Mono;fontSource=https%3A%2F%2Ffonts.googleapis.com%2Fcss%3Ffamily%3DRoboto%2BMono;" parent="1" vertex="1">
          <mxGeometry x="1390" y="-612" width="70" height="70" as="geometry" />
        </mxCell>
        <mxCell id="P6VSjZuAVvzGLbSlFFp3-46" value="CodePipeline" style="sketch=0;points=[[0,0,0],[0.25,0,0],[0.5,0,0],[0.75,0,0],[1,0,0],[0,1,0],[0.25,1,0],[0.5,1,0],[0.75,1,0],[1,1,0],[0,0.25,0],[0,0.5,0],[0,0.75,0],[1,0.25,0],[1,0.5,0],[1,0.75,0]];outlineConnect=0;fontColor=#232F3E;fillColor=#FF8000;strokeColor=#ffffff;dashed=0;verticalLabelPosition=bottom;verticalAlign=top;align=center;html=1;fontSize=12;fontStyle=0;aspect=fixed;shape=mxgraph.aws4.resourceIcon;resIcon=mxgraph.aws4.codepipeline;fontFamily=Roboto Mono;fontSource=https%3A%2F%2Ffonts.googleapis.com%2Fcss%3Ffamily%3DRoboto%2BMono;" parent="1" vertex="1">
          <mxGeometry x="1302" y="-612" width="70" height="70" as="geometry" />
        </mxCell>
        <mxCell id="P6VSjZuAVvzGLbSlFFp3-47" value="AWS Developer Tools" style="text;html=1;align=center;verticalAlign=middle;whiteSpace=wrap;rounded=0;fontFamily=Roboto Mono;fontSource=https%3A%2F%2Ffonts.googleapis.com%2Fcss%3Ffamily%3DRoboto%2BMono;" parent="1" vertex="1">
          <mxGeometry x="1242" y="-670" width="278" height="30" as="geometry" />
        </mxCell>
        <mxCell id="P6VSjZuAVvzGLbSlFFp3-48" value="" style="shape=image;html=1;verticalAlign=bottom;verticalLabelPosition=top;labelBackgroundColor=none;imageAspect=0;aspect=fixed;image=https://cdn1.iconfinder.com/data/icons/picons-social/57/github_rounded-128.png;labelPosition=center;align=center;fontFamily=Roboto Mono;fontSource=https%3A%2F%2Ffonts.googleapis.com%2Fcss%3Ffamily%3DRoboto%2BMono;fontSize=9;" parent="1" vertex="1">
          <mxGeometry x="535" y="-256.5" width="45" height="45" as="geometry" />
        </mxCell>
        <mxCell id="P6VSjZuAVvzGLbSlFFp3-49" value="Developers&lt;div&gt;commit and push&lt;/div&gt;&lt;div&gt;changes to Github&lt;/div&gt;&lt;div&gt;repository remote&lt;/div&gt;" style="sketch=0;outlineConnect=0;fontColor=#232F3E;gradientColor=none;fillColor=#232F3D;strokeColor=none;dashed=0;verticalLabelPosition=bottom;verticalAlign=top;align=center;html=1;fontSize=12;fontStyle=0;aspect=fixed;pointerEvents=1;shape=mxgraph.aws4.users;" parent="1" vertex="1">
          <mxGeometry x="-190" y="-270.5" width="59" height="59" as="geometry" />
        </mxCell>
        <mxCell id="P6VSjZuAVvzGLbSlFFp3-50" value="Source provider" style="edgeStyle=orthogonalEdgeStyle;rounded=0;orthogonalLoop=1;jettySize=auto;html=1;exitX=1;exitY=0.5;exitDx=0;exitDy=0;exitPerimeter=0;fontFamily=Roboto Mono;fontSource=https%3A%2F%2Ffonts.googleapis.com%2Fcss%3Ffamily%3DRoboto%2BMono;fontSize=11;entryX=0;entryY=0.5;entryDx=0;entryDy=0;" parent="1" source="P6VSjZuAVvzGLbSlFFp3-17" target="P6VSjZuAVvzGLbSlFFp3-48" edge="1">
          <mxGeometry x="-0.0662" y="10" relative="1" as="geometry">
            <mxPoint x="318.08" y="-238" as="targetPoint" />
            <mxPoint x="508.08" y="-238" as="sourcePoint" />
            <mxPoint as="offset" />
          </mxGeometry>
        </mxCell>
        <mxCell id="P6VSjZuAVvzGLbSlFFp3-51" value="Filters: push: Include branches: main" style="text;html=1;align=left;verticalAlign=middle;whiteSpace=wrap;rounded=0;dashed=1;strokeColor=none;" parent="1" vertex="1">
          <mxGeometry x="-30" y="-222.37" width="200" height="10.87" as="geometry" />
        </mxCell>
        <mxCell id="P6VSjZuAVvzGLbSlFFp3-52" style="edgeStyle=orthogonalEdgeStyle;rounded=0;orthogonalLoop=1;jettySize=auto;html=1;dashed=1;" parent="1" source="P6VSjZuAVvzGLbSlFFp3-53" target="P6VSjZuAVvzGLbSlFFp3-70" edge="1">
          <mxGeometry relative="1" as="geometry" />
        </mxCell>
        <mxCell id="P6VSjZuAVvzGLbSlFFp3-53" value="" style="sketch=0;points=[[0,0,0],[0.25,0,0],[0.5,0,0],[0.75,0,0],[1,0,0],[0,1,0],[0.25,1,0],[0.5,1,0],[0.75,1,0],[1,1,0],[0,0.25,0],[0,0.5,0],[0,0.75,0],[1,0.25,0],[1,0.5,0],[1,0.75,0]];outlineConnect=0;fontColor=#232F3E;fillColor=#FF8000;strokeColor=#ffffff;dashed=0;verticalLabelPosition=top;verticalAlign=bottom;align=center;html=1;fontSize=12;fontStyle=0;aspect=fixed;shape=mxgraph.aws4.resourceIcon;resIcon=mxgraph.aws4.codebuild;fontFamily=Roboto Mono;fontSource=https%3A%2F%2Ffonts.googleapis.com%2Fcss%3Ffamily%3DRoboto%2BMono;horizontal=1;labelPosition=center;" parent="1" vertex="1">
          <mxGeometry x="1540" y="-255.93" width="75.93" height="75.93" as="geometry" />
        </mxCell>
        <mxCell id="P6VSjZuAVvzGLbSlFFp3-54" value="&lt;span style=&quot;background-color: initial;&quot;&gt;(contains&amp;nbsp;&lt;/span&gt;&lt;b style=&quot;background-color: initial;&quot;&gt;buildspec.yaml&amp;nbsp;&lt;/b&gt;&lt;span style=&quot;background-color: initial;&quot;&gt;file for CodeBuild service)&amp;nbsp;&lt;/span&gt;" style="text;html=1;align=left;verticalAlign=middle;whiteSpace=wrap;rounded=0;fontSize=9;fontFamily=Roboto Mono;fontSource=https%3A%2F%2Ffonts.googleapis.com%2Fcss%3Ffamily%3DRoboto%2BMono;" parent="1" vertex="1">
          <mxGeometry x="780" y="-605" width="170" height="40" as="geometry" />
        </mxCell>
        <mxCell id="P6VSjZuAVvzGLbSlFFp3-55" style="edgeStyle=orthogonalEdgeStyle;rounded=0;orthogonalLoop=1;jettySize=auto;html=1;dashed=1;" parent="1" source="P6VSjZuAVvzGLbSlFFp3-56" target="P6VSjZuAVvzGLbSlFFp3-53" edge="1">
          <mxGeometry relative="1" as="geometry" />
        </mxCell>
        <mxCell id="P6VSjZuAVvzGLbSlFFp3-56" value="&lt;div style=&quot;text-align: left;&quot;&gt;&lt;span style=&quot;background-color: initial;&quot;&gt;- It uses &lt;/span&gt;&lt;b style=&quot;background-color: initial;&quot;&gt;Docker containers &lt;/b&gt;&lt;span style=&quot;background-color: initial;&quot;&gt;to launch your build environments&lt;/span&gt;&lt;/div&gt;&lt;span style=&quot;background-color: initial;&quot;&gt;&lt;div style=&quot;text-align: left;&quot;&gt;&lt;span style=&quot;background-color: initial;&quot;&gt;- It acts as a command line in your pipelines.&lt;/span&gt;&lt;/div&gt;&lt;div style=&quot;text-align: left;&quot;&gt;&lt;span style=&quot;background-color: initial;&quot;&gt;- You can use the Docker images CodeBuild provides as well as the images on Docker Hub and Amazon ECR&amp;nbsp;&lt;/span&gt;&lt;/div&gt;&lt;/span&gt;" style="whiteSpace=wrap;html=1;fontFamily=Roboto Mono;verticalAlign=middle;fillColor=#FF8000;strokeColor=#ffffff;fontColor=#232F3E;sketch=0;dashed=0;fontStyle=0;fontSource=https%3A%2F%2Ffonts.googleapis.com%2Fcss%3Ffamily%3DRoboto%2BMono;align=center;labelPosition=center;verticalLabelPosition=middle;spacingTop=0;spacing=5;" parent="1" vertex="1">
          <mxGeometry x="1443.5" y="160" width="271" height="123" as="geometry" />
        </mxCell>
        <mxCell id="P6VSjZuAVvzGLbSlFFp3-57" style="edgeStyle=orthogonalEdgeStyle;rounded=0;orthogonalLoop=1;jettySize=auto;html=1;entryX=1;entryY=0.5;entryDx=0;entryDy=0;dashed=1;" parent="1" source="P6VSjZuAVvzGLbSlFFp3-60" target="P6VSjZuAVvzGLbSlFFp3-56" edge="1">
          <mxGeometry relative="1" as="geometry" />
        </mxCell>
        <mxCell id="P6VSjZuAVvzGLbSlFFp3-58" value="inputs" style="edgeStyle=orthogonalEdgeStyle;rounded=0;orthogonalLoop=1;jettySize=auto;html=1;dashed=1;startArrow=classic;startFill=1;endArrow=none;endFill=0;fontFamily=Roboto Mono;fontSource=https%3A%2F%2Ffonts.googleapis.com%2Fcss%3Ffamily%3DRoboto%2BMono;fontSize=9;" parent="1" source="P6VSjZuAVvzGLbSlFFp3-60" target="P6VSjZuAVvzGLbSlFFp3-61" edge="1">
          <mxGeometry relative="1" as="geometry" />
        </mxCell>
        <mxCell id="P6VSjZuAVvzGLbSlFFp3-59" value="produces" style="edgeStyle=orthogonalEdgeStyle;rounded=0;orthogonalLoop=1;jettySize=auto;html=1;dashed=1;fontFamily=Roboto Mono;fontSource=https%3A%2F%2Ffonts.googleapis.com%2Fcss%3Ffamily%3DRoboto%2BMono;fontSize=9;" parent="1" source="P6VSjZuAVvzGLbSlFFp3-60" edge="1">
          <mxGeometry relative="1" as="geometry">
            <mxPoint x="1920.342105263158" y="350" as="targetPoint" />
          </mxGeometry>
        </mxCell>
        <mxCell id="P6VSjZuAVvzGLbSlFFp3-60" value="&lt;b style=&quot;font-size: 9px;&quot;&gt;buildspec.yaml&lt;/b&gt;&lt;div style=&quot;font-size: 9px;&quot;&gt;Define commands and settings&lt;/div&gt;&lt;div style=&quot;font-size: 9px;&quot;&gt;for your CodeBuild&amp;nbsp;&lt;/div&gt;&lt;div style=&quot;font-size: 9px;&quot;&gt;(store in the source code root directory repo)&lt;/div&gt;" style="verticalLabelPosition=middle;html=1;verticalAlign=middle;align=left;strokeColor=none;fillColor=#00BEF2;shape=mxgraph.azure.file_2;pointerEvents=1;labelPosition=right;fontFamily=Roboto Mono;fontSource=https%3A%2F%2Ffonts.googleapis.com%2Fcss%3Ffamily%3DRoboto%2BMono;fontSize=9;" parent="1" vertex="1">
          <mxGeometry x="1896.5" y="196.5" width="47.5" height="50" as="geometry" />
        </mxCell>
        <mxCell id="P6VSjZuAVvzGLbSlFFp3-61" value="&lt;div style=&quot;font-size: 9px;&quot;&gt;&lt;b style=&quot;font-size: 9px;&quot;&gt;Commands&lt;/b&gt;&lt;/div&gt;- install&lt;div style=&quot;font-size: 9px;&quot;&gt;- pre_build&lt;/div&gt;&lt;div style=&quot;font-size: 9px;&quot;&gt;- build&lt;/div&gt;&lt;div style=&quot;font-size: 9px;&quot;&gt;- post_build&lt;/div&gt;" style="text;html=1;align=left;verticalAlign=middle;whiteSpace=wrap;rounded=0;fontFamily=Roboto Mono;fontSource=https%3A%2F%2Ffonts.googleapis.com%2Fcss%3Ffamily%3DRoboto%2BMono;fontSize=9;" parent="1" vertex="1">
          <mxGeometry x="1884.63" y="50" width="71.25" height="78.5" as="geometry" />
        </mxCell>
        <mxCell id="P6VSjZuAVvzGLbSlFFp3-62" value="Extract= true" style="edgeStyle=orthogonalEdgeStyle;rounded=0;orthogonalLoop=1;jettySize=auto;html=1;dashed=1;" parent="1" source="P6VSjZuAVvzGLbSlFFp3-63" edge="1">
          <mxGeometry relative="1" as="geometry">
            <mxPoint x="2962.1052631578946" y="-70" as="targetPoint" />
          </mxGeometry>
        </mxCell>
        <mxCell id="P6VSjZuAVvzGLbSlFFp3-63" value="&lt;div&gt;Build&lt;/div&gt;artifact" style="shape=folder;fontStyle=1;spacingTop=10;tabWidth=40;tabHeight=14;tabPosition=left;html=1;whiteSpace=wrap;fillColor=#FFFF66;fontFamily=Roboto Mono;fontSource=https%3A%2F%2Ffonts.googleapis.com%2Fcss%3Ffamily%3DRoboto%2BMono;fontSize=9;" parent="1" vertex="1">
          <mxGeometry x="1895.88" y="360" width="60" height="50" as="geometry" />
        </mxCell>
        <mxCell id="P6VSjZuAVvzGLbSlFFp3-64" value="You can use this output artifacts as a inputs to the next stages" style="text;html=1;align=left;verticalAlign=middle;whiteSpace=wrap;rounded=0;fontFamily=Roboto Mono;fontSource=https%3A%2F%2Ffonts.googleapis.com%2Fcss%3Ffamily%3DRoboto%2BMono;fontSize=9;" parent="1" vertex="1">
          <mxGeometry x="1840" y="420" width="190.62" height="30" as="geometry" />
        </mxCell>
        <mxCell id="P6VSjZuAVvzGLbSlFFp3-65" value="" style="sketch=0;points=[[0,0,0],[0.25,0,0],[0.5,0,0],[0.75,0,0],[1,0,0],[0,1,0],[0.25,1,0],[0.5,1,0],[0.75,1,0],[1,1,0],[0,0.25,0],[0,0.5,0],[0,0.75,0],[1,0.25,0],[1,0.5,0],[1,0.75,0]];points=[[0,0,0],[0.25,0,0],[0.5,0,0],[0.75,0,0],[1,0,0],[0,1,0],[0.25,1,0],[0.5,1,0],[0.75,1,0],[1,1,0],[0,0.25,0],[0,0.5,0],[0,0.75,0],[1,0.25,0],[1,0.5,0],[1,0.75,0]];outlineConnect=0;fontColor=#232F3E;fillColor=#E7157B;strokeColor=#ffffff;dashed=0;verticalLabelPosition=bottom;verticalAlign=top;align=center;html=1;fontSize=12;fontStyle=0;aspect=fixed;shape=mxgraph.aws4.resourceIcon;resIcon=mxgraph.aws4.cloudwatch_2;" parent="1" vertex="1">
          <mxGeometry x="1720" y="-440" width="50" height="50" as="geometry" />
        </mxCell>
        <mxCell id="P6VSjZuAVvzGLbSlFFp3-66" value="" style="edgeStyle=orthogonalEdgeStyle;rounded=0;orthogonalLoop=1;jettySize=auto;html=1;entryX=0.5;entryY=1;entryDx=0;entryDy=0;entryPerimeter=0;dashed=1;labelBackgroundColor=default;" parent="1" source="P6VSjZuAVvzGLbSlFFp3-53" target="P6VSjZuAVvzGLbSlFFp3-65" edge="1">
          <mxGeometry x="-0.441" relative="1" as="geometry">
            <mxPoint as="offset" />
          </mxGeometry>
        </mxCell>
        <mxCell id="P6VSjZuAVvzGLbSlFFp3-67" value="Option 3: Logs in&lt;div style=&quot;font-size: 9px;&quot;&gt;CloudWatch &lt;b&gt;group name&lt;/b&gt;&lt;/div&gt;" style="text;html=1;align=center;verticalAlign=middle;whiteSpace=wrap;rounded=0;fontSize=9;fontFamily=Roboto Mono;fontSource=https%3A%2F%2Ffonts.googleapis.com%2Fcss%3Ffamily%3DRoboto%2BMono;" parent="1" vertex="1">
          <mxGeometry x="1695" y="-490" width="100" height="50" as="geometry" />
        </mxCell>
        <mxCell id="P6VSjZuAVvzGLbSlFFp3-68" value="Option 1: Logs in&lt;div style=&quot;font-size: 9px;&quot;&gt;&lt;b&gt;pipeline execution details&lt;/b&gt;&lt;/div&gt;" style="text;html=1;align=center;verticalAlign=middle;whiteSpace=wrap;rounded=0;fontSize=9;fontFamily=Roboto Mono;fontSource=https%3A%2F%2Ffonts.googleapis.com%2Fcss%3Ffamily%3DRoboto%2BMono;" parent="1" vertex="1">
          <mxGeometry x="244" y="-550" width="100" height="50" as="geometry" />
        </mxCell>
        <mxCell id="P6VSjZuAVvzGLbSlFFp3-69" style="edgeStyle=orthogonalEdgeStyle;rounded=0;orthogonalLoop=1;jettySize=auto;html=1;entryX=0.5;entryY=1;entryDx=0;entryDy=0;dashed=1;" parent="1" source="P6VSjZuAVvzGLbSlFFp3-17" target="P6VSjZuAVvzGLbSlFFp3-68" edge="1">
          <mxGeometry relative="1" as="geometry" />
        </mxCell>
        <mxCell id="P6VSjZuAVvzGLbSlFFp3-70" value="Option 2: Logs in&lt;div style=&quot;font-size: 9px;&quot;&gt;CodeBuilder &lt;b&gt;build history&lt;/b&gt;&lt;/div&gt;" style="text;html=1;align=center;verticalAlign=middle;whiteSpace=wrap;rounded=0;fontSize=9;fontFamily=Roboto Mono;fontSource=https%3A%2F%2Ffonts.googleapis.com%2Fcss%3Ffamily%3DRoboto%2BMono;" parent="1" vertex="1">
          <mxGeometry x="1527.96" y="-480" width="100" height="50" as="geometry" />
        </mxCell>
        <mxCell id="P6VSjZuAVvzGLbSlFFp3-71" value="&lt;div&gt;Artifact produces by CodeBuild is passed to Deploy Stage&lt;/div&gt;" style="text;html=1;align=left;verticalAlign=middle;whiteSpace=wrap;rounded=0;strokeColor=#d6b656;dashed=1;fillColor=#fff2cc;fontFamily=Roboto Mono;fontSource=https%3A%2F%2Ffonts.googleapis.com%2Fcss%3Ffamily%3DRoboto%2BMono;" parent="1" vertex="1">
          <mxGeometry x="2640" y="128.5" width="300" height="31.5" as="geometry" />
        </mxCell>
        <mxCell id="P6VSjZuAVvzGLbSlFFp3-72" value="Github&amp;nbsp;&lt;div style=&quot;font-size: 9px;&quot;&gt;repository&lt;/div&gt;" style="shape=image;html=1;verticalAlign=bottom;verticalLabelPosition=top;labelBackgroundColor=none;imageAspect=0;aspect=fixed;image=https://cdn1.iconfinder.com/data/icons/picons-social/57/github_rounded-128.png;labelPosition=center;align=center;fontFamily=Roboto Mono;fontSource=https%3A%2F%2Ffonts.googleapis.com%2Fcss%3Ffamily%3DRoboto%2BMono;fontSize=9;" parent="1" vertex="1">
          <mxGeometry x="720" y="-610" width="45" height="45" as="geometry" />
        </mxCell>
        <mxCell id="P6VSjZuAVvzGLbSlFFp3-73" value="&lt;b&gt;Source Stage &lt;/b&gt;builds or generate a &lt;i&gt;source artifact&lt;/i&gt; and next&amp;nbsp;&lt;b&gt;Build Stage (CodeBuild) &lt;/b&gt;takes this built artifact as its input" style="edgeStyle=orthogonalEdgeStyle;rounded=0;orthogonalLoop=1;jettySize=auto;html=1;exitX=0.5;exitY=1;exitDx=0;exitDy=0;dashed=1;" parent="1" source="P6VSjZuAVvzGLbSlFFp3-75" edge="1">
          <mxGeometry relative="1" as="geometry">
            <mxPoint x="419.9999999999995" y="40" as="sourcePoint" />
            <mxPoint x="1700" y="-70" as="targetPoint" />
            <Array as="points">
              <mxPoint x="420" y="60" />
              <mxPoint x="1700" y="60" />
            </Array>
          </mxGeometry>
        </mxCell>
        <mxCell id="P6VSjZuAVvzGLbSlFFp3-74" value="produces" style="edgeStyle=orthogonalEdgeStyle;rounded=0;orthogonalLoop=1;jettySize=auto;html=1;exitX=0.5;exitY=1;exitDx=0;exitDy=0;dashed=1;labelBackgroundColor=none;fontSize=9;fontFamily=Roboto Mono;fontSource=https%3A%2F%2Ffonts.googleapis.com%2Fcss%3Ffamily%3DRoboto%2BMono;" parent="1" edge="1">
          <mxGeometry x="0.1429" y="10" relative="1" as="geometry">
            <mxPoint x="421.03999999999996" y="-70" as="sourcePoint" />
            <mxPoint x="421.03999999999996" as="targetPoint" />
            <Array as="points" />
            <mxPoint as="offset" />
          </mxGeometry>
        </mxCell>
        <mxCell id="P6VSjZuAVvzGLbSlFFp3-75" value="&lt;div&gt;Source&lt;/div&gt;artifact" style="shape=folder;fontStyle=1;spacingTop=10;tabWidth=40;tabHeight=14;tabPosition=left;html=1;whiteSpace=wrap;fillColor=#FFFF66;fontFamily=Roboto Mono;fontSource=https%3A%2F%2Ffonts.googleapis.com%2Fcss%3Ffamily%3DRoboto%2BMono;fontSize=9;" parent="1" vertex="1">
          <mxGeometry x="392.54" width="55" height="50" as="geometry" />
        </mxCell>
        <mxCell id="P6VSjZuAVvzGLbSlFFp3-76" value="" style="shape=image;verticalLabelPosition=bottom;labelBackgroundColor=default;verticalAlign=top;aspect=fixed;imageAspect=0;image=data:image/png,iVBORw0KGgoAAAANSUhEUgAAAHgAAABrCAYAAAC8JkbnAAAAAXNSR0IArs4c6QAAIABJREFUeF7lXXm8HFWV/k7VrX5hxxEQl4QlXe+FyBIVCbKJCigKwihhCRK6XzDgAKIjIsIgi0qQgRkXUAnJqw6IQUBnhm3YlE0dEQYNRMh73QGBoAiCiXlZXtdyJqdevaS7lq7qfl2PP+b+836/1/eee+qeW3XPPct3CG9i619e39fTtTOIeD8wigC2aGDnryA8ToxHPPBDlaLxGIj4TWR309QXM2sv1ZyZ7OFQ0nAIA/sC2KGBt/VMqBLot+R41w1MKzzxZvFNb8bEpWp9f4C+Q8B+2eenFQRe6ClVqexGr2Qf172e857ht9d1p0wazQV496yUGfgtMX/e6i08lnVMt/pNuIBLQ/VziOhKAIUOH8IGkeW6+mU39NHLHdJoa1i5xpOZ3YsJfCoA1dbgzZ3rzHxupbfwvQ7HdzRsQgVcrtr/BuCLHXEaHbQehGtHDHX5j3ehv3WJZhOZucv4H3gL50L28E8AJnVlDsJVVtH4cldoZSAyYQIuDTmzifimDDy12+Uv5NF5A33qhnYHtupfqjpHE/gHAN7ZTbo+LY9KVp9a3HW6MQQnRMD9yzf0sa4/CWDLGB5Wg1CBizvZc2qKQEz6jh6wNzR8EKCPAtgxbTEY+CmUOmu857Ocs07B+T4zjk2bE8BrBL4HwMOeh6cI7uvswSNNFaHjaDDkk75dDJ21GrkzFhUn1TLMMa4uEyLgUrX+IwKdHOaUCL9yXHVCq7N01jIubNPjHgviecz4SMrTvsqMz1R6jfs7WZVy1ZbN9KOQRhxH6n6AFgyP6LffuifVk+aaM8jv1DXnFgAHRPoQL7aKhVInfLYzJncBn1rdMFWDvjxGOVleh5p5k0l/z8qwaN8EunzjG/OhFmPkKnXlcFFdeCuRm4k2M5VqznkECG2txZhfA7jAMo2HM9EF8E/LeOv1Pc5vALw7NMbVyJ2W91ucu4DLNfvbYJwTejjPdb333DCt56msC9XYr7/qfJLhXQPQ5Bbj7x8pqBPSFDBfkZrk3NL668AvgrUzrV51Zyf8zq3W3+OB/hdA83pPgMKVv4CrThVgMWI0ttss05jVyWKNjZn3J97SXut8DYBopAlvHdVYcz5emTqpGjdXeXD97tDUXQCmJfDCILqeHP3cgWm0Zjz8lqv2fwI4JkRjuWUae4yHbtrYXAU859kNvbrSByNMeDjc6jMeSGMuy++nDtof0TSIdv62hP6vgvmTYSNDf9X+AAP/laTAMeHPGnDyQNF4MAsfaX36B50jWeO7w/08uMXF5qQVaeM7/T1XAfcP1c9gIrlqNLY1wyNqh1bKSbsPI5qvbThLANG6Y9t6MB0/9oktV51jAL65xd32IVbqpPFq5I2clJ7nSeQ4r4dvEuzxvEpf4fp2nzlr/1wFHHv+Eu62isYnsjKYtd/FD7J6cbIzH4xzE8bUiWk2CDqDRVM2YvsRrhyeqi7IrKBlZRBAqWrfS8ARTUMIV1tFI4nnNqjHd81bwHeDceREPlCpWu8n0A8TBOiBwGDoMcvhEPPZA70FGZtLK9fs74Dx+RDx2y3TCJ/NXZs/XwFX7SEAZhO3zGdYvYXruvYEMYSC+6zcP7fNOM9qZszq9P6ccQ70D9bPZI2uCfV/1jKN6VlptNsvbwG/GlFimI7u9LrRzsOVhuoziOi+DFawv7DjHV7Zo+fpduh30rc06BxLGv9HaOyfLNPovjk0mCRvAQ8D2KrpgVx8xJpm/KKTBWp3TGlwZBpp2qNJlikC/ubCO3ix2fOHdml30j/4sohps7GtskzjLZ3QyzImbwE7QPN5R8ABA6bxP1mYG28fuQqB8ABzrA1crA4bPA9HVPoM2QS5t7lD9iEeIWwFq1um0ZPX5LkJWKIeXqw5IuDmOZj3nwjHd+nZkb1I+W9vnLEfEIPmKGerPHgHTcRbXK7ZB4Dxq5AwPcs04pS+rsg8NwELd+WqvTbiQZqAT3Tped6ZHPs3AO2SaZWI/6hrxv4Ld6e/ZOrfYaf+qn0EA/eGhv/dMo34TdjhPI3D8hawhNY0WZjYo3+s9Ckx2+XSZr3EW2y9wZEzfv/IBIy1IHgAton8RnjC2FJ9cME7aF0ujPkb3jkO4FtD9F+2TONdec2Zt4Aj1yTy6NRuO+fHFic4Fn4C4LiYBVtPHo5gzdcJRNGJidDgW6yicWJewX3loXoZRAMh3nK1R+ctYFGmmt8kDxdYfcb8PHZsqWZfRoyLYmh7AJ1gmeo2/+gYdE6AxmLajDw/AZcOmMYlefBXHrIvBOEbTZ9Qwq8GisZBecwnNHMVcH+tvoSZTmxinmiBVVSnd/uBykPOUSAW50HEs0TAVwdM44rGOfuH7IuYcFncZmCPjq70qYhjYLw8l2vO9WA+rZkO/8gyC6eMl3bS+FwFXKra8zdeRc5vnJyB+yqmIZETXWulZ9fvSkpJ7PFbw0SZqFIpqnL0PGYqr7ArYJoT/k3ux+w5+1p9WzzXNSbly1Gz7wfjsOYNj29YRSPuq9OVqXMVcHmwPg8ahcyStMIyVdg/3PHDBEqVHAX7RIQLPLJ2RB2e5LmScKCtJzkPgHFwDANPslIHVnajDR0zFxpYrjorIvHUHn/W6iss7NYcMZs1L9JAebn9Yej4eWgGj1y1/Xgd6GM0y7W6vIUS3BZuL+u6el/a1UeuVHCdJ4nx9ugGoUUVU4U+qZ2t18lV3rYAR8J7m44QIny4Wz7nOM5yfYPnPMtv1ZXz1/DEnouDFk8zwhf+tleuVHVmEVicCuFmk4cPD/QZv8xCNHD+PxQbjM802+pVopCNq5WrtviqZY7GxtqI2mHRnvTGuIi3GJyrgGXecrX+YiR2yuOzrb5C2KvS1jNKtgGxs5SBiB2XwWe664zF7vaj2RNqHTRd29BkTHC9SaudLf07MfRVqOtb2KcR0bdjmFil2WrGoun0QlsMhjqXq/UvAiSB/5sag56vmCpzCkwn80+AgG3RbD/ZzBxZlqn6szI8i1mf9Bzeqdh5F3u0M+BN1ojOZSBqIGCug6jTtBgJgY0Zyy8x42pAe4k0fsUhtXL33bHyUiJ/g2Rp/dX6DQxq1pYJP7OKxqezjO+0T+4C7q/alzBwcUjANctUzX5iALNf4LdMsp0ZcHm6p1ERBJMYUwHILu9UaJ2uTdq4EQDPA6gxUNM8rnka/aFeUEvjIjnLtfrzYNq1+QONi6xeo+lenDZpu7/nLuDyoH0YNEQC0XVX7ePp7q4gnsmMvQHeJyUMtt1nexP7sxxLT4GwlJh+643oL1KP87swQwx8qGIa4XO5q3znLuAgvFW0x+Y3UHJ9mXOfv6ur1TExyWuOPOvI8CT1llsn0/qOyWYYmNsCy7m55Qp7hs50NEBfYvDWGfj5f9SF1oP4eri4Y9hWj3QzyrRxEbsqYDH2v1BzDiGik8AsykPEstRtCTJQB7x/2+jEeB7QVrPOqzXGape4TuT9nRz201c0d5K7fiv4aTJbrMW2nr7B98GyIp1Z21YD9TCwLbm0HeBtB52nMmtf2JjOEjn7N7uSu/Y0r4PoNjAvmVJUj7ajvKVx0BUBl1ZsMIn108EQu/N444sYEGHxM2PKi0PaCzrxtwBEgtPI47MG+grXpj1oJ7+XhupnE9F3w2MJWEZM53vs7cYaTR1VBmkPgHfrgn3/ZRCWaHCv60beUscCHn1b3U8Q+EyMxvq2TYsIHjOeBtFjzN5Sdmmpo6unwwlp/UP2l5kgqADh9uspRXVwN3d84wTBF+lBAg6JTs3/bJmFf2/8v1irejxnVGHUtX088Exi7NXJ2vhZxMB9zHTtFFO/u9NnbFsocrZuVXNnE1gM5JGrTptvyu8s03hvqzGj0RmOpL+EQ2DXsebOSMo7apOPxO5B+s3vQwAx0n+N66k90mAkSlV7GUUzC9tijwhDYLpsclFf0q6gswuYmcpD7vHQWO607SRMrQTRPSBaA88LwzcwSO1iFemlpCcu1+o3g+mEyBXDw5cqfUaTZaitVWujc+IXhHiJVSzMTiJ12vL1u7m6inqkCFcz0/YE/libR9ozDLqkUtRvyxqUkEnAc2sbih70H0RcXcmL9AaB72KPbrB61c+FmXkreDvbcyROuklpIcZ5A73Gv8aRCqIQ5Z4Y5nPZlJXqPZd+iCSoL/fmp8W8yxF3ZMRjhRYxZqVB+wLS8M0QgyPkqh3HnC2n1urv00BzwDgewM6ZHobwqO55py/s7Xk2rX9LAc97gg1nO+dCHvXppoV2OiDcDsaC4aJ6IC63p1y1JVQm7AteapnGjDCjviuvx5FPY/hrwZ6Lg7vhrEhbnMbf+wftg1jDIzGb7dnhETUj7ppTrtrLYhK/77RM4+jI8zLrW9ecw0CYB/bTTNMiLTcQ4/LJL6v5rTZ6ooD9s891bgUjLZzkNRCu01ldt9CklS3P06pzCoEjYCkaeXstKvbIYmxqccZ5+THRgd+OtDrsm+yajCpc/YP1fVgj2aDNLYN3ynekwDmDGfMywEk8rOvqhCS3aKyAy0P1mSD6acr58DoBV00aUdd8f0+SDIbUFsAZSGhqExgLA1dUTOOrYwTEJt1TdwSg5B9CRFc5pPpuLJJ86jO30aCA+m6ep/k+X03z/syq8Fy7zvzTnuO3ua4jcBTbhyZ/Y6Sgio026HLN/hYY54X6DTvr1M437kMSTpza/PUqOOeA8M8xa9E4fiWYj4uLN48IuDRoH0wa/juScrKZXJ0IV42w+lY7+Bpjw8u1+o/BdFJoW780XDR2G/us96+wr2bPf6jm1qabce6Q8wlP47lg/1gII/xICO297NKiduKvyoP1s6BRFMysIQ00OLP/GH1BOou/Ev2l7jnnE/ClxLRXYK3n4qPho6tJwAGWhMQUh3eov9CCiuOyd/p4sgCC4Lg7Il8u0Ccrproj0DxFeQif+cunrFR7ZVGsRCl0WV8Uf3+NfXEegufMzRKDJdfErWvO0pizte7BnS7Z+v2Dzj+yxj+Lfp1xZKVohHOTUt/ksQ7BlU3SW5NAaP7OHh9W6Ss8PjZmk4D7l/M7WHcEFCXOvOiB8TXLVJdnVc+TuJbd/cJk58VwiAwT7qoUjaMSr0XBBkhbjVLVPpQEMyv6eU8bKtn3n86CoDMKAuNHcDa34NqUoEy+PGWl2jXLBm3FaGB8uYgAwSeJwyZ5jZXaewydYJOAy1Vb3qqjYoivJo9OGuhT8tnuSivX7K+D8S8hYi659CnWWbIewkfHg5ZpfDht8nJ1ZDqgSQBe1rzgMMlhdrwDsqSSlqu2XN/CkBHMcI8h6PIMzbFXXY63Dr6Egk0S96ybksr9hSwlaLcAhgVyoNvZgKIlgh1xljddBQhcY1A44tLziPdbXCwIDFFiE7dkfa27jEbtweNo9NzwJH3PNDdecJzJ3bj5LWKugSLP4Dqa2v3GqfTiOBiLDD11uX2gpvu5Ts0puv4bQp8ZMNVNvoDLVVvyY8OGfBcujsgrl7dUs+8kRgasjmyKSYJRobP1ZHzF6jXibN9N9OIVxtgp/8syjSzQiG3zGwRUyLkevjcvs0xjLwou8HH5sd+yTKMpaL3t2VsMCMA+b0+h6bqOO/2GPSZJjlNiC7RWSXTrlnvyr1NWqrennZe+hY91UQhbQgwzjU+5Slv3cs3+1zjwGcnFFgi/HxDzGSEiclBPafeemMZI4++j2qg71BpYO1twXkL8dTvsxPU9NIvCVa7VF8dlR4wRFEfB5Klqj3adBO0wHwT/iz2/eYMTXUexykLO0D5jzCfeKUc7OB7caVlAwuID+9pZomjfjU79SyqmcWkaFd8X7unPJL3FxPy5PJF7Nq1lPBb3UoqLW2bQ8RVThfNY05617d9HFSP7ZQLF3LtpwDLV3CxES1VnIYEz9c1CT/oQ0fUDRSWmwtSW9BYz+G9rJxnvTFPYUifI0CHhyFstb7AkPDcWwxCDRq7pFI38lmr1p4hJnOLNzfNOtPp6JNc3tZWrtmzGuJzg1LHJHfhWyyyIhye1nVodOVmDJuBqTY2A3w2k+LtTiWfskKBL2SLgSJI2g+ZUTHVjRtodd/PxlMl5HhSDOkf4hVU00vCh/bn7q861DBbY/e41omusojo7C8GEO7EMrRu22nXBdPpzFjrj6VMadE6k0ZznxvZXEXDEhcfgmypm4TPjmTDL2ASD/KahGuODi3oNcdG1bOUh+zwQJGare43xZavXuCqNYH/N/hAzEmGhiHD5QNG4MI3OeH+Py8UW0zL11+xvMuOC0AQbyFVTB6bRn8Y7cdL4wLMkml+s3TsYl8mCNWf5yN66rol9uGvNg7dnFpt7qWo/nGLzfsNZp6Zk9SB18gABsrwg1jbZ72VzUYCZLK65sHkw1jHdCQNxY8pD9dNBPqZkWst4XbGXg9GXRizj75ngBbNezxg8t2IWwtgcGVlJ71au2XeB8fFQT9bI7R21ZNXsn4MRsfW2CqdJnzbls1q1xfTYFHAXhP+HN9qvraI6KM3J0V91jmdwJqUsjXdiOm6gV4nDIrlJjFrNEYj/MJpPNGya8LhVNNooApbG4ebfS1X7KwQ0wVP4vxIesIrG4f5iBvmxYs0Km7uYwWdVzML3s0+Z3nPuYH0/T6NIFTACHuHYEFWaNQagkkhdFnyFc18bcWOxpHyIiaL6WMcbivBoHGKAR7xvmj09feWaewTgpuKbDr8ULoMPqpiF32z2JsVHIAjF9otcpHCacG8dZqXeT44j5Xearm0A1YZH9HenpXdI/QWvx30spoRA1rWrjhTUzLQ6D6PxYu4zAEvmY2Nb57DaV5EfoNcUYNDOvTqNWbECblNzLmL4iEJRl6GG+dZUw9erNgk4QCSXT857Eia41yE1p91wmTCtAMpAlLdmDwjRQquoPlteYV8OD5vCdzaNZz7H6i1EsgzC9P36gobzn+3VRfSpPAlSx7YK4R2bKyjPF00Wp1FAlXLVGQA4DPwyTK56x3ihK4JYuRsTv1SEJ7ZmddD3TJL01uZXu1zlHQFH/JxJ+MWrmPmSXUzje53aVgPA7kVhwYx9wvqX8zasSyGPZoQ8Qb6hEVXMAncgttmtRpyvEvthPxFXWmhucYle7Sl1RRbbe+l53p4cP14s7Nh4rQ5VlDCmIKZNSuk0tXGBwDFT/5B7CmssseDxThXCoK6pDzYG4EViskYjO9yHW37mCL/0HJzfSehqgkL3pGUa7xtbjQTgbDkrvl0xjcy1DwPMypMAEoSBPRsiFAU35GkC367pxpI0oJZGKZWq9r8T8IWw8AQ2olFXKVdtyQcOhwPfb5lGM6R/2vdYdKRB+yDouIIZByZ1F6eGqqtDw0aV2KjKeYO8g607S9IUFgLuIY8vXtRX+G0GPhHc18TpHYp24C8OmIVNnzyJx7a3d56OufY4ruu9r9N6S2dX2b8njn2+svDc2CcIhZXztdk9SBg0Vqm9FuxL9uZNan+JNYQNJS4r9a6sxT6CMryXRuo8RBm/VxtRs+O+bolx0b47b4VzOdivS9Q6A4LwKDFdo1br/9H4kGE+ykP2uSCEsxhcw1aTwzsvqIwSBS0l/NKaqg5J03LbFV5qf/lErnAejX+L6FjLVE0xWlk3c0SHeIKN+jbup0nnMzPEpDMR5q+Zqr6WVEQkNXVFTHEbUyp+yIzetEWQWkMELAJ7SyyzR1xoTa1ctUVDblLiWiHf9Vft/2ZA8nea2wRW7xybOAFIVHb+PQOm0Vx4JBgUdxxJseiKacyMrs3IdJB2EgNz4zC7YtZ+ucY4Pc2UmypgISwaNlznAjF8ZEhh8XlhwlMaYwmRe5vkuc59hnfxDEdihZtaK8UjiJiQWgphZNhXWam+ym60Km3TdeP3IBBfAt53CtEbcR1376SIk/5qfS6Dwih2rENNkSwQ35fs6MexjhPJxynJ1EbEsLEV1PwsR00mAW/axRIsB+dcMARMNC1XqYFbeo7hvUKgcBXOkTrUTq0C6BMiMMVh61+rMi3JODslXHuE6mWWaYQQhDZPFmwMyeRoqtFE8O5jaAIB1U61FZvAN29MzLokS/z2GBdtCXhskFQUJVL/QsySodCGoCMr/b8jBXV4K8OCf+XZ4P4hJlpSDDBHWqYRRlAfpzibhwel8wQlKLRW/IKxlTG9FYC4X/iyx/kFx2UlZudyBKCbdNf+xsJpW0gkalutIwGPzXBKjXfSXee0jeBgZ4wDAknAxCQ26yl49HsGLfWgL21MrG4RaP7HLTYYe2XNjWprZeR64t/JJUOQpoTHakxHLer1C1v6TZQqDe4+JNn9GktJnxnMfoJ8h2vML8KjH0JTCy2TXmuX93G9weHJggC6owBvNiCoOmFTY0fsrRaQMYBXEFHN8/hwInp/mBJrdG1lqjqroxlSBpWrzvcB/lxMt8eg4RfwxFTpx0CLybIbdRfWgfgOYu3Ha4r6Xd0or9fh7kpeGfHzbuhxj2GwALJIREbIrtxlUYz6bv4H4FGUHbBsjFUas1QzG4UaJG0NE5qSxYmhwJ5fu4EImke0Hfm4l7Stj7JDtDs4pu5Dl9kHIDhZDzDTzVvW9du7/TXquoAbn98P51znHEgaLWHwDt1fmxwp5oCVFOL2dQZ9TnP1e8Zrn261CrkKWCYO7NuiSYbmkjQOFk2yVUn1HCU4YaQ9Bq0kcPgc91xH7XTDHiRJb7m1CRBwbCkZ19DUW4cVtEl15/3MmMHEexNIMDCkGnfLTIHcVmP8hOUYWM7gpRqLsojf13v8UgPoqfu42c0mWo8+NdCnwrUMx89FA4XcBRybzN0iwkHsxWs9expIKzJ4Kmnk/wVLmXiSDP34ur9dXZaWxOoA/xlEK8RPDY9XMKimsbdiK81YnmR8iHU+EK60isZX8mQ9dwHHeo8I37WKxjmdPJjAKDgj9Z1IaWLTjivusRqEp7C5XuGWAAV3dS/YHFrgFGDxmfqFsJiwDox9KC4dk+hutt3zXaPwl0794QmhvR15l9pZt3wFPBq3JJ+mZqyNLtiST1nKW6kt/cgJ+aSHWraMxMZBpZpjEXMpZvGeNbZS+463IlqC2fJ1yzRyVT5zFXBQ7iZifSGPZwz0FcYd5lqu1t8LkCR8R8HCPT7d6issyLLby9X65wCKizsb0cAfWGQWIljPWeg29gl4jeY4k5qSJYqk3fnG+ucr4KpztDjVQ8zVh0fUNmnxVVkfqL9a/wKDmjAjg7Ej7PHBjXgVcTSDAEAJro+aXNsEfWnFc4D7tSa8GcMWsazPnbVfrgIuD9U/D6LvhJjxE5OzMpilXxKuB8AvGbYxMyl1JMAlkejOmOKQ/GPLLJycZf6sfcpVWzxjElmyuXVxE8XxkauAE8Jb7rBMI1SkI+sSxfcLzmMR1LtjejzprFOHhDMLRp0YzkMJwXnLnHVq/25nI8TioBCusoqGBFXk0nIVcLlqS0SGwPJtbuPQoFutQJCnK/BBUZsw4WdTpqpZY4GCglTz0grnp8yIg1VYo7M3MwsOZLsSKdec74G5yW7OwE8rptHlzMjG5W6Xyzb6l2OyF4Ao7F8bJFt2DfCppMJo1DrWcOdMBFqD2K7pU+Hwm+7xFxOnlWPWg/Cd6xtcqjrPRfy4GbAax7Ogiakc8rAezvV8qP8oirs/Z8aMwk75S0AzqlqmkRoO1emcuQq4XLXFj9l8z2M62upVd3bKcJZxCbgjImJJf4rd2Izu1SlM4rE06BxLGodNk69YphGpm5jlObP0yVvAUrkzfP3IlC2YhfmkPkHY7d1pYb8N4x8aHlEf7dbVLYmvIDrkgdDvay3TyK0iTW4CDsqt+xVPGpvm8cyscdTjEXIQDyX32+ZrSYioBAcWSB2yYCqJHznXFiT5SXpQY2PLNHLzqOUmYHmCctUWm2+TZ6hblUezSEJCihTcJ8GcUAmGXjFs/b0TAbEg/AY4mg+GeF9vmUYYCTfL42Xqk7eApU6RHzWxqXk43Oozwp+pTMy22ynIGRY8xwT3I7sE7VSB/GuXdif9S4POx0njTXFcAY1c7dF5C1jQ597WvBjRLIBOFittTJDkJrboNGh8Bx6dZvWpxWk0x/t7uRrrG19pmcbk8dJOGp+vgGu2uO2azJKE5jykrj/YqAfrEozmzmZ9PlGtL7GK6ut5psQkVG9JLS00njXKugAdzVGq2rcREKqPSz+wTNVdyKOAOzHob9NjL4zU6Q1+Z8brUowLwI6xD0S8eHiDMS8vbbq/5ixg5uZgfeKfWMWCBCjm0nIVcFwyt0D7DBSNtEIfbT+s7zhQzs1x8AkBsZXkuodpGmkuaaIDvCNhkocNW52Uh+JVrtri2mzG9AiSxtt+4IwDchVwf9U5mcFhBDiHldqxm3lFwf1SFKXQeb9pFarwnI+NpXyM5jype2IgGMYGvLIx33b2QNEIa7wZlzXazU/J1RzRSZp0AvbopEqfurljwikDcxWwf01hR1DeQqDZNNvqVWFUtraf0TdobOcIcrwAjcUqU/LFcGx1TDh6MYj2lJTPDyRMLHf4y4zVan6rlNisTPcPOnNY47Ai5xqe2nlBH0nUSy4tVwELx6Wq/ViMS+5Jq6j2HY9CEyRjCxTEJmSA8AqJp2btJHVKEhioBPgNk21Fq8BspiSGELh8WlrgQJp0ylVbwouaeM3ruGrkJXcB91ft8xmYH1l8pk9XelWkMknaQo0i6fhvreBIJoXXSuXOrw8U1aVpmyiwuEmGoNBMsihJVbdvjxjq8jQEnjj+S1VnFoFvifyWs3ND5stdwIHJUPKCm4pH+KAq5O6XtUZuUCTqCyCcm5IH9Co8nNyuMaW/ah/BgOgL8Rr2qHRWwcOVzgb13azBAEEpHAlGCEM2rjI0tWveJtLcBSyrkoCHKT+9xoQ5rWoJjRa/0D4LsITPpFVTeZhcNbtTjE0fdmEUm+TglC/JatboR3C9hZXeQrR8XTC4f9A5Mjh34zZNy9zitC9Z1t8nRMCjb7GgztAuCYz9DoS74FIN5GkAvRXE+wB0aHyHUC/EAAABcklEQVS8VITKMDNfsItpXNspvNMYRb8uUdWWyt9SNTQNgkmcyC8R8BAzPQWwlPvjjcIvBtiRsZhjLBXOlf7ebt4kkgQ+IQKWyYOw0V/mkG14r2ar0xdNpxey7uos/YIKbNcBODxL/zb6rGPmA1u9+W3QSu06YQL2NepR0Gq5KkTjmFNZjXSQ/J8LG5Ow2yeRPsKHyif+Ztjkmj4ytscIgeYMmCqqcHVIMG3YhArYf5P9yqa4JS5rPo1Z/3fC0/Bo/hRT/8l4P8eZ5tv4EfaD9GruSQyWMkMt/cvJNPlFzcOsifCFN/Iw4QKWyQOgtfPBEDzHcAnZuDUaBuhWAl/f7SpsWYU81q9csw8AeB6YJBIywxmNN0CwDFddkadB400/g+MYkNjkbda5szyF/eCxqRF23Yg+X2fgDdGwATxOhEeNVerxbliT2hVmq/5BWND7iXHIxsKakgK7A8lmlfoTjD+yJpmHeGztJP22iai6ksTr/wEVDiIXV+tmhgAAAABJRU5ErkJggg==;" parent="1" vertex="1">
          <mxGeometry x="760" y="-610" width="13.46" height="12" as="geometry" />
        </mxCell>
        <UserObject label="&lt;a href=&quot;https://us-east-2.console.aws.amazon.com/codesuite/codepipeline/pipelines/ReactProject/edit?region=us-east-2&quot;&gt;Edit ReactProject | CodePipeline | us-east-2 (amazon.com)&lt;/a&gt;" link="&lt;a href=&quot;https://us-east-2.console.aws.amazon.com/codesuite/codepipeline/pipelines/ReactProject/edit?region=us-east-2&quot;&gt;Edit ReactProject | CodePipeline | us-east-2 (amazon.com)&lt;/a&gt;" id="P6VSjZuAVvzGLbSlFFp3-77">
          <mxCell style="text;whiteSpace=wrap;html=1;" parent="1" vertex="1">
            <mxGeometry x="-210" y="-370" width="350" height="40" as="geometry" />
          </mxCell>
        </UserObject>
        <mxCell id="P6VSjZuAVvzGLbSlFFp3-81" value="add permissions&lt;div style=&quot;font-size: 9px;&quot;&gt;through policies&amp;nbsp;&lt;/div&gt;" style="edgeStyle=orthogonalEdgeStyle;rounded=0;orthogonalLoop=1;jettySize=auto;html=1;dashed=1;fontSize=9;fontFamily=Roboto Mono;fontSource=https%3A%2F%2Ffonts.googleapis.com%2Fcss%3Ffamily%3DRoboto%2BMono;" parent="1" source="P6VSjZuAVvzGLbSlFFp3-78" target="P6VSjZuAVvzGLbSlFFp3-80" edge="1">
          <mxGeometry relative="1" as="geometry" />
        </mxCell>
        <mxCell id="P6VSjZuAVvzGLbSlFFp3-78" value="" style="sketch=0;outlineConnect=0;fontColor=#232F3E;gradientColor=none;fillColor=#DD344C;strokeColor=none;dashed=0;verticalLabelPosition=top;verticalAlign=bottom;align=center;html=1;fontSize=9;fontStyle=0;aspect=fixed;pointerEvents=1;shape=mxgraph.aws4.role;labelPosition=center;fontFamily=Roboto Mono;fontSource=https%3A%2F%2Ffonts.googleapis.com%2Fcss%3Ffamily%3DRoboto%2BMono;" parent="1" vertex="1">
          <mxGeometry x="133.5" y="-1130" width="78" height="44" as="geometry" />
        </mxCell>
        <mxCell id="P6VSjZuAVvzGLbSlFFp3-79" value="" style="shape=image;verticalLabelPosition=bottom;labelBackgroundColor=default;verticalAlign=top;aspect=fixed;imageAspect=0;image=data:image/png,iVBORw0KGgoAAAANSUhEUgAAARcAAABgCAYAAAA3gzYZAAAAAXNSR0IArs4c6QAAAARnQU1BAACxjwv8YQUAAAAJcEhZcwAADsMAAA7DAcdvqGQAAB+jSURBVHhe7Z0PXFRV2sd/S6Mw6wu+YMwWKugOBq8iCyptQ2lCvmC6ibutmi241pablZpZora+SKaFm/0x000qTdkMxE0s/0AmKq+MBcLEDi6oszqIkw0JC/PagMzC+5w7d2AYZvgzzqTo+X4+V+ece++55557zu8+z7n3PvyklQCHw+G4GEFcthbpsPTzs/j+ylUxm8PhcJzj9gH9se5XwWZx8U85hl1zIzBmiI+4msPhcJyjpLoBM7ap4MESzGLhwsLhcFwB0xKmKYK4cDgcjqvh4sLhcNwCFxcOh+MWuLhwOBy3wMWFw+G4BS4uHA7HLXBx4XA4boGLC4fDcQtcXDgcjlvg4sLhcNyC8G3RT144hPpXJ4lZ186pKj1e/UyFE5eu4nuTp5B3u6QJ99zRH8sfisDIQJmQx+Fwbk4GLj/kesslNes47t38DfZWe0Bv8kILfiIs7DfLY+vYNhwO5+bGpeLCROONUqMgJo5g69g2zghMU24you+JQuoRMYNoOsTyHkXGeTFDoAan9h1EXlmNmDZT87enaNtkHGliqQaUbluEBCov7K5wyp+KJ9fn057XF+WyYRgxeg1KxTSH01dxmbgwV+it0h/EVPewbdk+PacJebszUfNtDTI+zqGUGU9FNEZ9W4g8pZUsVO/B8qefwjPPZUIjZrH9T5Dg1IyKhoI8ter3Z2NmSglGPbMa6R/9BatWzsM9NRdQLW59vQie9CxmPBUDuZjmcPoqLhMXNsdia7E8fncAjswfKyzstzVsW7ZPj6nZg125wVi24VkMyd2DvCti/oBoxCnojq88KWaQjJwsxCkfH/hoClHSpjnlKCkAFJOi4YkLyM0qB37zMtYmTYaCBCpuagL+8NocRIpbd6YJDdXlUJZdQE2DRdpEmhpQU1kIZWUNbFe1cYW2cbiyHf9JL2DtM9HoGACDjl1Tg5qaBjSZxCwBln+Wzv1sj8rmcH5MXCYubPLWGiYmH8wcifvlvsLCftsKjO0+XVGzLxPKyDmYljAd04bkY8cui2r4QxETDBwsbHMlTpUUwj/pBST604D/RswsO4zcpmDcr/CnhBd8/Oi/8nJoejImr5TgtftDMDZ2LpbM+w0SxoVgheiaNSjXYPLIcMT8bhGW/O4+jB35mzYXrfq9SRgRtwYfvBiFEbRNdEohqeD/ICyItvnWvI1AUXueeZ/0dgtKk46Zd9Gxx92HhAfJhZsirmsoxGuxlH/vbCxZPBsxo0Mwc9sFYRcO50bAZeJieSpkYc7YO8Vf7djm2e7jmAvY+3EJIqc/SFISjGm/GYrSPQfa5keGKCbDv+kAjpSxFN3JC5pwzxiyQmJIwErIQiGqv85HjT9ZKcNYyh8z1ryESM3rJAxRmLMsHUe6UhnlR/igehbSTxWh8AQtp89j7X2UbyrEm79Px9BXy6Aupnxa3phYgtR38837MSoPonziThT+vQwnU6OBqMmY4VmCvbntbpwyJxNN8b/HDNsmM1FZ09dAM/UvOKmppPIrcWb/kxhCq5TrHsMHw9Nw0lKnDTEoTdkIq+koDue64tIJXbdRmYmMyjGYFs+sDkD+qwQMKU2nPCEJhD+IGf41KC2nAVtzEic00VD8glyg+2JQU1BId/omlCrL4T/zQYwUd4H8SWTRwMx5dTpwZA2eJCsg+veZ0HRwO0SGDsUQ0wF8+HY+NBZ3TEJL6UHsaorG/Xc3kcvC3JYmDAkhK+qbs1ZzN1TvqcHwZ26aD4mpJBqJf7QSRxKovKwmcssmk7tmQym5gg3B+MOzk+HDjscQ/i8R9lGMj0ZTHTtuDZoCR0GOk9B0mNjmcK4fLhMX9h6LNdtPWtv9ZmzzbPdxxCm6s1dLGqB8OxkrltGy9Sw8JWTNfH5W3GIUJk71hPJQIRq+IVcoJAbM+/H8RTTkZeQukQuRf8gT8TGjxO1FPP0xcuZL2H7iPE5uSUDTkWSktrlbVoS8gJyP5gC7HiNLZxii56VTmZRfX0+yRdbLI1OQ8JB5eeZv9fBXBAvWhSPkjz6JyNLt2MuEoIgECnOQSPXvhFA+VfM2c7KdetTTCuV6ctHE4ybMz0TDnXS+XR2Yw/kRcZm4sBfkrPnwax3+kHUKRzV1wsJ+szxrbPexC93Zd71fA/nsBUgYH4OJwjIdidOGovq97W3zLJHjJwMkLh+UFMJTMdY8uIeNhcKzECXp+cjDZNzveLYWPvEL8Ac5oG9oFHM64jPxBUGE1MUfY9r5NUhaXwLIhpKDFY1ln4muiWVJJX+sK+4kS0txFrtyyYXblwn/P86BwmKZWCOUX48GJmQdkGEoiadixf6Oxz3xMibaK4fDuQ64TFzYm7ce6PgnkJiYTNx8UlhshYVty/bpFnZnbxqDxGcSBNfBsiQumgN5Uyb2KsXtFLGYiExsercGcdFjxMwxUExuQsaG7WiaFGs1gJugOWX9hKUJ1Vmv4wONJxThQ8U8K660P6Xx9A+D3DI3MjIW8T6F2PQ2WUxt7hRzkTqpgQ3+mDZ7MjS7F+G1HUOR+DC5UvYQyq9Bxkay3MSqNpHSNAmWmg+UG9+Bstacz2gi96i7I3M4PxYuExf2Sv9zkT8VU93Dtu3JZwBHskgYFLMQbzvZOYysl0gSjixx8nTAZEwTvmCIhsKiLUSkIlr4f+I06zmNBpx6ayqiR4dgRNAwWkIQ8+JJjFmxE4sV4iZW1OQuQpicvdwWhbHycKwon4WNS+ggkjFI2ZOG4IOPUv4wjB1tLithu8Vdc4znVHKFzpfjFHsCJkwy20Esf0xJMmLuYmUPQ9i410E2EyJX/g1rgw9gTiSrV7h53UMfWb3Xw+FcX1z+bRF785a9IOfoLV1msTBhSZl5r5hzHWHvnvwgzGrAx9cHnl25FKYmNNSR1XCbD/z9Os+PNNWS1fBvKsnHH2ze1tU0NVD5JjvHtpyDJ61zx4E5HCdg3xbxDxc5HI7LcZu4cDicWxu3fBXN4XA4DC4uHA7HLXBx4XA4boGLC4fDcQtcXDgcjlvg4sLhcNxCHxKXRujUxVBX23z7o96NVzYVQIhppy/AptW7oRZWuIs6aIqLobksJmGC/pSdetlSp0FRSRUM7HeLAdqyYiiPK1FUXAndFXufYruPWtVeZB/v+DmGy7C+HsYqHMvajwrhS3I9jm1ai2xnL45RBzW1e1GHRQOrrx9goja2bKPW1MHUYpVPba0sLodWuABdY9SVo4j2dwu96qPlyF69Gcd6E7DxBqLviEudEru278aObGWHDgWTAQaD0fy7xUi/DTTc3cipPHyYtRsf5lriPUhgrMzDjn2lEGsBnN+LV5YuxxZlu+Boj2Qiu+giJC065L6xFlsOqHD2nAYVFQXY+ZmlrB+HOm0FNBfq2uvrSqyvx9WLqKjUQicOaCNdG4OzF6dejX1ZeSiqqKA2syw6s1jTjUe1PRUvpW3DnkI15avxZdYnKPweMBzfjJQN+1FEbX326xxsWvMOjnWjG4Zv9iG7QCumXEyv+mizsK1RFMm+Rp8Rl9qTaujHKBBxWYljVWJmT2gxwVBPnbq+0SWiU6FSQ3avArKyAhSJYyjov+SQnKtEpdgJDFotjJ4SaM5YvvTRo0JjgDw8EtLTBXQnCsH0F59AUmIiLU9gySM2oSAsmBrNdbcdkY7yBUw0iLs+U3nCUiTTMaVimmG6wtqIOrLVrpY8Q4eAgVS+0J40QLrr9AMVmLdyPmLvENNd0eU5WQhAtNBmlmU8gii39mg6dmqCMHvlavxp4VzKn4tFy+djgoykPzwRqSkL8Bjb/um5mDBQh6KiazAF2vpTx7Zq46pNm4npztta2rFzvzQxEaZ19trXss7QU2u32/7ffX9xlj7ygT6Z118ZEPW7aYj0VGNHaRWmBwaK67qgrhhbN+TgLA0jKd2njQjBjBcSSaDIsthUi1+tnYsIklf19uXYcXE8dcgp1H0NOLZhLUpHLsWiSb5iQSLGYhwrC8LdKXHApVSUljUi6pdewF0hCMZu/OM0EBFKAqTRITh6PPRktmsxCkFG+l8fgNCRtG09q4sW2tN0PqHeYsF2uJSP9e8eBoaEwPtKFUzhT+DpSTIYK3Zjw1/V8BpOw+qiBnXDH0Fy4ihUbluOXDqW5HQ59ANjsGR2I7Zs1OOB1CegEFSkCntWp8P48Go8oF2H9d/FIW0u+yqd3fXTsLMC8Jb2A3xJEJ5VoHb3BuxQSxE8lA5zrhZBM5KRFN6Aw2+8gy9bghDqTa5dcwRtGwPHH3OosHVpHgKeX4r4DgLTCM2nm/GhJgTzFk6B7J/2z8la/BxjgPobHfzuXoCIAWKWFVJv6zY2oZnGkZ/Myc9P9Pl4+91jMAwcTOd8ka6pDyY8t5jOTY/ctDdRxFriKt1xmHXS5Ad5UDP0ejqgidIIw2Mps0Ddg2DW6zp8Tu6iicSn2TcOi55n7dgIdUYadpwSrwWNThP9Yw4Oq8fhDeQi1fsggA6j0+rhPXExlsR1cS6O+j+1k8q2vyTHdXEdnaNviEuVCuqWMCQNIyuBLhI+UKIiIVC8UI5oRFH2blwMn481vzYLUcXHK7EjpxIRj0YgzDtdFIMqnL0gg0xCZnM93Rv7k1ldHYDI39sIC2EsU0EzfBSSpCQS4XLs+aoIhl+Oh7dHBCJDM5F7ju6IoXXk7gRA/rAcXoV50FKZQWTVaAaRtTKQChk4DY9PvYgt20jABtBxYhMQrwikMszHsKAvLYJ+eALSHh8n5jCqkLtbhcDZqzGbhdRroc6zTAmV0TwQG1rkWPJyIvyEq1qH6IB1+LuqEQoF1fc8tSGikMT2s7L4jV9lYOcZOZJovzBLb6jaiy2qICSl0mBg9SrehmQluX0yA4ouyTH9tbmIctrmNUG7TxSW56YgSEKi5+CczKJojYYEci0+F1Ohv16B34bRoKHxLPtZx/jM9tAd2A1lf7qJhIsZvUUWg0VtsXoaoXwvFYVl+jbhlE1cgHm/ZI3IhHwz6sa+ij+xyyec02ESI6qzeUvELnwCUWzTlkrsTNmGfaoYPOaXhz3qwZi+km4ITCjF/cywfVIQK6aMyvex6rgK+jhHotBV/w8R0h37i+vpE25RRWERTHI5/Jh55yuH3EONUlL3rqmFnnzuwcPbLZzQkXKYLmjpHhCIyJFSaP5B/tWlClTefg+m3mVAxalGoJKEYAiJBROCDtDA+kqDAKqHiZmsw+UIqFahSPTfQ0LkqD1TCcMlLap+KkfwQLJmhuvINaKxfE4H77tC2zpBwP3zseqVpXg8NgAXD23GK2/kmSdArZBFRkF2NgevbKABwSYnWWaLHnX1ErKIMrAjg5aPi+j+WYsGEjCGz53URm0dxZdERQ5NEQkgpSpOFJEgRghuhDV139eSnxTWLiwMfS0MEj2KPhaPc0IH/Iva/o4IRN1BA3zNO8g+rkGtE9a0/tA72KSWi8JCGd2cU0eCEL9wARaJy1Sru0tzc9cT6kbVNmw5CsQmkXV6Db3eUFWM3KwMZB8oxUUSNdO/xRVEv7bP6r0gZXHQLEkP68ZlSNCvbR3rJ9Qu31IPYO3uGwi5xQKz3c9QhSISyB1ZeVDp6OBWx+5MV/3fTMf+4npufHEhZS8tJ3P2TA7e3vAOLTmoJD9S9XUv/iyJBavBEBRJFtDpClSQmHiFhiFUHghtJZskJAH5RQQ6OSxkYpZWS1BHdwyhHulK1EnIfz9hvlTSkSEkNhqoNVVoYMJDeaFyEo8LZGWRhRQWaePGSXwhv/dhLHphGoL0KpReEvMt3EGm6svPY3a0Nyo+WYdXPrFM+vphdFwCpj/ElkQsemkhHnAwpyGNGodQHZVdz9pQhugJNnXoCt8wxAvHoCVpAf70bCyJI909n0/BkkcV8K7MRNrqTFT0crLRm9pGVq9BqdZaDHp6ThJIB3rDW1ykwsDwgc9/MgHvYgJWl4dNWXVQLCQXpnsDxzEVmVifroIpLBbxo9mfj/gRYRbO6+koJQv+gfgwunU4gRM3g2vhxheXCjLnvRSYl7ICf1ppXlY9SZ27orhtQhVXG62efJgEM5lN/snp1nhWXS62KZmJZRpIhgaZLYhh5BpdLUb2/xoQFERSMkKOoAsFyD0ThLvv7jwXwiaUdSMSkCzWgS3JCWStlJwwexlkqYQO0iA3T4PgYLPZ6R1EdoIqD8r/kyPUEhCKhNFkdZFNl3So9aCBYusCsEHLBGhcHB6LD4FRS3ccj0AEDNLhrIbKtgwyby/Hvi25a4pwPUo/KUBloAIKOz0yYDC1hoYsMEvgccaQAPjpNNBQvdqOw0ayICQS+MnHIX5uHEKNWsHU70SH69ERqXwanp7pD9UHm5HLnob39pw64QXF/RHoV7Yfe06JFh6DGlmYECVhWb+xHKFPLegkLMbq8u5fIbBCTwJmHB6BqSMD4B0QQK60uKLXGNFgeSR+RYnS016QB9N1YO1+ma6F5S0B9qRI/Ak9WcRGOSIfpJvYwAAMvr394PbPo5v+/yPgdPP8OFCDkF8pDZvf0ZwPZHMmm80TquFkdWTtxqY0LyxJDkWYbz72kA8rXTcXEQmJiNyYgZQUcULrpxFIetY88KkQMONFWWIZ+FTOwL3Y5zkNEZ18fTahrIN8UliHSUYpuRnyT/NQWkXWR6AMkeHeOJwvhXyEuMGwEMhblFDJSXjELHxfgLfJDaqVkqBQnQxGCUITFmKCjRumP0zuw3EDJCT/pqvNCHv4EeoUXohPiqHBshYvHaL9PZphvCrH7NWJ4l6dCb0vCtkblQh69IkOdW8j4hE8dnoDdqSuxD5vCZrF8pJi38S7a1Yid4AUkhZqO/kjWBOnN09oSvpRpYx0B38Yj9haGCHW18N+N5ZGJCIZ25C24U2Ynib3xsE50eWxge7eS5djp5iig2E2u86hs7DwtxnYunMdXrJELvWQIf75xfDLywebU9VvXIlj4ioMMk9gavMycPjOxQgb4iWusOJUJpKXZooJYuQspE0mV7UgB6tW59HA8YXfQCeHj0cj1DvW4vDlZjRfMcFPMRdJQp+JQ9Kkcrz71koU0bXAQBl8LfG/BJe0AHtS1yKXVvkN8m4bvGoH5xHaZf93P7dEPBf2+M5IzevNLtgNAXsMSYOTfrGnGUxA7MIeY9KtSzLA4gJYEPf3cOE5sUeWZL10KI89Hr7SzCoJb0ssdbadUCk69gBXtqdrzok9Pje29KQMNun6CaRP2j7J6gbh/E3knvXGunIAXV8js1ptC2Lt3uLV3uZWsL7czG5Mbft0fx7Xo//fMvFcJDSAf8yG7Z72uQOHwsLob96mU+ez7O/Kc/KQdC5PQh2cHce6k7PtWJ5LhYXhmnNiQtyjMq7WwiBTkDUgpnuKcP4uEBYGXd/O15Zg7e7gD2Owvtxhnx6cx/Xq/zwSHYfDcTk8Eh2Hw3EbXFw4HI5b4OLC4XDcAhcXDofjFm46cVFnrcWmo/be7Lo5MaoysGrZciQvXY4dZWLmjU6HOC/uwzVxa7qOQ+PW2Dh9nD4vLvpDmzuIiekHAww/iAk3o/7kGoIfuQTq+IfKIXsoBWnrXkWSsx/kuZuWcuy0DpBkE+fFXTgbt8b2unYVh8atsXH6OH1GXOzHFgF01VX2xYS97MS2t+0VlnxH8S3Yi03iCkvsDLtxO2hgX9TSett1PYpLIiLG+rA9p97UkX28Jh1g84Zpd3Vg5XeIB8JeYLM+npju4hzaroedbTrFhtFfRBW1ZduW9uK8dFPnTmUKWOptP/aJvbg1DvtFGw6uK8NSR6u2sz1G133m1qIPvOfSCO1nm7FF2QCptB9MRiO8J87HkjgJmavv43A1Xcjb2EtH/YRP8IOLl+PzhkBI69ndpBnGK42QPbgUi+73BS4VYNN7eTDcEQJfQyW0HrHmOBqX8pD2VhUCRl6EWt2I0EdTEKVOw85zfggeTN3tggxTU2ZZvY7Owg9mo5TKhid7qckXE/44H1E/7MemLUoYpFJITEYYB47HM8/FdfoKl8XS2HVRBp8WVkNWR9AxWbwUEoke1zER3p/1pg7mmCPaO0dBd6ocxtBZSItQIXm3DrKf0t2ZBoPJaIB0iBySy/rObWeFOiMV2eek8JVJYajWwTQiEclz2ACzExtmYi227FYJb/9KvalOg8Zj3tPe2GcV58V43kGd9XTOb6jgLSf3wzYuCp1Pd7Fl9Afa49awNnfYL9qwd10fhnHrm1ANoErU6c3XiyyusMdTMDvU+hihQiwWx33m1oK95wImLljyRWv91dYbczmb0/ri8+mtB+vE9HeHW19+bkPrp9+Z00e3LGtdkfNd2/Ys/WJGRetlMV2Wuab1qS2l9NvYeujdZa0v768Vt73Y+nHqmtaPTtPvqtzWFc+l0e9mcV1p61uU/vi8uQz7y3etWauXtb71tSWtbf0oZVnrn48axXRt66frrI/Xvgh13qVtS5/bv6H1qdW5rWd6VUe29KYO5m3ZcS83itt/vbX1qdSc1jIxfeloOqX3tf5D2Le19R+fpoltJ25vbznNrs+O1uP0+1IB7Z9Mv3+w2Uao+9bWo2155vbNqmK/u6izsN+m1s8ui/vVF7b+2bKfWOYhy7nYWc7ktNffcb+w3c+2Tc3pV79oENPG1oPvtPe59mP0pM/cOgvTlBvfLbKNceE7CqGDdNB28YV9P2/fttezpV6WXyy+hQSNmn3muCEZ+1HxgwF1/xJX0z1v2DDLtqGICjeicPOb2HpABZ2t22IPIS6JL4KGW1wUX4SF+JLb5qCi/dtdGb+Rcvhd1kHXqzraoQd1kAUFdvzkwMMLUjEtZe+Ve0ja2s7hpwkmPSry91L99uLw2VrB1WBegN3YMN3RbZ2l8LF8pE6WDdlDZpyILWO/X/QM9mmCGWovy8eEHXCiz9zk3Pji0gnxU3qnkCBQYYkbMgvzXljhYBLUC2GJKUidPwVBhnxs+Z/ugzrbw7l69rSOPcP5tnJEHbmjbyLn2wBEx92DILsD7droWZ2vPbaMa3FNn7mZuPHFRR6EgMuVKLU8ENKpoK4LAAuV0gbdObsnAIPvbITmjL7to0Hhw0FxbSeoo0oCQhA7cxaiBuqgcWQpWQ7tIUdQQB0qysSKtuhQqq5DwBDb2G9mmg3tsUe0X6lQGygHCzHVqzra0ss6OIcWmmqyLiaOg1wmQ5B/e+wbu7FhrGi2N/idrbNQVg9iyzhLT7qULT3tM7cIvbMNrwe+MZgxtQJb3loJJZntzUZg8NQnESvOwwXKA9Hw2WasKpZA/usUjDZn2yVixiz8/fX3kVLGJuuo/1yVYsKCxW1xSdspx47UbGhZ3BIWy8Q7Bs90sh5oYJEpfzh7JVZ9JoPimQWInzkFFenv4CUlme8mquidUzDPUlFbLh3G+pRP0Ey92EADbPqz44Xodz2voz18qWM7qoOrRh4z/3Owc3MqSvv3Qz+ZL7kq4rMSB7FhwmRB5NbmIzslFfv8FXh6ofW0axd17qrK34vBsruKLeMUttd1lpjfHT3pM7cWfeeraPYY8EqzndgmvUeIb9FCQ6LLT+edjS8i7tdFvBMh8vrPFiP5QT/hyYPUTvk9q6Mjuq/DtSLETelHlpW90ADCo26b2DDd4kSd2XHcElvGWZztMzcffeuraDG2yLUKC0OIb9HtoHU2voi4X486O23roPye1dERvamDcwhxUxzEHLEbG6ZbnKiz22LLOIuzfebmpA9O6PZ9Asc/jKm/8BFTHM7NCReX6wCbhAwLaH8UzeHcjHBx4XA4boGLC4fDcQtcXDgcjlvg4sLhcNwCF5drwDaWDIfDaadviIslBoe9OBmWdTYBOOzF/2iLQeLER2X2ynMYS4bD4fSBN3T14mveAwdDhovQ6n0w4bnF5r8uJ/wd4HzUstgbHs2QJ6RgdridmCLPKmC0GxMmAGBxUt7QIZ79WVB2POu08NtePJEY6P/SOZbMb2/V4B0cjg3sDd0+9kfRGqF8LxWFwxeTMDRiz5rN0EYtxqK49m9VjF+9j1WfeyEpJbH90/+qvXhlkx4PrHwCCha6oY4E61U1Ri9fgNim7sRFA8XK+ZjAPvwxKrElpQBBYpCj9tf47f9NZA7nVqXPvP5vqCpGblYGsg+U4qKRDIh/U6YYByQ0vOPAthtTxImYMO04iCfC4XC65MYXl4pMrE9XwRQWi/jRfmLmtXItMWE4HE5PuOHFRX9OC+PwCEwdGQDvgADILBaJRyACBtVBdbLjn3WwG1Ok25gwBtSKgX1M/zKg2fyzZ1jFkjFWl0Nd3SimOJxbm9tWEal5/8TyST8Xs24sBnhfRdmBg8grPIH/LTgDg+cVXB30S9w3Qobgn3ui7PO/IvvL4/jq6Jco+ncYoqPHYuj3h5G18yAKThTgi0PV+NmUBIzrX4Kcv+7FkULKK9Th9gcTMTOU/J3/8MaVb77AoSNURsFRnGyUQvodMOy/I3DH/2lwXGlAMPst1OYSVF9o4K24F8H/AfQ3nMGRvHwUUJkX/MbiSu67yD49EPdEDYUbArRxOH2G1778Zx+Z0BXidpjgKLYJe0zcLERrFzMYbB/bmCIOY8KY43CQkl1bSAc6polq6DD2LIdzi9B34rkIcTscxzaxG0DKXkwRhzFhzHE4rklYGCy4NRcWDkeADwUOh+MWuLhwOBy3wMWFw+G4BS4uHA7HLXBx4XA4boGLC4fDcQtcXDgcjlvg4sLhcNwCFxcOh+MWuLhwOBy3wMWFw+G4BS4uHA7HLXBx4XA4bkEQl9sH9EdJdYOQweFwONcC0xKmKUI8l61FOiz9/Cy+v+LE39zgcDgcK5iwrPtVsFlcxDwOh8NxGXzOhcPhuAUuLhwOxw0A/w8c/FR3WhV4ewAAAABJRU5ErkJggg==;fontSize=9;fontFamily=Roboto Mono;fontSource=https%3A%2F%2Ffonts.googleapis.com%2Fcss%3Ffamily%3DRoboto%2BMono;" parent="1" vertex="1">
          <mxGeometry x="233.38" y="-1120" width="279" height="96" as="geometry" />
        </mxCell>
        <mxCell id="P6VSjZuAVvzGLbSlFFp3-80" value="&lt;a style=&quot;background-color: rgb(241, 250, 255); -webkit-font-smoothing: auto; border-collapse: separate; border-spacing: 0px; box-sizing: border-box; caption-side: top; cursor: auto; direction: inherit; display: inline; empty-cells: show; font-size: 9px; font-stretch: normal; font-variant-numeric: normal; font-variant-east-asian: normal; font-variant-alternates: normal; font-variant-position: normal; hyphens: none; line-height: var(--line-height-body-m-2zx78l, 22px); list-style: outside none disc; tab-size: 8; text-align: start; text-decoration-color: currentcolor; text-decoration-thickness: 1px; text-shadow: none; text-underline-offset: 0.25em; transition-duration: var(--motion-duration-refresh-only-medium-0rwzu1, 165ms); transition-property: color, text-decoration, -webkit-text-decoration; visibility: visible;&quot; href=&quot;https://us-east-1.console.aws.amazon.com/iam/home?region=us-east-2#/policies/details/arn%3Aaws%3Aiam%3A%3Aaws%3Apolicy%2Fservice-role%2FAmazonEC2RoleforAWSCodeDeploy&quot; rel=&quot;noopener noreferrer&quot; target=&quot;_blank&quot; data-analytics-funnel-value=&quot;link2681-1726268328075-9386&quot; aria-labelledby=&quot;&quot; aria-label=&quot;AmazonEC2RoleforAWSCodeDeploy - Opens in a new tab&quot; class=&quot;awsui_link_4c84z_eu8v7_97 awsui_variant-primary_4c84z_eu8v7_201 awsui_font-size-body-m_4c84z_eu8v7_430&quot; data-testid=&quot;&quot; id=&quot;link-self2682-1726268328075-7413&quot;&gt;AmazonEC2RoleforAWSCodeDeploy&lt;/a&gt;" style="sketch=0;outlineConnect=0;fontColor=default;gradientColor=none;strokeColor=#232F3E;fillColor=#ffffff;dashed=0;verticalLabelPosition=bottom;verticalAlign=top;align=center;html=1;fontSize=9;fontStyle=0;aspect=fixed;shape=mxgraph.aws4.resourceIcon;resIcon=mxgraph.aws4.policy;fontFamily=Roboto Mono;fontSource=https%3A%2F%2Ffonts.googleapis.com%2Fcss%3Ffamily%3DRoboto%2BMono;" parent="1" vertex="1">
          <mxGeometry x="142.5" y="-970" width="60" height="60" as="geometry" />
        </mxCell>
        <mxCell id="P6VSjZuAVvzGLbSlFFp3-82" value="&lt;div style=&quot;font-size: 9px;&quot;&gt;Provides EC2 access to S3 bucket to download revision. This role is needed by the CodeDeploy agent on EC2 instances.&lt;/div&gt;&lt;div style=&quot;font-size: 9px;&quot;&gt;&lt;br style=&quot;font-size: 9px;&quot;&gt;&lt;/div&gt;" style="text;html=1;align=center;verticalAlign=middle;whiteSpace=wrap;rounded=0;strokeColor=#d6b656;dashed=1;fillColor=#fff2cc;fontFamily=Roboto Mono;fontSource=https%3A%2F%2Ffonts.googleapis.com%2Fcss%3Ffamily%3DRoboto%2BMono;fontSize=9;" parent="1" vertex="1">
          <mxGeometry x="59.519999999999996" y="-880" width="225.96" height="50" as="geometry" />
        </mxCell>
        <mxCell id="P6VSjZuAVvzGLbSlFFp3-83" value="You can customize this role to limit its scope as well only Codepipeline artifact stores can assume" style="text;html=1;align=center;verticalAlign=middle;whiteSpace=wrap;rounded=0;fontSize=9;fontFamily=Roboto Mono;fontSource=https%3A%2F%2Ffonts.googleapis.com%2Fcss%3Ffamily%3DRoboto%2BMono;" parent="1" vertex="1">
          <mxGeometry x="55" y="-830" width="230.48" height="50" as="geometry" />
        </mxCell>
        <UserObject label="&lt;a style=&quot;font-size: 9px;&quot; href=&quot;https://us-east-1.console.aws.amazon.com/iam/home?region=us-east-2#/roles/details/CodeDeployEC2AccessBucket?section=permissions&quot;&gt;CodeDeployEC2AccessBucket | IAM | Global (amazon.com)&lt;/a&gt;" link="&lt;a href=&quot;https://us-east-1.console.aws.amazon.com/iam/home?region=us-east-2#/roles/details/CodeDeployEC2AccessBucket?section=permissions&quot;&gt;CodeDeployEC2AccessBucket | IAM | Global (amazon.com)&lt;/a&gt;" id="P6VSjZuAVvzGLbSlFFp3-84">
          <mxCell style="text;whiteSpace=wrap;html=1;fontSize=9;fontFamily=Roboto Mono;fontSource=https%3A%2F%2Ffonts.googleapis.com%2Fcss%3Ffamily%3DRoboto%2BMono;" parent="1" vertex="1">
            <mxGeometry x="30" y="-780" width="350" height="40" as="geometry" />
          </mxCell>
        </UserObject>
        <mxCell id="OZgBlnHVena3t2A3xkZh-2" style="edgeStyle=elbowEdgeStyle;rounded=0;orthogonalLoop=1;jettySize=auto;html=1;exitX=0.5;exitY=0;exitDx=0;exitDy=0;exitPerimeter=0;dashed=1;fontSize=9;fontFamily=Roboto Mono;fontSource=https%3A%2F%2Ffonts.googleapis.com%2Fcss%3Ffamily%3DRoboto%2BMono;" edge="1" parent="1" source="OZgBlnHVena3t2A3xkZh-1" target="P6VSjZuAVvzGLbSlFFp3-78">
          <mxGeometry relative="1" as="geometry">
            <Array as="points">
              <mxPoint x="490" y="-1200" />
            </Array>
          </mxGeometry>
        </mxCell>
        <mxCell id="OZgBlnHVena3t2A3xkZh-4" value="ATTACH IAM ROLE" style="edgeLabel;html=1;align=center;verticalAlign=middle;resizable=0;points=[];fontSize=9;fontFamily=Roboto Mono;fontSource=https%3A%2F%2Ffonts.googleapis.com%2Fcss%3Ffamily%3DRoboto%2BMono;" vertex="1" connectable="0" parent="OZgBlnHVena3t2A3xkZh-2">
          <mxGeometry x="0.0058" y="1" relative="1" as="geometry">
            <mxPoint as="offset" />
          </mxGeometry>
        </mxCell>
        <mxCell id="OZgBlnHVena3t2A3xkZh-1" value="ec2 instance" style="sketch=0;points=[[0,0,0],[0.25,0,0],[0.5,0,0],[0.75,0,0],[1,0,0],[0,1,0],[0.25,1,0],[0.5,1,0],[0.75,1,0],[1,1,0],[0,0.25,0],[0,0.5,0],[0,0.75,0],[1,0.25,0],[1,0.5,0],[1,0.75,0]];outlineConnect=0;fontColor=#232F3E;fillColor=#ED7100;strokeColor=#ffffff;dashed=0;verticalLabelPosition=middle;verticalAlign=top;align=right;html=1;fontSize=9;fontStyle=0;aspect=fixed;shape=mxgraph.aws4.resourceIcon;resIcon=mxgraph.aws4.ec2;fontFamily=Roboto Mono;fontSource=https%3A%2F%2Ffonts.googleapis.com%2Fcss%3Ffamily%3DRoboto%2BMono;labelPosition=left;textDirection=vertical-lr;" vertex="1" parent="1">
          <mxGeometry x="736.73" y="-1110" width="60" height="60" as="geometry" />
        </mxCell>
        <mxCell id="OZgBlnHVena3t2A3xkZh-3" value="&lt;div style=&quot;font-size: 9px;&quot;&gt;&lt;b style=&quot;font-size: 9px;&quot;&gt;IAM Role for&lt;/b&gt;&lt;/div&gt;&lt;div style=&quot;font-size: 9px;&quot;&gt;&lt;b style=&quot;font-size: 9px;&quot;&gt;EC2 instance&lt;/b&gt;&lt;/div&gt;" style="text;html=1;align=center;verticalAlign=middle;whiteSpace=wrap;rounded=0;fontSize=9;fontFamily=Roboto Mono;fontSource=https%3A%2F%2Ffonts.googleapis.com%2Fcss%3Ffamily%3DRoboto%2BMono;" vertex="1" parent="1">
          <mxGeometry x="40" y="-1126" width="85" height="40" as="geometry" />
        </mxCell>
        <mxCell id="OZgBlnHVena3t2A3xkZh-5" value="Inbound rules" style="shape=table;startSize=30;container=1;collapsible=0;childLayout=tableLayout;fixedRows=1;rowLines=0;fontStyle=0;strokeColor=default;fontSize=10;fontFamily=Roboto Mono;fontSource=https%3A%2F%2Ffonts.googleapis.com%2Fcss%3Ffamily%3DRoboto%2BMono;" vertex="1" parent="1">
          <mxGeometry x="830" y="-1110" width="180" height="130" as="geometry" />
        </mxCell>
        <mxCell id="OZgBlnHVena3t2A3xkZh-6" value="" style="shape=tableRow;horizontal=0;startSize=0;swimlaneHead=0;swimlaneBody=0;top=0;left=0;bottom=0;right=0;collapsible=0;dropTarget=0;fillColor=none;points=[[0,0.5],[1,0.5]];portConstraint=eastwest;strokeColor=inherit;fontSize=10;fontFamily=Roboto Mono;fontSource=https%3A%2F%2Ffonts.googleapis.com%2Fcss%3Ffamily%3DRoboto%2BMono;" vertex="1" parent="OZgBlnHVena3t2A3xkZh-5">
          <mxGeometry y="30" width="180" height="40" as="geometry" />
        </mxCell>
        <mxCell id="OZgBlnHVena3t2A3xkZh-7" value="TCP&lt;div style=&quot;font-size: 10px;&quot;&gt;[HTTP]&lt;/div&gt;" style="shape=partialRectangle;html=1;whiteSpace=wrap;connectable=0;fillColor=none;top=0;left=0;bottom=0;right=0;overflow=hidden;pointerEvents=1;strokeColor=inherit;fontSize=10;fontFamily=Roboto Mono;fontSource=https%3A%2F%2Ffonts.googleapis.com%2Fcss%3Ffamily%3DRoboto%2BMono;" vertex="1" parent="OZgBlnHVena3t2A3xkZh-6">
          <mxGeometry width="39" height="40" as="geometry">
            <mxRectangle width="39" height="40" as="alternateBounds" />
          </mxGeometry>
        </mxCell>
        <mxCell id="OZgBlnHVena3t2A3xkZh-8" value="Value 1" style="shape=partialRectangle;html=1;whiteSpace=wrap;connectable=0;fillColor=none;top=0;left=0;bottom=0;right=0;align=left;spacingLeft=6;overflow=hidden;strokeColor=inherit;fontSize=10;fontFamily=Roboto Mono;fontSource=https%3A%2F%2Ffonts.googleapis.com%2Fcss%3Ffamily%3DRoboto%2BMono;" vertex="1" parent="OZgBlnHVena3t2A3xkZh-6">
          <mxGeometry x="39" width="141" height="40" as="geometry">
            <mxRectangle width="141" height="40" as="alternateBounds" />
          </mxGeometry>
        </mxCell>
        <mxCell id="OZgBlnHVena3t2A3xkZh-9" value="" style="shape=tableRow;horizontal=0;startSize=0;swimlaneHead=0;swimlaneBody=0;top=0;left=0;bottom=0;right=0;collapsible=0;dropTarget=0;fillColor=none;points=[[0,0.5],[1,0.5]];portConstraint=eastwest;strokeColor=inherit;fontSize=10;fontFamily=Roboto Mono;fontSource=https%3A%2F%2Ffonts.googleapis.com%2Fcss%3Ffamily%3DRoboto%2BMono;" vertex="1" parent="OZgBlnHVena3t2A3xkZh-5">
          <mxGeometry y="70" width="180" height="30" as="geometry" />
        </mxCell>
        <mxCell id="OZgBlnHVena3t2A3xkZh-10" value="2" style="shape=partialRectangle;html=1;whiteSpace=wrap;connectable=0;fillColor=none;top=0;left=0;bottom=0;right=0;overflow=hidden;strokeColor=inherit;fontSize=10;fontFamily=Roboto Mono;fontSource=https%3A%2F%2Ffonts.googleapis.com%2Fcss%3Ffamily%3DRoboto%2BMono;" vertex="1" parent="OZgBlnHVena3t2A3xkZh-9">
          <mxGeometry width="39" height="30" as="geometry">
            <mxRectangle width="39" height="30" as="alternateBounds" />
          </mxGeometry>
        </mxCell>
        <mxCell id="OZgBlnHVena3t2A3xkZh-11" value="Value 2" style="shape=partialRectangle;html=1;whiteSpace=wrap;connectable=0;fillColor=none;top=0;left=0;bottom=0;right=0;align=left;spacingLeft=6;overflow=hidden;strokeColor=inherit;fontSize=10;fontFamily=Roboto Mono;fontSource=https%3A%2F%2Ffonts.googleapis.com%2Fcss%3Ffamily%3DRoboto%2BMono;" vertex="1" parent="OZgBlnHVena3t2A3xkZh-9">
          <mxGeometry x="39" width="141" height="30" as="geometry">
            <mxRectangle width="141" height="30" as="alternateBounds" />
          </mxGeometry>
        </mxCell>
        <mxCell id="OZgBlnHVena3t2A3xkZh-12" value="" style="shape=tableRow;horizontal=0;startSize=0;swimlaneHead=0;swimlaneBody=0;top=0;left=0;bottom=0;right=0;collapsible=0;dropTarget=0;fillColor=none;points=[[0,0.5],[1,0.5]];portConstraint=eastwest;strokeColor=inherit;fontSize=10;fontFamily=Roboto Mono;fontSource=https%3A%2F%2Ffonts.googleapis.com%2Fcss%3Ffamily%3DRoboto%2BMono;" vertex="1" parent="OZgBlnHVena3t2A3xkZh-5">
          <mxGeometry y="100" width="180" height="30" as="geometry" />
        </mxCell>
        <mxCell id="OZgBlnHVena3t2A3xkZh-13" value="3" style="shape=partialRectangle;html=1;whiteSpace=wrap;connectable=0;fillColor=none;top=0;left=0;bottom=0;right=0;overflow=hidden;strokeColor=inherit;fontSize=10;fontFamily=Roboto Mono;fontSource=https%3A%2F%2Ffonts.googleapis.com%2Fcss%3Ffamily%3DRoboto%2BMono;" vertex="1" parent="OZgBlnHVena3t2A3xkZh-12">
          <mxGeometry width="39" height="30" as="geometry">
            <mxRectangle width="39" height="30" as="alternateBounds" />
          </mxGeometry>
        </mxCell>
        <mxCell id="OZgBlnHVena3t2A3xkZh-14" value="Value 3" style="shape=partialRectangle;html=1;whiteSpace=wrap;connectable=0;fillColor=none;top=0;left=0;bottom=0;right=0;align=left;spacingLeft=6;overflow=hidden;strokeColor=inherit;fontSize=10;fontFamily=Roboto Mono;fontSource=https%3A%2F%2Ffonts.googleapis.com%2Fcss%3Ffamily%3DRoboto%2BMono;" vertex="1" parent="OZgBlnHVena3t2A3xkZh-12">
          <mxGeometry x="39" width="141" height="30" as="geometry">
            <mxRectangle width="141" height="30" as="alternateBounds" />
          </mxGeometry>
        </mxCell>
        <mxCell id="OZgBlnHVena3t2A3xkZh-15" value="&lt;div style=&quot;font-size: 9px;&quot;&gt;&lt;br&gt;&lt;/div&gt;&lt;div style=&quot;font-size: 9px;&quot;&gt;&lt;br&gt;&lt;/div&gt;&lt;div style=&quot;font-size: 9px;&quot;&gt;# Installing CodeDeploy Agent&lt;/div&gt;&lt;div style=&quot;font-size: 9px;&quot;&gt;sudo yum update -y&lt;/div&gt;&lt;div style=&quot;font-size: 9px;&quot;&gt;sudo yum install -y ruby wget&lt;/div&gt;&lt;div style=&quot;font-size: 9px;&quot;&gt;wget https://aws-codedeploy-eu-west-1.s3.eu-west-1.amazonaws.com/latest/install&lt;/div&gt;&lt;div style=&quot;font-size: 9px;&quot;&gt;chmod +x ./install&lt;/div&gt;&lt;div style=&quot;font-size: 9px;&quot;&gt;sudo ./install auto&lt;/div&gt;&lt;div style=&quot;font-size: 9px;&quot;&gt;&lt;br style=&quot;font-size: 9px;&quot;&gt;&lt;/div&gt;&lt;div style=&quot;font-size: 9px;&quot;&gt;# Checking CodeDeploy Agent status&lt;/div&gt;&lt;div style=&quot;font-size: 9px;&quot;&gt;sudo service codedeploy-agent status&lt;/div&gt;&lt;div style=&quot;font-size: 9px;&quot;&gt;&lt;br style=&quot;font-size: 9px;&quot;&gt;&lt;/div&gt;&lt;div style=&quot;font-size: 9px;&quot;&gt;# Installing Nginx&lt;/div&gt;&lt;div style=&quot;font-size: 9px;&quot;&gt;sudo amazon-linux-extras install -y nginx1&lt;/div&gt;&lt;div style=&quot;font-size: 9px;&quot;&gt;&lt;br style=&quot;font-size: 9px;&quot;&gt;&lt;/div&gt;&lt;div style=&quot;font-size: 9px;&quot;&gt;# Checking Nginx status&lt;/div&gt;&lt;div style=&quot;font-size: 9px;&quot;&gt;sudo service nginx status&lt;/div&gt;&lt;div style=&quot;font-size: 9px;&quot;&gt;&lt;br style=&quot;font-size: 9px;&quot;&gt;&lt;/div&gt;&lt;div style=&quot;font-size: 9px;&quot;&gt;# Starting Nginx&lt;/div&gt;&lt;div style=&quot;font-size: 9px;&quot;&gt;sudo service nginx start&lt;/div&gt;&lt;div style=&quot;font-size: 9px;&quot;&gt;&lt;br style=&quot;font-size: 9px;&quot;&gt;&lt;/div&gt;&lt;div style=&quot;font-size: 9px;&quot;&gt;# Enabling Nginx to restart on system reboot&lt;/div&gt;&lt;div style=&quot;font-size: 9px;&quot;&gt;sudo chkconfig nginx on&lt;/div&gt;&lt;div style=&quot;font-size: 9px;&quot;&gt;&lt;br style=&quot;font-size: 9px;&quot;&gt;&lt;/div&gt;&lt;div style=&quot;font-size: 9px;&quot;&gt;# Creating folders for deployments&lt;/div&gt;&lt;div style=&quot;font-size: 9px;&quot;&gt;sudo mkdir -p /var/www/my-php-project&lt;/div&gt;&lt;div style=&quot;font-size: 9px;&quot;&gt;&lt;br style=&quot;font-size: 9px;&quot;&gt;&lt;/div&gt;&lt;div style=&quot;font-size: 9px;&quot;&gt;# Changing Nginx configuration&lt;/div&gt;&lt;div style=&quot;font-size: 9px;&quot;&gt;sudo nano /etc/nginx/nginx.conf&lt;/div&gt;&lt;div style=&quot;font-size: 9px;&quot;&gt;&lt;br style=&quot;font-size: 9px;&quot;&gt;&lt;/div&gt;&lt;div style=&quot;font-size: 9px;&quot;&gt;# Only change root to /var/www/my-angular-project&lt;/div&gt;&lt;div style=&quot;font-size: 9px;&quot;&gt;# Press `Ctrl + X` to exit, press `Y` to save and press `Enter` to approve.&lt;/div&gt;&lt;div style=&quot;font-size: 9px;&quot;&gt;&lt;br style=&quot;font-size: 9px;&quot;&gt;&lt;/div&gt;&lt;div style=&quot;font-size: 9px;&quot;&gt;# Restart Nginx&lt;/div&gt;&lt;div style=&quot;font-size: 9px;&quot;&gt;sudo service nginx restart&lt;/div&gt;&lt;div style=&quot;font-size: 9px;&quot;&gt;&lt;br style=&quot;font-size: 9px;&quot;&gt;&lt;/div&gt;" style="rounded=0;whiteSpace=wrap;html=1;align=left;fontSize=9;fontFamily=Roboto Mono;fontSource=https%3A%2F%2Ffonts.googleapis.com%2Fcss%3Ffamily%3DRoboto%2BMono;" vertex="1" parent="1">
          <mxGeometry x="1010.0000000000001" y="-1550" width="440" height="380" as="geometry" />
        </mxCell>
        <mxCell id="OZgBlnHVena3t2A3xkZh-20" value="&amp;lt;/&amp;gt;" style="rounded=1;arcSize=5;fillColor=#0065FF;strokeColor=none;fontColor=#ffffff;align=center;verticalAlign=middle;whiteSpace=wrap;fontSize=10;fontStyle=1;html=1;sketch=0;" vertex="1" parent="1">
          <mxGeometry x="1000" y="-1560" width="24" height="24" as="geometry" />
        </mxCell>
        <mxCell id="OZgBlnHVena3t2A3xkZh-26" value="create an" style="edgeStyle=orthogonalEdgeStyle;rounded=0;orthogonalLoop=1;jettySize=auto;html=1;entryX=0;entryY=0.5;entryDx=0;entryDy=0;fontSize=9;fontFamily=Roboto Mono;fontSource=https%3A%2F%2Ffonts.googleapis.com%2Fcss%3Ffamily%3DRoboto%2BMono;" edge="1" parent="1" source="OZgBlnHVena3t2A3xkZh-21" target="OZgBlnHVena3t2A3xkZh-24">
          <mxGeometry relative="1" as="geometry">
            <Array as="points">
              <mxPoint x="1980" y="-1590" />
              <mxPoint x="1980" y="-1590" />
            </Array>
          </mxGeometry>
        </mxCell>
        <mxCell id="OZgBlnHVena3t2A3xkZh-21" value="CodeDeploy" style="sketch=0;points=[[0,0,0],[0.25,0,0],[0.5,0,0],[0.75,0,0],[1,0,0],[0,1,0],[0.25,1,0],[0.5,1,0],[0.75,1,0],[1,1,0],[0,0.25,0],[0,0.5,0],[0,0.75,0],[1,0.25,0],[1,0.5,0],[1,0.75,0]];outlineConnect=0;fontColor=#232F3E;fillColor=#0000FF;strokeColor=#ffffff;dashed=0;verticalLabelPosition=bottom;verticalAlign=top;align=center;html=1;fontSize=9;fontStyle=0;aspect=fixed;shape=mxgraph.aws4.resourceIcon;resIcon=mxgraph.aws4.codedeploy;fontFamily=Roboto Mono;fontSource=https%3A%2F%2Ffonts.googleapis.com%2Fcss%3Ffamily%3DRoboto%2BMono;" vertex="1" parent="1">
          <mxGeometry x="1745" y="-1640" width="70" height="70" as="geometry" />
        </mxCell>
        <mxCell id="OZgBlnHVena3t2A3xkZh-28" value="next, create a" style="edgeStyle=orthogonalEdgeStyle;rounded=0;orthogonalLoop=1;jettySize=auto;html=1;entryX=0;entryY=0.5;entryDx=0;entryDy=0;fontSize=9;fontFamily=Roboto Mono;fontSource=https%3A%2F%2Ffonts.googleapis.com%2Fcss%3Ffamily%3DRoboto%2BMono;" edge="1" parent="1" source="OZgBlnHVena3t2A3xkZh-24" target="OZgBlnHVena3t2A3xkZh-25">
          <mxGeometry relative="1" as="geometry" />
        </mxCell>
        <mxCell id="OZgBlnHVena3t2A3xkZh-24" value="&lt;b style=&quot;font-size: 9px;&quot;&gt;Application&lt;/b&gt; with Compute platform &lt;b style=&quot;font-size: 9px;&quot;&gt;EC2/On-premises&lt;/b&gt;" style="text;html=1;align=center;verticalAlign=middle;whiteSpace=wrap;rounded=0;fontSize=9;fontFamily=Roboto Mono;fontSource=https%3A%2F%2Ffonts.googleapis.com%2Fcss%3Ffamily%3DRoboto%2BMono;" vertex="1" parent="1">
          <mxGeometry x="2030.62" y="-1610" width="174.12" height="40" as="geometry" />
        </mxCell>
        <mxCell id="OZgBlnHVena3t2A3xkZh-25" value="Deployment Group for this application&lt;div style=&quot;font-size: 9px;&quot;&gt;Deployment type: &lt;b style=&quot;font-size: 9px;&quot;&gt;in-place&lt;/b&gt;&lt;/div&gt;" style="text;html=1;align=center;verticalAlign=middle;whiteSpace=wrap;rounded=0;fontSize=9;fontFamily=Roboto Mono;fontSource=https%3A%2F%2Ffonts.googleapis.com%2Fcss%3Ffamily%3DRoboto%2BMono;" vertex="1" parent="1">
          <mxGeometry x="2409" y="-1616.25" width="141" height="52.5" as="geometry" />
        </mxCell>
        <mxCell id="OZgBlnHVena3t2A3xkZh-27" value="1" style="ellipse;whiteSpace=wrap;html=1;aspect=fixed;fillColor=#FF3333;fontColor=#FFFFFF;fontSize=9;fontFamily=Roboto Mono;fontSource=https%3A%2F%2Ffonts.googleapis.com%2Fcss%3Ffamily%3DRoboto%2BMono;" vertex="1" parent="1">
          <mxGeometry x="2030.62" y="-1630" width="20" height="20" as="geometry" />
        </mxCell>
        <mxCell id="OZgBlnHVena3t2A3xkZh-29" value="2" style="ellipse;whiteSpace=wrap;html=1;aspect=fixed;fillColor=#FF3333;fontColor=#FFFFFF;fontSize=9;fontFamily=Roboto Mono;fontSource=https%3A%2F%2Ffonts.googleapis.com%2Fcss%3Ffamily%3DRoboto%2BMono;" vertex="1" parent="1">
          <mxGeometry x="2409" y="-1630" width="20" height="20" as="geometry" />
        </mxCell>
        <mxCell id="OZgBlnHVena3t2A3xkZh-39" value="&lt;span style=&quot;font-size: 9px;&quot;&gt;ATTACH IAM ROLE&lt;/span&gt;" style="edgeStyle=orthogonalEdgeStyle;rounded=0;orthogonalLoop=1;jettySize=auto;html=1;entryX=0.5;entryY=0;entryDx=0;entryDy=0;dashed=1;fontSize=9;fontFamily=Roboto Mono;fontSource=https%3A%2F%2Ffonts.googleapis.com%2Fcss%3Ffamily%3DRoboto%2BMono;" edge="1" parent="1" source="wv3vujb6ksjcOvk2j7Ly-1" target="OZgBlnHVena3t2A3xkZh-25">
          <mxGeometry relative="1" as="geometry">
            <mxPoint x="2942.521739130436" y="-1670" as="sourcePoint" />
            <Array as="points" />
          </mxGeometry>
        </mxCell>
        <mxCell id="wv3vujb6ksjcOvk2j7Ly-1" value="IAM Role #1" style="sketch=0;outlineConnect=0;fontColor=#232F3E;gradientColor=none;fillColor=#DD344C;strokeColor=none;dashed=0;verticalLabelPosition=top;verticalAlign=bottom;align=center;html=1;fontSize=12;fontStyle=0;aspect=fixed;pointerEvents=1;shape=mxgraph.aws4.role;labelPosition=center;" vertex="1" parent="1">
          <mxGeometry x="2440.5" y="-1800" width="78" height="44" as="geometry" />
        </mxCell>
      </root>
    </mxGraphModel>
  </diagram>
  <diagram id="76BwFp7PJPn-txa9_FcN" name="Resources IAM">
    <mxGraphModel dx="-1322" dy="2975" grid="1" gridSize="10" guides="1" tooltips="1" connect="1" arrows="1" fold="1" page="1" pageScale="1" pageWidth="850" pageHeight="1100" math="0" shadow="0">
      <root>
        <mxCell id="0" />
        <mxCell id="1" parent="0" />
        <mxCell id="rpuUBwmd1pclxGHG2TFp-1" value="add permissions&lt;div style=&quot;font-size: 9px;&quot;&gt;through policies&amp;nbsp;&lt;/div&gt;" style="edgeStyle=orthogonalEdgeStyle;rounded=0;orthogonalLoop=1;jettySize=auto;html=1;dashed=1;fontSize=9;fontFamily=Roboto Mono;fontSource=https%3A%2F%2Ffonts.googleapis.com%2Fcss%3Ffamily%3DRoboto%2BMono;" edge="1" parent="1" source="rpuUBwmd1pclxGHG2TFp-2" target="rpuUBwmd1pclxGHG2TFp-4">
          <mxGeometry relative="1" as="geometry" />
        </mxCell>
        <mxCell id="rpuUBwmd1pclxGHG2TFp-2" value="" style="sketch=0;outlineConnect=0;fontColor=#232F3E;gradientColor=none;fillColor=#DD344C;strokeColor=none;dashed=0;verticalLabelPosition=top;verticalAlign=bottom;align=center;html=1;fontSize=9;fontStyle=0;aspect=fixed;pointerEvents=1;shape=mxgraph.aws4.role;labelPosition=center;fontFamily=Roboto Mono;fontSource=https%3A%2F%2Ffonts.googleapis.com%2Fcss%3Ffamily%3DRoboto%2BMono;" vertex="1" parent="1">
          <mxGeometry x="2663.5" y="-1880" width="78" height="44" as="geometry" />
        </mxCell>
        <mxCell id="rpuUBwmd1pclxGHG2TFp-3" value="" style="shape=image;verticalLabelPosition=bottom;labelBackgroundColor=default;verticalAlign=top;aspect=fixed;imageAspect=0;image=data:image/png,iVBORw0KGgoAAAANSUhEUgAAARcAAABgCAYAAAA3gzYZAAAAAXNSR0IArs4c6QAAAARnQU1BAACxjwv8YQUAAAAJcEhZcwAADsMAAA7DAcdvqGQAAB+jSURBVHhe7Z0PXFRV2sd/S6Mw6wu+YMwWKugOBq8iCyptQ2lCvmC6ibutmi241pablZpZora+SKaFm/0x000qTdkMxE0s/0AmKq+MBcLEDi6oszqIkw0JC/PagMzC+5w7d2AYZvgzzqTo+X4+V+ece++55557zu8+z7n3PvyklQCHw+G4GEFcthbpsPTzs/j+ylUxm8PhcJzj9gH9se5XwWZx8U85hl1zIzBmiI+4msPhcJyjpLoBM7ap4MESzGLhwsLhcFwB0xKmKYK4cDgcjqvh4sLhcNwCFxcOh+MWuLhwOBy3wMWFw+G4BS4uHA7HLXBx4XA4boGLC4fDcQtcXDgcjlvg4sLhcNyC8G3RT144hPpXJ4lZ186pKj1e/UyFE5eu4nuTp5B3u6QJ99zRH8sfisDIQJmQx+Fwbk4GLj/kesslNes47t38DfZWe0Bv8kILfiIs7DfLY+vYNhwO5+bGpeLCROONUqMgJo5g69g2zghMU24you+JQuoRMYNoOsTyHkXGeTFDoAan9h1EXlmNmDZT87enaNtkHGliqQaUbluEBCov7K5wyp+KJ9fn057XF+WyYRgxeg1KxTSH01dxmbgwV+it0h/EVPewbdk+PacJebszUfNtDTI+zqGUGU9FNEZ9W4g8pZUsVO/B8qefwjPPZUIjZrH9T5Dg1IyKhoI8ter3Z2NmSglGPbMa6R/9BatWzsM9NRdQLW59vQie9CxmPBUDuZjmcPoqLhMXNsdia7E8fncAjswfKyzstzVsW7ZPj6nZg125wVi24VkMyd2DvCti/oBoxCnojq88KWaQjJwsxCkfH/hoClHSpjnlKCkAFJOi4YkLyM0qB37zMtYmTYaCBCpuagL+8NocRIpbd6YJDdXlUJZdQE2DRdpEmhpQU1kIZWUNbFe1cYW2cbiyHf9JL2DtM9HoGACDjl1Tg5qaBjSZxCwBln+Wzv1sj8rmcH5MXCYubPLWGiYmH8wcifvlvsLCftsKjO0+XVGzLxPKyDmYljAd04bkY8cui2r4QxETDBwsbHMlTpUUwj/pBST604D/RswsO4zcpmDcr/CnhBd8/Oi/8nJoejImr5TgtftDMDZ2LpbM+w0SxoVgheiaNSjXYPLIcMT8bhGW/O4+jB35mzYXrfq9SRgRtwYfvBiFEbRNdEohqeD/ICyItvnWvI1AUXueeZ/0dgtKk46Zd9Gxx92HhAfJhZsirmsoxGuxlH/vbCxZPBsxo0Mwc9sFYRcO50bAZeJieSpkYc7YO8Vf7djm2e7jmAvY+3EJIqc/SFISjGm/GYrSPQfa5keGKCbDv+kAjpSxFN3JC5pwzxiyQmJIwErIQiGqv85HjT9ZKcNYyh8z1ryESM3rJAxRmLMsHUe6UhnlR/igehbSTxWh8AQtp89j7X2UbyrEm79Px9BXy6Aupnxa3phYgtR38837MSoPonziThT+vQwnU6OBqMmY4VmCvbntbpwyJxNN8b/HDNsmM1FZ09dAM/UvOKmppPIrcWb/kxhCq5TrHsMHw9Nw0lKnDTEoTdkIq+koDue64tIJXbdRmYmMyjGYFs+sDkD+qwQMKU2nPCEJhD+IGf41KC2nAVtzEic00VD8glyg+2JQU1BId/omlCrL4T/zQYwUd4H8SWTRwMx5dTpwZA2eJCsg+veZ0HRwO0SGDsUQ0wF8+HY+NBZ3TEJL6UHsaorG/Xc3kcvC3JYmDAkhK+qbs1ZzN1TvqcHwZ26aD4mpJBqJf7QSRxKovKwmcssmk7tmQym5gg3B+MOzk+HDjscQ/i8R9lGMj0ZTHTtuDZoCR0GOk9B0mNjmcK4fLhMX9h6LNdtPWtv9ZmzzbPdxxCm6s1dLGqB8OxkrltGy9Sw8JWTNfH5W3GIUJk71hPJQIRq+IVcoJAbM+/H8RTTkZeQukQuRf8gT8TGjxO1FPP0xcuZL2H7iPE5uSUDTkWSktrlbVoS8gJyP5gC7HiNLZxii56VTmZRfX0+yRdbLI1OQ8JB5eeZv9fBXBAvWhSPkjz6JyNLt2MuEoIgECnOQSPXvhFA+VfM2c7KdetTTCuV6ctHE4ybMz0TDnXS+XR2Yw/kRcZm4sBfkrPnwax3+kHUKRzV1wsJ+szxrbPexC93Zd71fA/nsBUgYH4OJwjIdidOGovq97W3zLJHjJwMkLh+UFMJTMdY8uIeNhcKzECXp+cjDZNzveLYWPvEL8Ac5oG9oFHM64jPxBUGE1MUfY9r5NUhaXwLIhpKDFY1ln4muiWVJJX+sK+4kS0txFrtyyYXblwn/P86BwmKZWCOUX48GJmQdkGEoiadixf6Oxz3xMibaK4fDuQ64TFzYm7ce6PgnkJiYTNx8UlhshYVty/bpFnZnbxqDxGcSBNfBsiQumgN5Uyb2KsXtFLGYiExsercGcdFjxMwxUExuQsaG7WiaFGs1gJugOWX9hKUJ1Vmv4wONJxThQ8U8K660P6Xx9A+D3DI3MjIW8T6F2PQ2WUxt7hRzkTqpgQ3+mDZ7MjS7F+G1HUOR+DC5UvYQyq9Bxkay3MSqNpHSNAmWmg+UG9+Bstacz2gi96i7I3M4PxYuExf2Sv9zkT8VU93Dtu3JZwBHskgYFLMQbzvZOYysl0gSjixx8nTAZEwTvmCIhsKiLUSkIlr4f+I06zmNBpx6ayqiR4dgRNAwWkIQ8+JJjFmxE4sV4iZW1OQuQpicvdwWhbHycKwon4WNS+ggkjFI2ZOG4IOPUv4wjB1tLithu8Vdc4znVHKFzpfjFHsCJkwy20Esf0xJMmLuYmUPQ9i410E2EyJX/g1rgw9gTiSrV7h53UMfWb3Xw+FcX1z+bRF785a9IOfoLV1msTBhSZl5r5hzHWHvnvwgzGrAx9cHnl25FKYmNNSR1XCbD/z9Os+PNNWS1fBvKsnHH2ze1tU0NVD5JjvHtpyDJ61zx4E5HCdg3xbxDxc5HI7LcZu4cDicWxu3fBXN4XA4DC4uHA7HLXBx4XA4boGLC4fDcQtcXDgcjlvg4sLhcNxCHxKXRujUxVBX23z7o96NVzYVQIhppy/AptW7oRZWuIs6aIqLobksJmGC/pSdetlSp0FRSRUM7HeLAdqyYiiPK1FUXAndFXufYruPWtVeZB/v+DmGy7C+HsYqHMvajwrhS3I9jm1ai2xnL45RBzW1e1GHRQOrrx9goja2bKPW1MHUYpVPba0sLodWuABdY9SVo4j2dwu96qPlyF69Gcd6E7DxBqLviEudEru278aObGWHDgWTAQaD0fy7xUi/DTTc3cipPHyYtRsf5lriPUhgrMzDjn2lEGsBnN+LV5YuxxZlu+Boj2Qiu+giJC065L6xFlsOqHD2nAYVFQXY+ZmlrB+HOm0FNBfq2uvrSqyvx9WLqKjUQicOaCNdG4OzF6dejX1ZeSiqqKA2syw6s1jTjUe1PRUvpW3DnkI15avxZdYnKPweMBzfjJQN+1FEbX326xxsWvMOjnWjG4Zv9iG7QCumXEyv+mizsK1RFMm+Rp8Rl9qTaujHKBBxWYljVWJmT2gxwVBPnbq+0SWiU6FSQ3avArKyAhSJYyjov+SQnKtEpdgJDFotjJ4SaM5YvvTRo0JjgDw8EtLTBXQnCsH0F59AUmIiLU9gySM2oSAsmBrNdbcdkY7yBUw0iLs+U3nCUiTTMaVimmG6wtqIOrLVrpY8Q4eAgVS+0J40QLrr9AMVmLdyPmLvENNd0eU5WQhAtNBmlmU8gii39mg6dmqCMHvlavxp4VzKn4tFy+djgoykPzwRqSkL8Bjb/um5mDBQh6KiazAF2vpTx7Zq46pNm4npztta2rFzvzQxEaZ19trXss7QU2u32/7ffX9xlj7ygT6Z118ZEPW7aYj0VGNHaRWmBwaK67qgrhhbN+TgLA0jKd2njQjBjBcSSaDIsthUi1+tnYsIklf19uXYcXE8dcgp1H0NOLZhLUpHLsWiSb5iQSLGYhwrC8LdKXHApVSUljUi6pdewF0hCMZu/OM0EBFKAqTRITh6PPRktmsxCkFG+l8fgNCRtG09q4sW2tN0PqHeYsF2uJSP9e8eBoaEwPtKFUzhT+DpSTIYK3Zjw1/V8BpOw+qiBnXDH0Fy4ihUbluOXDqW5HQ59ANjsGR2I7Zs1OOB1CegEFSkCntWp8P48Go8oF2H9d/FIW0u+yqd3fXTsLMC8Jb2A3xJEJ5VoHb3BuxQSxE8lA5zrhZBM5KRFN6Aw2+8gy9bghDqTa5dcwRtGwPHH3OosHVpHgKeX4r4DgLTCM2nm/GhJgTzFk6B7J/2z8la/BxjgPobHfzuXoCIAWKWFVJv6zY2oZnGkZ/Myc9P9Pl4+91jMAwcTOd8ka6pDyY8t5jOTY/ctDdRxFriKt1xmHXS5Ad5UDP0ejqgidIIw2Mps0Ddg2DW6zp8Tu6iicSn2TcOi55n7dgIdUYadpwSrwWNThP9Yw4Oq8fhDeQi1fsggA6j0+rhPXExlsR1cS6O+j+1k8q2vyTHdXEdnaNviEuVCuqWMCQNIyuBLhI+UKIiIVC8UI5oRFH2blwMn481vzYLUcXHK7EjpxIRj0YgzDtdFIMqnL0gg0xCZnM93Rv7k1ldHYDI39sIC2EsU0EzfBSSpCQS4XLs+aoIhl+Oh7dHBCJDM5F7ju6IoXXk7gRA/rAcXoV50FKZQWTVaAaRtTKQChk4DY9PvYgt20jABtBxYhMQrwikMszHsKAvLYJ+eALSHh8n5jCqkLtbhcDZqzGbhdRroc6zTAmV0TwQG1rkWPJyIvyEq1qH6IB1+LuqEQoF1fc8tSGikMT2s7L4jV9lYOcZOZJovzBLb6jaiy2qICSl0mBg9SrehmQluX0yA4ouyTH9tbmIctrmNUG7TxSW56YgSEKi5+CczKJojYYEci0+F1Ohv16B34bRoKHxLPtZx/jM9tAd2A1lf7qJhIsZvUUWg0VtsXoaoXwvFYVl+jbhlE1cgHm/ZI3IhHwz6sa+ij+xyyec02ESI6qzeUvELnwCUWzTlkrsTNmGfaoYPOaXhz3qwZi+km4ITCjF/cywfVIQK6aMyvex6rgK+jhHotBV/w8R0h37i+vpE25RRWERTHI5/Jh55yuH3EONUlL3rqmFnnzuwcPbLZzQkXKYLmjpHhCIyJFSaP5B/tWlClTefg+m3mVAxalGoJKEYAiJBROCDtDA+kqDAKqHiZmsw+UIqFahSPTfQ0LkqD1TCcMlLap+KkfwQLJmhuvINaKxfE4H77tC2zpBwP3zseqVpXg8NgAXD23GK2/kmSdArZBFRkF2NgevbKABwSYnWWaLHnX1ErKIMrAjg5aPi+j+WYsGEjCGz53URm0dxZdERQ5NEQkgpSpOFJEgRghuhDV139eSnxTWLiwMfS0MEj2KPhaPc0IH/Iva/o4IRN1BA3zNO8g+rkGtE9a0/tA72KSWi8JCGd2cU0eCEL9wARaJy1Sru0tzc9cT6kbVNmw5CsQmkXV6Db3eUFWM3KwMZB8oxUUSNdO/xRVEv7bP6r0gZXHQLEkP68ZlSNCvbR3rJ9Qu31IPYO3uGwi5xQKz3c9QhSISyB1ZeVDp6OBWx+5MV/3fTMf+4npufHEhZS8tJ3P2TA7e3vAOLTmoJD9S9XUv/iyJBavBEBRJFtDpClSQmHiFhiFUHghtJZskJAH5RQQ6OSxkYpZWS1BHdwyhHulK1EnIfz9hvlTSkSEkNhqoNVVoYMJDeaFyEo8LZGWRhRQWaePGSXwhv/dhLHphGoL0KpReEvMt3EGm6svPY3a0Nyo+WYdXPrFM+vphdFwCpj/ElkQsemkhHnAwpyGNGodQHZVdz9pQhugJNnXoCt8wxAvHoCVpAf70bCyJI909n0/BkkcV8K7MRNrqTFT0crLRm9pGVq9BqdZaDHp6ThJIB3rDW1ykwsDwgc9/MgHvYgJWl4dNWXVQLCQXpnsDxzEVmVifroIpLBbxo9mfj/gRYRbO6+koJQv+gfgwunU4gRM3g2vhxheXCjLnvRSYl7ICf1ppXlY9SZ27orhtQhVXG62efJgEM5lN/snp1nhWXS62KZmJZRpIhgaZLYhh5BpdLUb2/xoQFERSMkKOoAsFyD0ThLvv7jwXwiaUdSMSkCzWgS3JCWStlJwwexlkqYQO0iA3T4PgYLPZ6R1EdoIqD8r/kyPUEhCKhNFkdZFNl3So9aCBYusCsEHLBGhcHB6LD4FRS3ccj0AEDNLhrIbKtgwyby/Hvi25a4pwPUo/KUBloAIKOz0yYDC1hoYsMEvgccaQAPjpNNBQvdqOw0ayICQS+MnHIX5uHEKNWsHU70SH69ERqXwanp7pD9UHm5HLnob39pw64QXF/RHoV7Yfe06JFh6DGlmYECVhWb+xHKFPLegkLMbq8u5fIbBCTwJmHB6BqSMD4B0QQK60uKLXGNFgeSR+RYnS016QB9N1YO1+ma6F5S0B9qRI/Ak9WcRGOSIfpJvYwAAMvr394PbPo5v+/yPgdPP8OFCDkF8pDZvf0ZwPZHMmm80TquFkdWTtxqY0LyxJDkWYbz72kA8rXTcXEQmJiNyYgZQUcULrpxFIetY88KkQMONFWWIZ+FTOwL3Y5zkNEZ18fTahrIN8UliHSUYpuRnyT/NQWkXWR6AMkeHeOJwvhXyEuMGwEMhblFDJSXjELHxfgLfJDaqVkqBQnQxGCUITFmKCjRumP0zuw3EDJCT/pqvNCHv4EeoUXohPiqHBshYvHaL9PZphvCrH7NWJ4l6dCb0vCtkblQh69IkOdW8j4hE8dnoDdqSuxD5vCZrF8pJi38S7a1Yid4AUkhZqO/kjWBOnN09oSvpRpYx0B38Yj9haGCHW18N+N5ZGJCIZ25C24U2Ynib3xsE50eWxge7eS5djp5iig2E2u86hs7DwtxnYunMdXrJELvWQIf75xfDLywebU9VvXIlj4ioMMk9gavMycPjOxQgb4iWusOJUJpKXZooJYuQspE0mV7UgB6tW59HA8YXfQCeHj0cj1DvW4vDlZjRfMcFPMRdJQp+JQ9Kkcrz71koU0bXAQBl8LfG/BJe0AHtS1yKXVvkN8m4bvGoH5xHaZf93P7dEPBf2+M5IzevNLtgNAXsMSYOTfrGnGUxA7MIeY9KtSzLA4gJYEPf3cOE5sUeWZL10KI89Hr7SzCoJb0ssdbadUCk69gBXtqdrzok9Pje29KQMNun6CaRP2j7J6gbh/E3knvXGunIAXV8js1ptC2Lt3uLV3uZWsL7czG5Mbft0fx7Xo//fMvFcJDSAf8yG7Z72uQOHwsLob96mU+ez7O/Kc/KQdC5PQh2cHce6k7PtWJ5LhYXhmnNiQtyjMq7WwiBTkDUgpnuKcP4uEBYGXd/O15Zg7e7gD2Owvtxhnx6cx/Xq/zwSHYfDcTk8Eh2Hw3EbXFw4HI5b4OLC4XDcAhcXDofjFm46cVFnrcWmo/be7Lo5MaoysGrZciQvXY4dZWLmjU6HOC/uwzVxa7qOQ+PW2Dh9nD4vLvpDmzuIiekHAww/iAk3o/7kGoIfuQTq+IfKIXsoBWnrXkWSsx/kuZuWcuy0DpBkE+fFXTgbt8b2unYVh8atsXH6OH1GXOzHFgF01VX2xYS97MS2t+0VlnxH8S3Yi03iCkvsDLtxO2hgX9TSett1PYpLIiLG+rA9p97UkX28Jh1g84Zpd3Vg5XeIB8JeYLM+npju4hzaroedbTrFhtFfRBW1ZduW9uK8dFPnTmUKWOptP/aJvbg1DvtFGw6uK8NSR6u2sz1G133m1qIPvOfSCO1nm7FF2QCptB9MRiO8J87HkjgJmavv43A1Xcjb2EtH/YRP8IOLl+PzhkBI69ndpBnGK42QPbgUi+73BS4VYNN7eTDcEQJfQyW0HrHmOBqX8pD2VhUCRl6EWt2I0EdTEKVOw85zfggeTN3tggxTU2ZZvY7Owg9mo5TKhid7qckXE/44H1E/7MemLUoYpFJITEYYB47HM8/FdfoKl8XS2HVRBp8WVkNWR9AxWbwUEoke1zER3p/1pg7mmCPaO0dBd6ocxtBZSItQIXm3DrKf0t2ZBoPJaIB0iBySy/rObWeFOiMV2eek8JVJYajWwTQiEclz2ACzExtmYi227FYJb/9KvalOg8Zj3tPe2GcV58V43kGd9XTOb6jgLSf3wzYuCp1Pd7Fl9Afa49awNnfYL9qwd10fhnHrm1ANoErU6c3XiyyusMdTMDvU+hihQiwWx33m1oK95wImLljyRWv91dYbczmb0/ri8+mtB+vE9HeHW19+bkPrp9+Z00e3LGtdkfNd2/Ys/WJGRetlMV2Wuab1qS2l9NvYeujdZa0v768Vt73Y+nHqmtaPTtPvqtzWFc+l0e9mcV1p61uU/vi8uQz7y3etWauXtb71tSWtbf0oZVnrn48axXRt66frrI/Xvgh13qVtS5/bv6H1qdW5rWd6VUe29KYO5m3ZcS83itt/vbX1qdSc1jIxfeloOqX3tf5D2Le19R+fpoltJ25vbznNrs+O1uP0+1IB7Z9Mv3+w2Uao+9bWo2155vbNqmK/u6izsN+m1s8ui/vVF7b+2bKfWOYhy7nYWc7ktNffcb+w3c+2Tc3pV79oENPG1oPvtPe59mP0pM/cOgvTlBvfLbKNceE7CqGDdNB28YV9P2/fttezpV6WXyy+hQSNmn3muCEZ+1HxgwF1/xJX0z1v2DDLtqGICjeicPOb2HpABZ2t22IPIS6JL4KGW1wUX4SF+JLb5qCi/dtdGb+Rcvhd1kHXqzraoQd1kAUFdvzkwMMLUjEtZe+Ve0ja2s7hpwkmPSry91L99uLw2VrB1WBegN3YMN3RbZ2l8LF8pE6WDdlDZpyILWO/X/QM9mmCGWovy8eEHXCiz9zk3Pji0gnxU3qnkCBQYYkbMgvzXljhYBLUC2GJKUidPwVBhnxs+Z/ugzrbw7l69rSOPcP5tnJEHbmjbyLn2wBEx92DILsD7droWZ2vPbaMa3FNn7mZuPHFRR6EgMuVKLU8ENKpoK4LAAuV0gbdObsnAIPvbITmjL7to0Hhw0FxbSeoo0oCQhA7cxaiBuqgcWQpWQ7tIUdQQB0qysSKtuhQqq5DwBDb2G9mmg3tsUe0X6lQGygHCzHVqzra0ss6OIcWmmqyLiaOg1wmQ5B/e+wbu7FhrGi2N/idrbNQVg9iyzhLT7qULT3tM7cIvbMNrwe+MZgxtQJb3loJJZntzUZg8NQnESvOwwXKA9Hw2WasKpZA/usUjDZn2yVixiz8/fX3kVLGJuuo/1yVYsKCxW1xSdspx47UbGhZ3BIWy8Q7Bs90sh5oYJEpfzh7JVZ9JoPimQWInzkFFenv4CUlme8mquidUzDPUlFbLh3G+pRP0Ey92EADbPqz44Xodz2voz18qWM7qoOrRh4z/3Owc3MqSvv3Qz+ZL7kq4rMSB7FhwmRB5NbmIzslFfv8FXh6ofW0axd17qrK34vBsruKLeMUttd1lpjfHT3pM7cWfeeraPYY8EqzndgmvUeIb9FCQ6LLT+edjS8i7tdFvBMh8vrPFiP5QT/hyYPUTvk9q6Mjuq/DtSLETelHlpW90ADCo26b2DDd4kSd2XHcElvGWZztMzcffeuraDG2yLUKC0OIb9HtoHU2voi4X486O23roPye1dERvamDcwhxUxzEHLEbG6ZbnKiz22LLOIuzfebmpA9O6PZ9Asc/jKm/8BFTHM7NCReX6wCbhAwLaH8UzeHcjHBx4XA4boGLC4fDcQtcXDgcjlvg4sLhcNwCF5drwDaWDIfDaadviIslBoe9OBmWdTYBOOzF/2iLQeLER2X2ynMYS4bD4fSBN3T14mveAwdDhovQ6n0w4bnF5r8uJ/wd4HzUstgbHs2QJ6RgdridmCLPKmC0GxMmAGBxUt7QIZ79WVB2POu08NtePJEY6P/SOZbMb2/V4B0cjg3sDd0+9kfRGqF8LxWFwxeTMDRiz5rN0EYtxqK49m9VjF+9j1WfeyEpJbH90/+qvXhlkx4PrHwCCha6oY4E61U1Ri9fgNim7sRFA8XK+ZjAPvwxKrElpQBBYpCj9tf47f9NZA7nVqXPvP5vqCpGblYGsg+U4qKRDIh/U6YYByQ0vOPAthtTxImYMO04iCfC4XC65MYXl4pMrE9XwRQWi/jRfmLmtXItMWE4HE5PuOHFRX9OC+PwCEwdGQDvgADILBaJRyACBtVBdbLjn3WwG1Ok25gwBtSKgX1M/zKg2fyzZ1jFkjFWl0Nd3SimOJxbm9tWEal5/8TyST8Xs24sBnhfRdmBg8grPIH/LTgDg+cVXB30S9w3Qobgn3ui7PO/IvvL4/jq6Jco+ncYoqPHYuj3h5G18yAKThTgi0PV+NmUBIzrX4Kcv+7FkULKK9Th9gcTMTOU/J3/8MaVb77AoSNURsFRnGyUQvodMOy/I3DH/2lwXGlAMPst1OYSVF9o4K24F8H/AfQ3nMGRvHwUUJkX/MbiSu67yD49EPdEDYUbArRxOH2G1778Zx+Z0BXidpjgKLYJe0zcLERrFzMYbB/bmCIOY8KY43CQkl1bSAc6polq6DD2LIdzi9B34rkIcTscxzaxG0DKXkwRhzFhzHE4rklYGCy4NRcWDkeADwUOh+MWuLhwOBy3wMWFw+G4BS4uHA7HLXBx4XA4boGLC4fDcQtcXDgcjlvg4sLhcNwCFxcOh+MWuLhwOBy3wMWFw+G4BS4uHA7HLXBx4XA4bkEQl9sH9EdJdYOQweFwONcC0xKmKUI8l61FOiz9/Cy+v+LE39zgcDgcK5iwrPtVsFlcxDwOh8NxGXzOhcPhuAUuLhwOxw0A/w8c/FR3WhV4ewAAAABJRU5ErkJggg==;fontSize=9;fontFamily=Roboto Mono;fontSource=https%3A%2F%2Ffonts.googleapis.com%2Fcss%3Ffamily%3DRoboto%2BMono;" vertex="1" parent="1">
          <mxGeometry x="2763.38" y="-1870" width="279" height="96" as="geometry" />
        </mxCell>
        <mxCell id="rpuUBwmd1pclxGHG2TFp-4" value="&lt;a style=&quot;background-color: rgb(241, 250, 255); -webkit-font-smoothing: auto; border-collapse: separate; border-spacing: 0px; box-sizing: border-box; caption-side: top; cursor: auto; direction: inherit; display: inline; empty-cells: show; font-size: 9px; font-stretch: normal; font-variant-numeric: normal; font-variant-east-asian: normal; font-variant-alternates: normal; font-variant-position: normal; hyphens: none; line-height: var(--line-height-body-m-2zx78l, 22px); list-style: outside none disc; tab-size: 8; text-align: start; text-decoration-color: currentcolor; text-decoration-thickness: 1px; text-shadow: none; text-underline-offset: 0.25em; transition-duration: var(--motion-duration-refresh-only-medium-0rwzu1, 165ms); transition-property: color, text-decoration, -webkit-text-decoration; visibility: visible;&quot; href=&quot;https://us-east-1.console.aws.amazon.com/iam/home?region=us-east-2#/policies/details/arn%3Aaws%3Aiam%3A%3Aaws%3Apolicy%2Fservice-role%2FAmazonEC2RoleforAWSCodeDeploy&quot; rel=&quot;noopener noreferrer&quot; target=&quot;_blank&quot; data-analytics-funnel-value=&quot;link2681-1726268328075-9386&quot; aria-labelledby=&quot;&quot; aria-label=&quot;AmazonEC2RoleforAWSCodeDeploy - Opens in a new tab&quot; class=&quot;awsui_link_4c84z_eu8v7_97 awsui_variant-primary_4c84z_eu8v7_201 awsui_font-size-body-m_4c84z_eu8v7_430&quot; data-testid=&quot;&quot; id=&quot;link-self2682-1726268328075-7413&quot;&gt;AWSCodeDeployRole&lt;/a&gt;" style="sketch=0;outlineConnect=0;fontColor=default;gradientColor=none;strokeColor=#232F3E;fillColor=#ffffff;dashed=0;verticalLabelPosition=bottom;verticalAlign=top;align=center;html=1;fontSize=9;fontStyle=0;aspect=fixed;shape=mxgraph.aws4.resourceIcon;resIcon=mxgraph.aws4.policy;fontFamily=Roboto Mono;fontSource=https%3A%2F%2Ffonts.googleapis.com%2Fcss%3Ffamily%3DRoboto%2BMono;" vertex="1" parent="1">
          <mxGeometry x="2672.5" y="-1720" width="60" height="60" as="geometry" />
        </mxCell>
        <mxCell id="rpuUBwmd1pclxGHG2TFp-5" value="&lt;div style=&quot;font-size: 9px;&quot;&gt;Provides CodeDeploy service access to expand tags and interact with Auto Scaling on your behalf.&lt;br style=&quot;font-size: 9px;&quot;&gt;&lt;/div&gt;" style="text;html=1;align=center;verticalAlign=middle;whiteSpace=wrap;rounded=0;strokeColor=#d6b656;dashed=1;fillColor=#fff2cc;fontFamily=Roboto Mono;fontSource=https%3A%2F%2Ffonts.googleapis.com%2Fcss%3Ffamily%3DRoboto%2BMono;fontSize=9;" vertex="1" parent="1">
          <mxGeometry x="2589.52" y="-1630" width="225.96" height="50" as="geometry" />
        </mxCell>
        <mxCell id="rpuUBwmd1pclxGHG2TFp-6" value="Allows CodeDeploy to call AWS services such as Auto Scaling on your behalf." style="text;html=1;align=center;verticalAlign=middle;whiteSpace=wrap;rounded=0;fontSize=9;fontFamily=Roboto Mono;fontSource=https%3A%2F%2Ffonts.googleapis.com%2Fcss%3Ffamily%3DRoboto%2BMono;" vertex="1" parent="1">
          <mxGeometry x="2585" y="-1580" width="230.48" height="50" as="geometry" />
        </mxCell>
        <UserObject label="&lt;a style=&quot;font-size: 9px;&quot; href=&quot;https://us-east-1.console.aws.amazon.com/iam/home?region=us-east-2#/roles/details/CodeDeployEC2AccessBucket?section=permissions&quot;&gt;https://us-east-1.console.aws.amazon.com/iam/home?region=us-east-2#/roles/details/CodeDeployEC2ServiceRole?section=permissions&lt;/a&gt;" link="&lt;a href=&quot;https://us-east-1.console.aws.amazon.com/iam/home?region=us-east-2#/roles/details/CodeDeployEC2AccessBucket?section=permissions&quot;&gt;CodeDeployEC2AccessBucket | IAM | Global (amazon.com)&lt;/a&gt;" id="rpuUBwmd1pclxGHG2TFp-7">
          <mxCell style="text;whiteSpace=wrap;html=1;fontSize=9;fontFamily=Roboto Mono;fontSource=https%3A%2F%2Ffonts.googleapis.com%2Fcss%3Ffamily%3DRoboto%2BMono;" vertex="1" parent="1">
            <mxGeometry x="2560" y="-1530" width="350" height="40" as="geometry" />
          </mxCell>
        </UserObject>
        <mxCell id="rpuUBwmd1pclxGHG2TFp-8" value="&lt;div style=&quot;font-size: 9px;&quot;&gt;&lt;b style=&quot;font-size: 9px;&quot;&gt;IAM Role #1&amp;nbsp;&lt;/b&gt;&lt;/div&gt;&lt;div style=&quot;font-size: 9px;&quot;&gt;&lt;b style=&quot;font-size: 9px;&quot;&gt;(&lt;/b&gt;&lt;b style=&quot;background-color: initial;&quot;&gt;CodeDeploy)&lt;/b&gt;&lt;/div&gt;" style="text;html=1;align=center;verticalAlign=middle;whiteSpace=wrap;rounded=0;fontSize=9;fontFamily=Roboto Mono;fontSource=https%3A%2F%2Ffonts.googleapis.com%2Fcss%3Ffamily%3DRoboto%2BMono;" vertex="1" parent="1">
          <mxGeometry x="2570" y="-1876" width="90" height="36" as="geometry" />
        </mxCell>
        <mxCell id="C6277LiVZsdbMVvRsjYZ-1" value="add permissions&lt;div style=&quot;font-size: 9px;&quot;&gt;through policies&amp;nbsp;&lt;/div&gt;" style="edgeStyle=orthogonalEdgeStyle;rounded=0;orthogonalLoop=1;jettySize=auto;html=1;dashed=1;fontSize=9;fontFamily=Roboto Mono;fontSource=https%3A%2F%2Ffonts.googleapis.com%2Fcss%3Ffamily%3DRoboto%2BMono;" edge="1" parent="1" source="C6277LiVZsdbMVvRsjYZ-2" target="C6277LiVZsdbMVvRsjYZ-4">
          <mxGeometry relative="1" as="geometry" />
        </mxCell>
        <mxCell id="C6277LiVZsdbMVvRsjYZ-2" value="" style="sketch=0;outlineConnect=0;fontColor=#232F3E;gradientColor=none;fillColor=#DD344C;strokeColor=none;dashed=0;verticalLabelPosition=top;verticalAlign=bottom;align=center;html=1;fontSize=9;fontStyle=0;aspect=fixed;pointerEvents=1;shape=mxgraph.aws4.role;labelPosition=center;fontFamily=Roboto Mono;fontSource=https%3A%2F%2Ffonts.googleapis.com%2Fcss%3Ffamily%3DRoboto%2BMono;" vertex="1" parent="1">
          <mxGeometry x="2673.5" y="-1330" width="78" height="44" as="geometry" />
        </mxCell>
        <mxCell id="C6277LiVZsdbMVvRsjYZ-3" value="" style="shape=image;verticalLabelPosition=bottom;labelBackgroundColor=default;verticalAlign=top;aspect=fixed;imageAspect=0;image=data:image/png,iVBORw0KGgoAAAANSUhEUgAAARcAAABgCAYAAAA3gzYZAAAAAXNSR0IArs4c6QAAAARnQU1BAACxjwv8YQUAAAAJcEhZcwAADsMAAA7DAcdvqGQAAB+jSURBVHhe7Z0PXFRV2sd/S6Mw6wu+YMwWKugOBq8iCyptQ2lCvmC6ibutmi241pablZpZora+SKaFm/0x000qTdkMxE0s/0AmKq+MBcLEDi6oszqIkw0JC/PagMzC+5w7d2AYZvgzzqTo+X4+V+ece++55557zu8+z7n3PvyklQCHw+G4GEFcthbpsPTzs/j+ylUxm8PhcJzj9gH9se5XwWZx8U85hl1zIzBmiI+4msPhcJyjpLoBM7ap4MESzGLhwsLhcFwB0xKmKYK4cDgcjqvh4sLhcNwCFxcOh+MWuLhwOBy3wMWFw+G4BS4uHA7HLXBx4XA4boGLC4fDcQtcXDgcjlvg4sLhcNyC8G3RT144hPpXJ4lZ186pKj1e/UyFE5eu4nuTp5B3u6QJ99zRH8sfisDIQJmQx+Fwbk4GLj/kesslNes47t38DfZWe0Bv8kILfiIs7DfLY+vYNhwO5+bGpeLCROONUqMgJo5g69g2zghMU24you+JQuoRMYNoOsTyHkXGeTFDoAan9h1EXlmNmDZT87enaNtkHGliqQaUbluEBCov7K5wyp+KJ9fn057XF+WyYRgxeg1KxTSH01dxmbgwV+it0h/EVPewbdk+PacJebszUfNtDTI+zqGUGU9FNEZ9W4g8pZUsVO/B8qefwjPPZUIjZrH9T5Dg1IyKhoI8ter3Z2NmSglGPbMa6R/9BatWzsM9NRdQLW59vQie9CxmPBUDuZjmcPoqLhMXNsdia7E8fncAjswfKyzstzVsW7ZPj6nZg125wVi24VkMyd2DvCti/oBoxCnojq88KWaQjJwsxCkfH/hoClHSpjnlKCkAFJOi4YkLyM0qB37zMtYmTYaCBCpuagL+8NocRIpbd6YJDdXlUJZdQE2DRdpEmhpQU1kIZWUNbFe1cYW2cbiyHf9JL2DtM9HoGACDjl1Tg5qaBjSZxCwBln+Wzv1sj8rmcH5MXCYubPLWGiYmH8wcifvlvsLCftsKjO0+XVGzLxPKyDmYljAd04bkY8cui2r4QxETDBwsbHMlTpUUwj/pBST604D/RswsO4zcpmDcr/CnhBd8/Oi/8nJoejImr5TgtftDMDZ2LpbM+w0SxoVgheiaNSjXYPLIcMT8bhGW/O4+jB35mzYXrfq9SRgRtwYfvBiFEbRNdEohqeD/ICyItvnWvI1AUXueeZ/0dgtKk46Zd9Gxx92HhAfJhZsirmsoxGuxlH/vbCxZPBsxo0Mwc9sFYRcO50bAZeJieSpkYc7YO8Vf7djm2e7jmAvY+3EJIqc/SFISjGm/GYrSPQfa5keGKCbDv+kAjpSxFN3JC5pwzxiyQmJIwErIQiGqv85HjT9ZKcNYyh8z1ryESM3rJAxRmLMsHUe6UhnlR/igehbSTxWh8AQtp89j7X2UbyrEm79Px9BXy6Aupnxa3phYgtR38837MSoPonziThT+vQwnU6OBqMmY4VmCvbntbpwyJxNN8b/HDNsmM1FZ09dAM/UvOKmppPIrcWb/kxhCq5TrHsMHw9Nw0lKnDTEoTdkIq+koDue64tIJXbdRmYmMyjGYFs+sDkD+qwQMKU2nPCEJhD+IGf41KC2nAVtzEic00VD8glyg+2JQU1BId/omlCrL4T/zQYwUd4H8SWTRwMx5dTpwZA2eJCsg+veZ0HRwO0SGDsUQ0wF8+HY+NBZ3TEJL6UHsaorG/Xc3kcvC3JYmDAkhK+qbs1ZzN1TvqcHwZ26aD4mpJBqJf7QSRxKovKwmcssmk7tmQym5gg3B+MOzk+HDjscQ/i8R9lGMj0ZTHTtuDZoCR0GOk9B0mNjmcK4fLhMX9h6LNdtPWtv9ZmzzbPdxxCm6s1dLGqB8OxkrltGy9Sw8JWTNfH5W3GIUJk71hPJQIRq+IVcoJAbM+/H8RTTkZeQukQuRf8gT8TGjxO1FPP0xcuZL2H7iPE5uSUDTkWSktrlbVoS8gJyP5gC7HiNLZxii56VTmZRfX0+yRdbLI1OQ8JB5eeZv9fBXBAvWhSPkjz6JyNLt2MuEoIgECnOQSPXvhFA+VfM2c7KdetTTCuV6ctHE4ybMz0TDnXS+XR2Yw/kRcZm4sBfkrPnwax3+kHUKRzV1wsJ+szxrbPexC93Zd71fA/nsBUgYH4OJwjIdidOGovq97W3zLJHjJwMkLh+UFMJTMdY8uIeNhcKzECXp+cjDZNzveLYWPvEL8Ac5oG9oFHM64jPxBUGE1MUfY9r5NUhaXwLIhpKDFY1ln4muiWVJJX+sK+4kS0txFrtyyYXblwn/P86BwmKZWCOUX48GJmQdkGEoiadixf6Oxz3xMibaK4fDuQ64TFzYm7ce6PgnkJiYTNx8UlhshYVty/bpFnZnbxqDxGcSBNfBsiQumgN5Uyb2KsXtFLGYiExsercGcdFjxMwxUExuQsaG7WiaFGs1gJugOWX9hKUJ1Vmv4wONJxThQ8U8K660P6Xx9A+D3DI3MjIW8T6F2PQ2WUxt7hRzkTqpgQ3+mDZ7MjS7F+G1HUOR+DC5UvYQyq9Bxkay3MSqNpHSNAmWmg+UG9+Bstacz2gi96i7I3M4PxYuExf2Sv9zkT8VU93Dtu3JZwBHskgYFLMQbzvZOYysl0gSjixx8nTAZEwTvmCIhsKiLUSkIlr4f+I06zmNBpx6ayqiR4dgRNAwWkIQ8+JJjFmxE4sV4iZW1OQuQpicvdwWhbHycKwon4WNS+ggkjFI2ZOG4IOPUv4wjB1tLithu8Vdc4znVHKFzpfjFHsCJkwy20Esf0xJMmLuYmUPQ9i410E2EyJX/g1rgw9gTiSrV7h53UMfWb3Xw+FcX1z+bRF785a9IOfoLV1msTBhSZl5r5hzHWHvnvwgzGrAx9cHnl25FKYmNNSR1XCbD/z9Os+PNNWS1fBvKsnHH2ze1tU0NVD5JjvHtpyDJ61zx4E5HCdg3xbxDxc5HI7LcZu4cDicWxu3fBXN4XA4DC4uHA7HLXBx4XA4boGLC4fDcQtcXDgcjlvg4sLhcNxCHxKXRujUxVBX23z7o96NVzYVQIhppy/AptW7oRZWuIs6aIqLobksJmGC/pSdetlSp0FRSRUM7HeLAdqyYiiPK1FUXAndFXufYruPWtVeZB/v+DmGy7C+HsYqHMvajwrhS3I9jm1ai2xnL45RBzW1e1GHRQOrrx9goja2bKPW1MHUYpVPba0sLodWuABdY9SVo4j2dwu96qPlyF69Gcd6E7DxBqLviEudEru278aObGWHDgWTAQaD0fy7xUi/DTTc3cipPHyYtRsf5lriPUhgrMzDjn2lEGsBnN+LV5YuxxZlu+Boj2Qiu+giJC065L6xFlsOqHD2nAYVFQXY+ZmlrB+HOm0FNBfq2uvrSqyvx9WLqKjUQicOaCNdG4OzF6dejX1ZeSiqqKA2syw6s1jTjUe1PRUvpW3DnkI15avxZdYnKPweMBzfjJQN+1FEbX326xxsWvMOjnWjG4Zv9iG7QCumXEyv+mizsK1RFMm+Rp8Rl9qTaujHKBBxWYljVWJmT2gxwVBPnbq+0SWiU6FSQ3avArKyAhSJYyjov+SQnKtEpdgJDFotjJ4SaM5YvvTRo0JjgDw8EtLTBXQnCsH0F59AUmIiLU9gySM2oSAsmBrNdbcdkY7yBUw0iLs+U3nCUiTTMaVimmG6wtqIOrLVrpY8Q4eAgVS+0J40QLrr9AMVmLdyPmLvENNd0eU5WQhAtNBmlmU8gii39mg6dmqCMHvlavxp4VzKn4tFy+djgoykPzwRqSkL8Bjb/um5mDBQh6KiazAF2vpTx7Zq46pNm4npztta2rFzvzQxEaZ19trXss7QU2u32/7ffX9xlj7ygT6Z118ZEPW7aYj0VGNHaRWmBwaK67qgrhhbN+TgLA0jKd2njQjBjBcSSaDIsthUi1+tnYsIklf19uXYcXE8dcgp1H0NOLZhLUpHLsWiSb5iQSLGYhwrC8LdKXHApVSUljUi6pdewF0hCMZu/OM0EBFKAqTRITh6PPRktmsxCkFG+l8fgNCRtG09q4sW2tN0PqHeYsF2uJSP9e8eBoaEwPtKFUzhT+DpSTIYK3Zjw1/V8BpOw+qiBnXDH0Fy4ihUbluOXDqW5HQ59ANjsGR2I7Zs1OOB1CegEFSkCntWp8P48Go8oF2H9d/FIW0u+yqd3fXTsLMC8Jb2A3xJEJ5VoHb3BuxQSxE8lA5zrhZBM5KRFN6Aw2+8gy9bghDqTa5dcwRtGwPHH3OosHVpHgKeX4r4DgLTCM2nm/GhJgTzFk6B7J/2z8la/BxjgPobHfzuXoCIAWKWFVJv6zY2oZnGkZ/Myc9P9Pl4+91jMAwcTOd8ka6pDyY8t5jOTY/ctDdRxFriKt1xmHXS5Ad5UDP0ejqgidIIw2Mps0Ddg2DW6zp8Tu6iicSn2TcOi55n7dgIdUYadpwSrwWNThP9Yw4Oq8fhDeQi1fsggA6j0+rhPXExlsR1cS6O+j+1k8q2vyTHdXEdnaNviEuVCuqWMCQNIyuBLhI+UKIiIVC8UI5oRFH2blwMn481vzYLUcXHK7EjpxIRj0YgzDtdFIMqnL0gg0xCZnM93Rv7k1ldHYDI39sIC2EsU0EzfBSSpCQS4XLs+aoIhl+Oh7dHBCJDM5F7ju6IoXXk7gRA/rAcXoV50FKZQWTVaAaRtTKQChk4DY9PvYgt20jABtBxYhMQrwikMszHsKAvLYJ+eALSHh8n5jCqkLtbhcDZqzGbhdRroc6zTAmV0TwQG1rkWPJyIvyEq1qH6IB1+LuqEQoF1fc8tSGikMT2s7L4jV9lYOcZOZJovzBLb6jaiy2qICSl0mBg9SrehmQluX0yA4ouyTH9tbmIctrmNUG7TxSW56YgSEKi5+CczKJojYYEci0+F1Ohv16B34bRoKHxLPtZx/jM9tAd2A1lf7qJhIsZvUUWg0VtsXoaoXwvFYVl+jbhlE1cgHm/ZI3IhHwz6sa+ij+xyyec02ESI6qzeUvELnwCUWzTlkrsTNmGfaoYPOaXhz3qwZi+km4ITCjF/cywfVIQK6aMyvex6rgK+jhHotBV/w8R0h37i+vpE25RRWERTHI5/Jh55yuH3EONUlL3rqmFnnzuwcPbLZzQkXKYLmjpHhCIyJFSaP5B/tWlClTefg+m3mVAxalGoJKEYAiJBROCDtDA+kqDAKqHiZmsw+UIqFahSPTfQ0LkqD1TCcMlLap+KkfwQLJmhuvINaKxfE4H77tC2zpBwP3zseqVpXg8NgAXD23GK2/kmSdArZBFRkF2NgevbKABwSYnWWaLHnX1ErKIMrAjg5aPi+j+WYsGEjCGz53URm0dxZdERQ5NEQkgpSpOFJEgRghuhDV139eSnxTWLiwMfS0MEj2KPhaPc0IH/Iva/o4IRN1BA3zNO8g+rkGtE9a0/tA72KSWi8JCGd2cU0eCEL9wARaJy1Sru0tzc9cT6kbVNmw5CsQmkXV6Db3eUFWM3KwMZB8oxUUSNdO/xRVEv7bP6r0gZXHQLEkP68ZlSNCvbR3rJ9Qu31IPYO3uGwi5xQKz3c9QhSISyB1ZeVDp6OBWx+5MV/3fTMf+4npufHEhZS8tJ3P2TA7e3vAOLTmoJD9S9XUv/iyJBavBEBRJFtDpClSQmHiFhiFUHghtJZskJAH5RQQ6OSxkYpZWS1BHdwyhHulK1EnIfz9hvlTSkSEkNhqoNVVoYMJDeaFyEo8LZGWRhRQWaePGSXwhv/dhLHphGoL0KpReEvMt3EGm6svPY3a0Nyo+WYdXPrFM+vphdFwCpj/ElkQsemkhHnAwpyGNGodQHZVdz9pQhugJNnXoCt8wxAvHoCVpAf70bCyJI909n0/BkkcV8K7MRNrqTFT0crLRm9pGVq9BqdZaDHp6ThJIB3rDW1ykwsDwgc9/MgHvYgJWl4dNWXVQLCQXpnsDxzEVmVifroIpLBbxo9mfj/gRYRbO6+koJQv+gfgwunU4gRM3g2vhxheXCjLnvRSYl7ICf1ppXlY9SZ27orhtQhVXG62efJgEM5lN/snp1nhWXS62KZmJZRpIhgaZLYhh5BpdLUb2/xoQFERSMkKOoAsFyD0ThLvv7jwXwiaUdSMSkCzWgS3JCWStlJwwexlkqYQO0iA3T4PgYLPZ6R1EdoIqD8r/kyPUEhCKhNFkdZFNl3So9aCBYusCsEHLBGhcHB6LD4FRS3ccj0AEDNLhrIbKtgwyby/Hvi25a4pwPUo/KUBloAIKOz0yYDC1hoYsMEvgccaQAPjpNNBQvdqOw0ayICQS+MnHIX5uHEKNWsHU70SH69ERqXwanp7pD9UHm5HLnob39pw64QXF/RHoV7Yfe06JFh6DGlmYECVhWb+xHKFPLegkLMbq8u5fIbBCTwJmHB6BqSMD4B0QQK60uKLXGNFgeSR+RYnS016QB9N1YO1+ma6F5S0B9qRI/Ak9WcRGOSIfpJvYwAAMvr394PbPo5v+/yPgdPP8OFCDkF8pDZvf0ZwPZHMmm80TquFkdWTtxqY0LyxJDkWYbz72kA8rXTcXEQmJiNyYgZQUcULrpxFIetY88KkQMONFWWIZ+FTOwL3Y5zkNEZ18fTahrIN8UliHSUYpuRnyT/NQWkXWR6AMkeHeOJwvhXyEuMGwEMhblFDJSXjELHxfgLfJDaqVkqBQnQxGCUITFmKCjRumP0zuw3EDJCT/pqvNCHv4EeoUXohPiqHBshYvHaL9PZphvCrH7NWJ4l6dCb0vCtkblQh69IkOdW8j4hE8dnoDdqSuxD5vCZrF8pJi38S7a1Yid4AUkhZqO/kjWBOnN09oSvpRpYx0B38Yj9haGCHW18N+N5ZGJCIZ25C24U2Ynib3xsE50eWxge7eS5djp5iig2E2u86hs7DwtxnYunMdXrJELvWQIf75xfDLywebU9VvXIlj4ioMMk9gavMycPjOxQgb4iWusOJUJpKXZooJYuQspE0mV7UgB6tW59HA8YXfQCeHj0cj1DvW4vDlZjRfMcFPMRdJQp+JQ9Kkcrz71koU0bXAQBl8LfG/BJe0AHtS1yKXVvkN8m4bvGoH5xHaZf93P7dEPBf2+M5IzevNLtgNAXsMSYOTfrGnGUxA7MIeY9KtSzLA4gJYEPf3cOE5sUeWZL10KI89Hr7SzCoJb0ssdbadUCk69gBXtqdrzok9Pje29KQMNun6CaRP2j7J6gbh/E3knvXGunIAXV8js1ptC2Lt3uLV3uZWsL7czG5Mbft0fx7Xo//fMvFcJDSAf8yG7Z72uQOHwsLob96mU+ez7O/Kc/KQdC5PQh2cHce6k7PtWJ5LhYXhmnNiQtyjMq7WwiBTkDUgpnuKcP4uEBYGXd/O15Zg7e7gD2Owvtxhnx6cx/Xq/zwSHYfDcTk8Eh2Hw3EbXFw4HI5b4OLC4XDcAhcXDofjFm46cVFnrcWmo/be7Lo5MaoysGrZciQvXY4dZWLmjU6HOC/uwzVxa7qOQ+PW2Dh9nD4vLvpDmzuIiekHAww/iAk3o/7kGoIfuQTq+IfKIXsoBWnrXkWSsx/kuZuWcuy0DpBkE+fFXTgbt8b2unYVh8atsXH6OH1GXOzHFgF01VX2xYS97MS2t+0VlnxH8S3Yi03iCkvsDLtxO2hgX9TSett1PYpLIiLG+rA9p97UkX28Jh1g84Zpd3Vg5XeIB8JeYLM+npju4hzaroedbTrFhtFfRBW1ZduW9uK8dFPnTmUKWOptP/aJvbg1DvtFGw6uK8NSR6u2sz1G133m1qIPvOfSCO1nm7FF2QCptB9MRiO8J87HkjgJmavv43A1Xcjb2EtH/YRP8IOLl+PzhkBI69ndpBnGK42QPbgUi+73BS4VYNN7eTDcEQJfQyW0HrHmOBqX8pD2VhUCRl6EWt2I0EdTEKVOw85zfggeTN3tggxTU2ZZvY7Owg9mo5TKhid7qckXE/44H1E/7MemLUoYpFJITEYYB47HM8/FdfoKl8XS2HVRBp8WVkNWR9AxWbwUEoke1zER3p/1pg7mmCPaO0dBd6ocxtBZSItQIXm3DrKf0t2ZBoPJaIB0iBySy/rObWeFOiMV2eek8JVJYajWwTQiEclz2ACzExtmYi227FYJb/9KvalOg8Zj3tPe2GcV58V43kGd9XTOb6jgLSf3wzYuCp1Pd7Fl9Afa49awNnfYL9qwd10fhnHrm1ANoErU6c3XiyyusMdTMDvU+hihQiwWx33m1oK95wImLljyRWv91dYbczmb0/ri8+mtB+vE9HeHW19+bkPrp9+Z00e3LGtdkfNd2/Ys/WJGRetlMV2Wuab1qS2l9NvYeujdZa0v768Vt73Y+nHqmtaPTtPvqtzWFc+l0e9mcV1p61uU/vi8uQz7y3etWauXtb71tSWtbf0oZVnrn48axXRt66frrI/Xvgh13qVtS5/bv6H1qdW5rWd6VUe29KYO5m3ZcS83itt/vbX1qdSc1jIxfeloOqX3tf5D2Le19R+fpoltJ25vbznNrs+O1uP0+1IB7Z9Mv3+w2Uao+9bWo2155vbNqmK/u6izsN+m1s8ui/vVF7b+2bKfWOYhy7nYWc7ktNffcb+w3c+2Tc3pV79oENPG1oPvtPe59mP0pM/cOgvTlBvfLbKNceE7CqGDdNB28YV9P2/fttezpV6WXyy+hQSNmn3muCEZ+1HxgwF1/xJX0z1v2DDLtqGICjeicPOb2HpABZ2t22IPIS6JL4KGW1wUX4SF+JLb5qCi/dtdGb+Rcvhd1kHXqzraoQd1kAUFdvzkwMMLUjEtZe+Ve0ja2s7hpwkmPSry91L99uLw2VrB1WBegN3YMN3RbZ2l8LF8pE6WDdlDZpyILWO/X/QM9mmCGWovy8eEHXCiz9zk3Pji0gnxU3qnkCBQYYkbMgvzXljhYBLUC2GJKUidPwVBhnxs+Z/ugzrbw7l69rSOPcP5tnJEHbmjbyLn2wBEx92DILsD7droWZ2vPbaMa3FNn7mZuPHFRR6EgMuVKLU8ENKpoK4LAAuV0gbdObsnAIPvbITmjL7to0Hhw0FxbSeoo0oCQhA7cxaiBuqgcWQpWQ7tIUdQQB0qysSKtuhQqq5DwBDb2G9mmg3tsUe0X6lQGygHCzHVqzra0ss6OIcWmmqyLiaOg1wmQ5B/e+wbu7FhrGi2N/idrbNQVg9iyzhLT7qULT3tM7cIvbMNrwe+MZgxtQJb3loJJZntzUZg8NQnESvOwwXKA9Hw2WasKpZA/usUjDZn2yVixiz8/fX3kVLGJuuo/1yVYsKCxW1xSdspx47UbGhZ3BIWy8Q7Bs90sh5oYJEpfzh7JVZ9JoPimQWInzkFFenv4CUlme8mquidUzDPUlFbLh3G+pRP0Ey92EADbPqz44Xodz2voz18qWM7qoOrRh4z/3Owc3MqSvv3Qz+ZL7kq4rMSB7FhwmRB5NbmIzslFfv8FXh6ofW0axd17qrK34vBsruKLeMUttd1lpjfHT3pM7cWfeeraPYY8EqzndgmvUeIb9FCQ6LLT+edjS8i7tdFvBMh8vrPFiP5QT/hyYPUTvk9q6Mjuq/DtSLETelHlpW90ADCo26b2DDd4kSd2XHcElvGWZztMzcffeuraDG2yLUKC0OIb9HtoHU2voi4X486O23roPye1dERvamDcwhxUxzEHLEbG6ZbnKiz22LLOIuzfebmpA9O6PZ9Asc/jKm/8BFTHM7NCReX6wCbhAwLaH8UzeHcjHBx4XA4boGLC4fDcQtcXDgcjlvg4sLhcNwCF5drwDaWDIfDaadviIslBoe9OBmWdTYBOOzF/2iLQeLER2X2ynMYS4bD4fSBN3T14mveAwdDhovQ6n0w4bnF5r8uJ/wd4HzUstgbHs2QJ6RgdridmCLPKmC0GxMmAGBxUt7QIZ79WVB2POu08NtePJEY6P/SOZbMb2/V4B0cjg3sDd0+9kfRGqF8LxWFwxeTMDRiz5rN0EYtxqK49m9VjF+9j1WfeyEpJbH90/+qvXhlkx4PrHwCCha6oY4E61U1Ri9fgNim7sRFA8XK+ZjAPvwxKrElpQBBYpCj9tf47f9NZA7nVqXPvP5vqCpGblYGsg+U4qKRDIh/U6YYByQ0vOPAthtTxImYMO04iCfC4XC65MYXl4pMrE9XwRQWi/jRfmLmtXItMWE4HE5PuOHFRX9OC+PwCEwdGQDvgADILBaJRyACBtVBdbLjn3WwG1Ok25gwBtSKgX1M/zKg2fyzZ1jFkjFWl0Nd3SimOJxbm9tWEal5/8TyST8Xs24sBnhfRdmBg8grPIH/LTgDg+cVXB30S9w3Qobgn3ui7PO/IvvL4/jq6Jco+ncYoqPHYuj3h5G18yAKThTgi0PV+NmUBIzrX4Kcv+7FkULKK9Th9gcTMTOU/J3/8MaVb77AoSNURsFRnGyUQvodMOy/I3DH/2lwXGlAMPst1OYSVF9o4K24F8H/AfQ3nMGRvHwUUJkX/MbiSu67yD49EPdEDYUbArRxOH2G1778Zx+Z0BXidpjgKLYJe0zcLERrFzMYbB/bmCIOY8KY43CQkl1bSAc6polq6DD2LIdzi9B34rkIcTscxzaxG0DKXkwRhzFhzHE4rklYGCy4NRcWDkeADwUOh+MWuLhwOBy3wMWFw+G4BS4uHA7HLXBx4XA4boGLC4fDcQtcXDgcjlvg4sLhcNwCFxcOh+MWuLhwOBy3wMWFw+G4BS4uHA7HLXBx4XA4bkEQl9sH9EdJdYOQweFwONcC0xKmKUI8l61FOiz9/Cy+v+LE39zgcDgcK5iwrPtVsFlcxDwOh8NxGXzOhcPhuAUuLhwOxw0A/w8c/FR3WhV4ewAAAABJRU5ErkJggg==;fontSize=9;fontFamily=Roboto Mono;fontSource=https%3A%2F%2Ffonts.googleapis.com%2Fcss%3Ffamily%3DRoboto%2BMono;" vertex="1" parent="1">
          <mxGeometry x="2773.38" y="-1320" width="279" height="96" as="geometry" />
        </mxCell>
        <mxCell id="C6277LiVZsdbMVvRsjYZ-4" value="&lt;a id=&quot;link-self2682-1726268328075-7413&quot; data-testid=&quot;&quot; class=&quot;awsui_link_4c84z_eu8v7_97 awsui_variant-primary_4c84z_eu8v7_201 awsui_font-size-body-m_4c84z_eu8v7_430&quot; aria-label=&quot;AmazonEC2RoleforAWSCodeDeploy - Opens in a new tab&quot; aria-labelledby=&quot;&quot; data-analytics-funnel-value=&quot;link2681-1726268328075-9386&quot; target=&quot;_blank&quot; rel=&quot;noopener noreferrer&quot; href=&quot;https://us-east-1.console.aws.amazon.com/iam/home?region=us-east-2#/policies/details/arn%3Aaws%3Aiam%3A%3Aaws%3Apolicy%2Fservice-role%2FAmazonEC2RoleforAWSCodeDeploy&quot; style=&quot;background-color: rgb(241, 250, 255); -webkit-font-smoothing: auto; border-collapse: separate; border-spacing: 0px; box-sizing: border-box; caption-side: top; cursor: auto; direction: inherit; display: inline; empty-cells: show; font-size: 9px; font-stretch: normal; font-variant-numeric: normal; font-variant-east-asian: normal; font-variant-alternates: normal; font-variant-position: normal; hyphens: none; line-height: var(--line-height-body-m-2zx78l, 22px); list-style: outside none disc; tab-size: 8; text-align: start; text-decoration-color: currentcolor; text-decoration-thickness: 1px; text-shadow: none; text-underline-offset: 0.25em; transition-duration: var(--motion-duration-refresh-only-medium-0rwzu1, 165ms); transition-property: color, text-decoration, -webkit-text-decoration; visibility: visible;&quot;&gt;AmazonEC2RoleforAWSCodeDeploy&lt;/a&gt;" style="sketch=0;outlineConnect=0;fontColor=default;gradientColor=none;strokeColor=#232F3E;fillColor=#ffffff;dashed=0;verticalLabelPosition=bottom;verticalAlign=top;align=center;html=1;fontSize=9;fontStyle=0;aspect=fixed;shape=mxgraph.aws4.resourceIcon;resIcon=mxgraph.aws4.policy;fontFamily=Roboto Mono;fontSource=https%3A%2F%2Ffonts.googleapis.com%2Fcss%3Ffamily%3DRoboto%2BMono;" vertex="1" parent="1">
          <mxGeometry x="2682.5" y="-1170" width="60" height="60" as="geometry" />
        </mxCell>
        <mxCell id="C6277LiVZsdbMVvRsjYZ-5" value="&lt;div style=&quot;font-size: 9px;&quot;&gt;Provides EC2 access to S3 bucket to download revision. This role is needed by the CodeDeploy agent on EC2 instances.&lt;/div&gt;&lt;div style=&quot;font-size: 9px;&quot;&gt;&lt;br style=&quot;font-size: 9px;&quot;&gt;&lt;/div&gt;" style="text;html=1;align=center;verticalAlign=middle;whiteSpace=wrap;rounded=0;strokeColor=#d6b656;dashed=1;fillColor=#fff2cc;fontFamily=Roboto Mono;fontSource=https%3A%2F%2Ffonts.googleapis.com%2Fcss%3Ffamily%3DRoboto%2BMono;fontSize=9;" vertex="1" parent="1">
          <mxGeometry x="2599.52" y="-1080" width="225.96" height="50" as="geometry" />
        </mxCell>
        <mxCell id="C6277LiVZsdbMVvRsjYZ-6" value="You can customize this role to limit its scope as well only Codepipeline artifact stores can assume" style="text;html=1;align=center;verticalAlign=middle;whiteSpace=wrap;rounded=0;fontSize=9;fontFamily=Roboto Mono;fontSource=https%3A%2F%2Ffonts.googleapis.com%2Fcss%3Ffamily%3DRoboto%2BMono;" vertex="1" parent="1">
          <mxGeometry x="2595" y="-1030" width="230.48" height="50" as="geometry" />
        </mxCell>
        <UserObject label="&lt;a href=&quot;https://us-east-1.console.aws.amazon.com/iam/home?region=us-east-2#/roles/details/CodeDeployEC2AccessBucket?section=permissions&quot; style=&quot;font-size: 9px;&quot;&gt;CodeDeployEC2AccessBucket | IAM | Global (amazon.com)&lt;/a&gt;" link="&lt;a href=&quot;https://us-east-1.console.aws.amazon.com/iam/home?region=us-east-2#/roles/details/CodeDeployEC2AccessBucket?section=permissions&quot;&gt;CodeDeployEC2AccessBucket | IAM | Global (amazon.com)&lt;/a&gt;" id="C6277LiVZsdbMVvRsjYZ-7">
          <mxCell style="text;whiteSpace=wrap;html=1;fontSize=9;fontFamily=Roboto Mono;fontSource=https%3A%2F%2Ffonts.googleapis.com%2Fcss%3Ffamily%3DRoboto%2BMono;" vertex="1" parent="1">
            <mxGeometry x="2570" y="-980" width="350" height="40" as="geometry" />
          </mxCell>
        </UserObject>
        <mxCell id="C6277LiVZsdbMVvRsjYZ-8" value="&lt;div style=&quot;font-size: 9px;&quot;&gt;&lt;b style=&quot;font-size: 9px;&quot;&gt;IAM Role #2&lt;/b&gt;&lt;/div&gt;&lt;div style=&quot;font-size: 9px;&quot;&gt;&lt;b&gt;(&lt;/b&gt;&lt;b style=&quot;background-color: initial;&quot;&gt;EC2 instance)&lt;/b&gt;&lt;/div&gt;" style="text;html=1;align=center;verticalAlign=middle;whiteSpace=wrap;rounded=0;fontSize=9;fontFamily=Roboto Mono;fontSource=https%3A%2F%2Ffonts.googleapis.com%2Fcss%3Ffamily%3DRoboto%2BMono;" vertex="1" parent="1">
          <mxGeometry x="2580" y="-1326" width="85" height="40" as="geometry" />
        </mxCell>
      </root>
    </mxGraphModel>
  </diagram>
</mxfile>
